<?xml version="1.0" encoding="UTF-8" standalone="no"?>
<!-- Created with Inkscape (http://www.inkscape.org/) -->

<svg
   xmlns:dc="http://purl.org/dc/elements/1.1/"
   xmlns:cc="http://creativecommons.org/ns#"
   xmlns:rdf="http://www.w3.org/1999/02/22-rdf-syntax-ns#"
   xmlns:svg="http://www.w3.org/2000/svg"
   xmlns="http://www.w3.org/2000/svg"
   xmlns:sodipodi="http://sodipodi.sourceforge.net/DTD/sodipodi-0.dtd"
   xmlns:inkscape="http://www.inkscape.org/namespaces/inkscape"
   width="564"
   height="381"
   viewBox="0 0 149.225 100.80625"
   version="1.1"
   id="svg7238"
   inkscape:version="0.92.1 r15371"
   sodipodi:docname="envy.svg">
  <defs
     id="defs7232" />
  <sodipodi:namedview
     id="base"
     pagecolor="#ffffff"
     bordercolor="#666666"
     borderopacity="1.0"
     inkscape:pageopacity="0.0"
     inkscape:pageshadow="2"
     inkscape:zoom="0.7"
     inkscape:cx="81.348"
     inkscape:cy="157.20687"
     inkscape:document-units="mm"
     inkscape:current-layer="layer1"
     showgrid="false"
     units="px"
     inkscape:snap-global="false"
     inkscape:window-width="1366"
     inkscape:window-height="745"
     inkscape:window-x="-8"
     inkscape:window-y="-8"
     inkscape:window-maximized="1" />
  <metadata
     id="metadata7235">
    <rdf:RDF>
      <cc:Work
         rdf:about="">
        <dc:format>image/svg+xml</dc:format>
        <dc:type
           rdf:resource="http://purl.org/dc/dcmitype/StillImage" />
        <dc:title></dc:title>
      </cc:Work>
    </rdf:RDF>
  </metadata>
  <g
     inkscape:label="Layer 1"
     inkscape:groupmode="layer"
     id="layer1"
     transform="translate(0,-196.19373)">
    <path
       style="fill:#f4fff8;fill-opacity:1;stroke:#000000;stroke-width:1.06500006;stroke-linecap:butt;stroke-linejoin:miter;stroke-miterlimit:4;stroke-dasharray:none;stroke-opacity:1"
       d="m 52.738839,222.28819 c 0,0 1.80129,1.64953 2.87317,2.20497 0.93195,0.48293 1.98559,0.69269 3.00678,0.93544 0.92264,0.21933 1.86305,0.36985 2.80633,0.46773 1.06429,0.11044 2.13728,0.12273 3.20723,0.13363 1.04699,0.0107 2.102,0.0673 3.14042,-0.0668 1.135819,-0.14665 2.276879,-0.37811 3.340869,-0.80181 0.78793,-0.31377 1.52302,-0.76531 2.20497,-1.26953 0.36746,-0.27169 1.00226,-0.93544 1.00226,-0.93544 0,0 -0.48889,1.79679 -0.80181,2.6727 -0.38964,1.09066 -0.80493,2.17818 -1.33635,3.20723 -0.38565,0.74677 -0.83265,1.46533 -1.33634,2.13815 -0.48219,0.6441 -0.9715,1.30629 -1.60362,1.80407 -0.59494,0.46851 -1.27228,0.87602 -2.004519,1.06908 -0.8402,0.22153 -1.74149,0.15541 -2.60588,0.0668 -1.06949,-0.10961 -2.16876,-0.27489 -3.14043,-0.73499 -1.0911,-0.51665 -1.9588,-1.41667 -2.87313,-2.20497 -0.70385,-0.60683 -1.39129,-1.23942 -2.00451,-1.93771 -0.64078,-0.72967 -1.21675,-1.5188 -1.73726,-2.33861 -0.55548,-0.87488 -1.03187,-1.80035 -1.47,-2.73951 -0.25354,-0.54348 -0.66818,-1.67045 -0.66818,-1.67045 z"
       id="path7794"
       inkscape:connector-curvature="0"
       sodipodi:nodetypes="caaaaaaacaaaaaaaaaaac"
       inkscape:export-filename="C:\Users\palme_000\path7847.png"
       inkscape:export-xdpi="96"
       inkscape:export-ydpi="96" />
    <path
       style="fill:#ffffff;fill-opacity:1;stroke:#000000;stroke-width:1.06500006;stroke-linecap:butt;stroke-linejoin:miter;stroke-miterlimit:4;stroke-dasharray:none;stroke-opacity:1"
       d="m 77.877238,223.32083 c 0,0 1.87544,1.56472 2.97179,2.07014 0.95323,0.43944 2.01542,0.60039 3.04672,0.79579 0.93177,0.17655 1.87812,0.28355 2.82491,0.33783 1.06825,0.0612 2.14066,0.024 3.20998,-0.0144 1.04637,-0.0376 2.10287,-0.0297 3.134,-0.21154 1.12785,-0.19887 2.257019,-0.4827 3.300339,-0.95501 0.77262,-0.34977 1.48611,-0.83473 2.14408,-1.36986 0.35454,-0.28834 0.95806,-0.98066 0.95806,-0.98066 0,0 -0.40551,1.81742 -0.67771,2.70683 -0.33893,1.10747 -0.70363,2.21298 -1.18703,3.26544 -0.35081,0.76376 -0.7642,1.50217 -1.23633,2.1975 -0.45197,0.66565 -0.91023,1.3497 -1.51872,1.8761 -0.572699,0.49544 -1.230529,0.93375 -1.953089,1.16037 -0.82909,0.26004 -1.73247,0.23555 -2.60003,0.1869 -1.07341,-0.0602 -2.17913,-0.17459 -3.17098,-0.5894 -1.11376,-0.46579 -2.02204,-1.32484 -2.97175,-2.07014 -0.73108,-0.57372 -1.44696,-1.17394 -2.09173,-1.84321 -0.67375,-0.69935 -1.28549,-1.46108 -1.84325,-2.25601 -0.59523,-0.84834 -1.11379,-1.75086 -1.59476,-2.66881 -0.27834,-0.53122 -0.7445,-1.63787 -0.7445,-1.63787 z"
       id="path7794-9"
       inkscape:connector-curvature="0"
       sodipodi:nodetypes="caaaaaaacaaaaaaaaaaac"
       inkscape:export-filename="C:\Users\palme_000\path7847.png"
       inkscape:export-xdpi="96"
       inkscape:export-ydpi="96" />
    <path
       style="fill:#00b741;fill-opacity:1;stroke:#00b741;stroke-width:0.26458332px;stroke-linecap:butt;stroke-linejoin:miter;stroke-opacity:1"
       d="m 63.663489,226.59791 c 0,0 -0.64249,1.49324 -0.86863,2.27179 -0.2187,0.75294 -0.41983,1.52261 -0.4677,2.3052 -0.0344,0.56197 0.13159,1.68393 0.13159,1.68393 0,0 0.79244,0.31616 1.20474,0.42082 0.40771,0.1035 0.82637,0.16763 1.24557,0.20248 0.40536,0.0337 0.81493,0.0399 1.22025,0.006 0.38312,-0.0323 0.76911,-0.0843 1.13624,-0.19843 0.30761,-0.0957 0.604639,-0.23316 0.878419,-0.40293 0.21345,-0.13236 0.58584,-0.4738 0.58584,-0.4738 0,0 -0.0468,-0.78579 -0.12183,-1.17098 -0.0998,-0.512 -0.21812,-1.02868 -0.43431,-1.5034 -0.26372,-0.5791 -0.656759,-1.0924 -1.035669,-1.60361 -0.33878,-0.45707 -0.72041,-0.88139 -1.10249,-1.30294 -0.0428,-0.0473 -0.13328,-0.13734 -0.13328,-0.13734 0,0 -0.82826,0.009 -1.24238,0.006 -0.33217,-0.002 -0.99636,-0.0197 -0.99636,-0.0197 z"
       id="path7811"
       inkscape:connector-curvature="0"
       sodipodi:nodetypes="caacaaaaacaaaacacc"
       inkscape:export-filename="C:\Users\palme_000\path7847.png"
       inkscape:export-xdpi="96"
       inkscape:export-ydpi="96" />
    <path
       style="fill:#00b741;fill-opacity:1;stroke:#00b741;stroke-width:0.26458332px;stroke-linecap:butt;stroke-linejoin:miter;stroke-opacity:1"
       d="m 88.768828,229.2072 c -0.2187,0.75294 -0.41522,1.5229 -0.4677,2.3052 -0.0444,0.6615 0.13159,1.98461 0.13159,1.98461 0,0 0.80071,0.15234 1.20474,0.20366 0.41338,0.0525 0.82893,0.0992 1.24557,0.10643 0.34995,0.006 0.70157,-0.008 1.04868,-0.0528 0.41008,-0.053 0.85583,-0.12709 1.21403,-0.25475 0.28942,-0.10313 0.5503,-0.25213 0.78321,-0.4525 0.24251,-0.20862 0.709869,-0.68641 0.709869,-0.68641 0,0 -0.0109,-0.52418 -0.0569,-0.78119 -0.0918,-0.51348 -0.21812,-1.02868 -0.434309,-1.5034 -0.26372,-0.5791 -0.66228,-1.08835 -1.03567,-1.60361 -0.29851,-0.41193 -0.6123,-0.81513 -0.9605,-1.18601 -0.0647,-0.069 -0.20881,-0.1921 -0.20881,-0.1921 0,0 -0.85563,0.0461 -1.28378,0.0608 -0.3487,0.0119 -1.04648,0.0221 -1.04648,0.0221 -0.1699,0.26919 -0.66579,1.43686 -0.84357,2.03001 z"
       id="path7811-6"
       inkscape:connector-curvature="0"
       sodipodi:nodetypes="cacaaasscaaaacacc"
       inkscape:export-filename="C:\Users\palme_000\path7847.png"
       inkscape:export-xdpi="96"
       inkscape:export-ydpi="96" />
    <path
       style="color:#000000;font-style:normal;font-variant:normal;font-weight:normal;font-stretch:normal;font-size:medium;line-height:normal;font-family:sans-serif;font-variant-ligatures:normal;font-variant-position:normal;font-variant-caps:normal;font-variant-numeric:normal;font-variant-alternates:normal;font-feature-settings:normal;text-indent:0;text-align:start;text-decoration:none;text-decoration-line:none;text-decoration-style:solid;text-decoration-color:#000000;letter-spacing:normal;word-spacing:normal;text-transform:none;writing-mode:lr-tb;direction:ltr;text-orientation:mixed;dominant-baseline:auto;baseline-shift:baseline;text-anchor:start;white-space:normal;shape-padding:0;clip-rule:nonzero;display:inline;overflow:visible;visibility:visible;opacity:1;isolation:auto;mix-blend-mode:normal;color-interpolation:sRGB;color-interpolation-filters:linearRGB;solid-color:#000000;solid-opacity:1;vector-effect:none;fill:#000000;fill-opacity:1;fill-rule:nonzero;stroke:none;stroke-width:1.36500001;stroke-linecap:butt;stroke-linejoin:miter;stroke-miterlimit:4;stroke-dasharray:none;stroke-dashoffset:0;stroke-opacity:1;color-rendering:auto;image-rendering:auto;shape-rendering:auto;text-rendering:auto;enable-background:accumulate"
       d="m 53.731539,236.64111 0.78747,3.32616 c 0,0 4.14996,-0.1173 6.14602,0.35929 1.69049,0.40363 3.35277,1.0899 4.78113,2.08008 1.04965,0.72765 1.95514,1.69151 2.664059,2.7539 0.66296,0.99353 1.11393,2.13502 1.42188,3.28906 0.34683,1.29977 0.39938,2.66576 0.45703,4.00977 0.0462,1.07755 0.12611,2.17766 -0.0898,3.23437 -0.2062,1.00919 -0.56789,2.0137 -1.13281,2.875 -0.90566,1.38079 -2.141219,2.5693 -3.503909,3.50196 -1.80842,1.23773 -4.08843,2.01008 -6.01549,2.65234 -1.46895,0.332 -3.01881,-0.23206 -4.57464,-0.63297 l -0.78363,3.66897 c 1.65498,-0.16611 4.24039,-1.23451 5.79381,-1.72936 2.05611,-0.68516 4.08696,-1.57458 5.85352,-2.83008 1.48596,-1.05607 2.867619,-2.34264 3.867189,-3.86718 0.6603,-1.00709 1.08309,-2.18146 1.32421,-3.36133 0.23838,-1.16646 0.15045,-2.38083 0.0996,-3.57031 -0.0617,-1.4435 -0.11772,-2.91067 -0.49023,-4.30664 -0.34674,-1.29941 -0.85502,-2.58449 -1.60156,-3.70313 -0.79945,-1.19793 -1.838859,-2.25882 -3.003909,-3.10547 -1.39062,-1.01058 -3.03869,-1.62228 -4.63281,-2.26562 -2.39303,-0.96576 -7.36713,-2.37881 -7.36713,-2.37881 z"
       id="path7828"
       inkscape:connector-curvature="0"
       sodipodi:nodetypes="ccaaaaaaaaccccaaaaaaaac"
       inkscape:export-filename="C:\Users\palme_000\path7847.png"
       inkscape:export-xdpi="96"
       inkscape:export-ydpi="96" />
    <path
       style="color:#000000;font-style:normal;font-variant:normal;font-weight:normal;font-stretch:normal;font-size:medium;line-height:normal;font-family:sans-serif;font-variant-ligatures:normal;font-variant-position:normal;font-variant-caps:normal;font-variant-numeric:normal;font-variant-alternates:normal;font-feature-settings:normal;text-indent:0;text-align:start;text-decoration:none;text-decoration-line:none;text-decoration-style:solid;text-decoration-color:#000000;letter-spacing:normal;word-spacing:normal;text-transform:none;writing-mode:lr-tb;direction:ltr;text-orientation:mixed;dominant-baseline:auto;baseline-shift:baseline;text-anchor:start;white-space:normal;shape-padding:0;clip-rule:nonzero;display:inline;overflow:visible;visibility:visible;opacity:1;isolation:auto;mix-blend-mode:normal;color-interpolation:sRGB;color-interpolation-filters:linearRGB;solid-color:#000000;solid-opacity:1;vector-effect:none;fill:#000000;fill-opacity:1;fill-rule:nonzero;stroke:none;stroke-width:1.36500001;stroke-linecap:butt;stroke-linejoin:miter;stroke-miterlimit:4;stroke-dasharray:none;stroke-dashoffset:0;stroke-opacity:1;color-rendering:auto;image-rendering:auto;shape-rendering:auto;text-rendering:auto;enable-background:accumulate"
       d="m 81.989718,245.96267 c 0.24306,-0.54476 0.5509,-1.07856 0.87998,-1.57166 0.79945,-1.19793 1.83886,-2.25882 3.00391,-3.10547 1.39062,-1.01058 3.03869,-1.62228 4.63281,-2.26562 2.39303,-0.96576 7.367129,-2.37881 7.367129,-2.37881 l -0.78747,3.32616 c 0,0 -4.149959,-0.1173 -6.146019,0.35929 -1.69049,0.40363 -3.35277,1.0899 -4.78113,2.08008 -1.04965,0.72765 -1.95515,1.6915 -2.66406,2.7539 -0.23243,0.34833 -0.43881,0.71485 -0.6221,1.09372 z m 1.21501,13.1376 c 0,0 1.9383,2.17315 3.13775,2.97043 1.82502,1.21311 4.08843,2.01008 6.01549,2.65234 1.46895,0.332 3.018809,-0.23206 4.574639,-0.63297 l 0.78363,3.66897 c -1.65498,-0.16611 -4.240389,-1.23451 -5.793809,-1.72936 -2.05611,-0.68516 -4.07983,-1.58468 -5.85352,-2.83008 -1.39863,-0.98205 -3.66639,-3.5837 -3.66639,-3.5837 z"
       id="path7828-8"
       inkscape:connector-curvature="0"
       sodipodi:nodetypes="csaaccaascccaccccacc"
       inkscape:export-filename="C:\Users\palme_000\path7847.png"
       inkscape:export-xdpi="96"
       inkscape:export-ydpi="96" />
    <path
       style="fill:none;stroke:#000000;stroke-width:1.66499996;stroke-linecap:butt;stroke-linejoin:miter;stroke-miterlimit:4;stroke-dasharray:none;stroke-opacity:1"
       d="m 70.245008,250.35149 c 0,0 2.07711,-1.60908 3.20724,-2.27179 1.34063,-0.78615 2.72971,-1.52958 4.20949,-2.00452 1.20637,-0.38719 2.47498,-0.69081 3.74177,-0.66818 1.16183,0.0207 2.46016,0.0623 3.40769,0.73499 0.76624,0.54395 1.33142,1.47602 1.46999,2.40543 0.10515,0.70527 -0.0663,1.53354 -0.53453,2.07133 -0.53776,0.61765 -1.48025,0.72534 -2.27179,0.93545 -0.67287,0.17861 -1.37521,0.25959 -2.07134,0.26727 -1.67981,0.0185 -5.0113,-0.53454 -5.0113,-0.53454 0,0 3.39472,0.33378 5.07812,0.60136 0.89728,0.14263 1.88573,0.0805 2.6727,0.53454 0.64246,0.37064 1.14101,1.00566 1.46998,1.67043 0.25185,0.50893 0.46734,1.11845 0.33409,1.67043 -0.22692,0.94 -1.02968,1.69266 -1.80407,2.2718 -0.80816,0.60439 -1.80611,1.00181 -2.80633,1.13589 -1.31156,0.17582 -2.6669,-0.11469 -3.94223,-0.46772 -1.15295,-0.31915 -2.23958,-0.86913 -3.27405,-1.46998 -0.88216,-0.51238 -1.64668,-1.20474 -2.47224,-1.80407 -0.40019,-0.29053 -1.20272,-0.86863 -1.20272,-0.86863"
       id="path7847"
       inkscape:connector-curvature="0"
       sodipodi:nodetypes="caaaaaaaacaaaaaaaaac"
       inkscape:export-filename="C:\Users\palme_000\path7847.png"
       inkscape:export-xdpi="96"
       inkscape:export-ydpi="96" />
  </g>
</svg>
