<?xml version="1.0" encoding="UTF-8" standalone="no"?>
<!-- Created with Inkscape (http://www.inkscape.org/) -->

<svg
   xmlns:dc="http://purl.org/dc/elements/1.1/"
   xmlns:cc="http://creativecommons.org/ns#"
   xmlns:rdf="http://www.w3.org/1999/02/22-rdf-syntax-ns#"
   xmlns:svg="http://www.w3.org/2000/svg"
   xmlns="http://www.w3.org/2000/svg"
   xmlns:sodipodi="http://sodipodi.sourceforge.net/DTD/sodipodi-0.dtd"
   xmlns:inkscape="http://www.inkscape.org/namespaces/inkscape"
   width="564"
   height="381"
   viewBox="0 0 149.225 100.80625"
   version="1.1"
   id="svg7855"
   inkscape:version="0.92.1 r15371"
   sodipodi:docname="greed.svg"
   inkscape:export-filename="C:\Users\palme_000\Documents\Grado en Ingenieria Informatica UB\Cuarto Curso\Test\ES2017F2\Wiki Resources\Sprites\faces\greed.png"
   inkscape:export-xdpi="96"
   inkscape:export-ydpi="96">
  <defs
     id="defs7849" />
  <sodipodi:namedview
     id="base"
     pagecolor="#ffffff"
     bordercolor="#666666"
     borderopacity="1.0"
     inkscape:pageopacity="0.0"
     inkscape:pageshadow="2"
     inkscape:zoom="0.7"
     inkscape:cx="399.77435"
     inkscape:cy="226.85659"
     inkscape:document-units="mm"
     inkscape:current-layer="layer1"
     showgrid="false"
     inkscape:window-width="1366"
     inkscape:window-height="745"
     inkscape:window-x="-8"
     inkscape:window-y="-8"
     inkscape:window-maximized="1"
     units="px" />
  <metadata
     id="metadata7852">
    <rdf:RDF>
      <cc:Work
         rdf:about="">
        <dc:format>image/svg+xml</dc:format>
        <dc:type
           rdf:resource="http://purl.org/dc/dcmitype/StillImage" />
        <dc:title></dc:title>
      </cc:Work>
    </rdf:RDF>
  </metadata>
  <g
     inkscape:label="Layer 1"
     inkscape:groupmode="layer"
     id="layer1"
     transform="translate(0,-196.19373)">
    <path
       style="fill:#ffffff;fill-opacity:1;stroke:#000000;stroke-width:0.90610856;stroke-linecap:butt;stroke-linejoin:miter;stroke-miterlimit:4;stroke-dasharray:none;stroke-opacity:1"
       d="m 72.632757,228.28287 c -0.551848,-0.51893 -1.28009,-0.83284 -1.989685,-1.09797 -0.846946,-0.31645 -1.758548,-0.43122 -2.652301,-0.56785 -0.639775,-0.0977 -1.286969,-0.21268 -1.933302,-0.1794 -0.668305,0.0345 -1.352359,0.13108 -1.96927,0.3904 -0.71228,0.29939 -1.380038,0.74957 -1.912912,1.30907 -0.475492,0.49925 -0.820308,1.1246 -1.083567,1.76181 -0.302185,0.73143 -0.399915,1.53274 -0.546273,2.3105 -0.09176,0.4876 -0.196496,0.97793 -0.207472,1.47397 -0.01068,0.4816 0.05629,0.96381 0.137924,1.43857 0.07444,0.43293 0.152549,0.87222 0.319624,1.27849 0.192699,0.46856 0.470358,0.90272 0.775384,1.30726 0.235046,0.31169 0.501068,0.60541 0.804145,0.8515 0.284135,0.23068 0.617151,0.39432 0.936088,0.57387 0.28956,0.163 0.585314,0.3155 0.886293,0.45633 0.365184,0.17086 0.736697,0.32907 1.114173,0.47072 0.423432,0.1589 0.842914,0.3481 1.28867,0.42455 0.450471,0.0772 0.913785,0.0267 1.370834,0.0292 0.78218,0.005 1.564434,-0.008 2.346473,-0.0234 0.611409,-0.0123 1.22277,-0.03 1.833762,-0.0558 0.325403,-0.0138 0.674187,0.0705 0.975648,-0.0528 0.174345,-0.0713 0.295595,-0.23573 0.423951,-0.37359 0.233753,-0.25104 0.445133,-0.52564 0.623639,-0.81853 0.159968,-0.26251 0.309187,-0.538 0.395774,-0.83293 0.166486,-0.56715 0.217951,-1.1678 0.225458,-1.75881 0.0074,-0.57866 -0.09858,-1.15366 -0.176914,-1.72703 -0.100585,-0.73619 -0.240413,-1.4666 -0.376007,-2.19715 -0.107805,-0.58085 -0.199524,-1.16597 -0.347815,-1.73782 -0.117963,-0.45489 -0.230728,-0.91702 -0.42997,-1.34263 -0.219443,-0.46878 -0.455271,-0.95627 -0.832337,-1.31085 z"
       id="path8411"
       inkscape:connector-curvature="0"
       sodipodi:nodetypes="aaaaaaaaaaaaaaaaaaaaaaaaaaaaaa" />
    <path
       style="fill:#fcfcfc;fill-opacity:1;stroke:#000000;stroke-width:0.72488683;stroke-linecap:butt;stroke-linejoin:miter;stroke-miterlimit:4;stroke-dasharray:none;stroke-opacity:1"
       d="m 88.499805,232.43058 c -0.140787,-0.16505 -0.301461,-0.31959 -0.487531,-0.43114 -0.536926,-0.32188 -1.159782,-0.47768 -1.760307,-0.65451 -0.655679,-0.19309 -1.321401,-0.38436 -2.00257,-0.44103 -0.667975,-0.0555 -1.354972,-0.048 -2.00826,0.10195 -0.62201,0.14278 -1.22278,0.40681 -1.762994,0.74659 -0.182218,0.11461 -0.334643,0.27246 -0.484521,0.42696 -0.180185,0.18576 -0.39473,0.35942 -0.49532,0.59786 -0.170256,0.40359 -0.138741,0.86864 -0.139719,1.30666 -0.001,0.46295 0.08379,0.92229 0.141528,1.38162 0.06796,0.5406 0.144076,1.08054 0.241079,1.61669 0.08794,0.48609 0.171999,0.97473 0.308839,1.44937 0.143966,0.49935 0.224717,1.04815 0.536705,1.46377 0.190109,0.25326 0.496199,0.39594 0.765173,0.56307 0.441411,0.27429 0.898478,0.53292 1.384622,0.71658 0.405637,0.15326 0.834722,0.24184 1.262054,0.31542 0.498788,0.0859 1.005552,0.12833 1.511377,0.14574 0.630116,0.0216 1.260742,-0.0271 1.890727,-0.0522 0.497591,-0.0198 0.996643,-0.0258 1.491957,-0.0774 0.348956,-0.0363 0.741787,0.022 1.039807,-0.16312 0.246716,-0.15324 0.398787,-0.44052 0.502508,-0.7118 0.129281,-0.33815 0.132552,-0.71685 0.125329,-1.07879 -0.01053,-0.52616 -0.129496,-1.04621 -0.244677,-1.55971 -0.146231,-0.65192 -0.402253,-1.27508 -0.564897,-1.9231 -0.139339,-0.55519 -0.199339,-1.12903 -0.351413,-1.68085 -0.131438,-0.47692 -0.268728,-0.95747 -0.483338,-1.4032 -0.112267,-0.23318 -0.248218,-0.45853 -0.416161,-0.65544 z"
       id="path8413"
       inkscape:connector-curvature="0"
       sodipodi:nodetypes="aaaaaaaaaaaaaaaaaaaaaaaaaaa" />
    <path
       style="fill:#e68a0a;fill-opacity:1;stroke:#e68a0a;stroke-width:0.15982747px;stroke-linecap:butt;stroke-linejoin:miter;stroke-opacity:1"
       d="m 69.590381,229.45587 c -0.01272,0.20142 0.04309,1.14541 -0.0057,1.715 -0.04921,0.57415 -0.104037,1.1586 -0.288614,1.70449 -0.13698,0.40504 -0.296767,0.8311 -0.597437,1.13511 -0.26776,0.27073 -0.653224,0.39725 -1.004934,0.54319 -0.508288,0.21088 -1.581464,0.47368 -1.581464,0.47368 0,0 0.899812,-0.14623 1.353636,-0.14577 0.446105,4.2e-4 0.920071,-0.0292 1.330304,0.14603 0.291998,0.12475 0.525477,0.36918 0.729749,0.61228 0.218448,0.25998 0.380863,0.56772 0.51053,0.88155 0.162465,0.39322 0.254251,0.81462 0.326504,1.23392 0.09905,0.57473 0.144395,1.74368 0.144395,1.74368 0,0 0.0032,-1.3183 0.07228,-1.97267 0.03839,-0.36347 0.0941,-0.72717 0.18953,-1.07998 0.07336,-0.2712 0.137357,-0.55623 0.292572,-0.79039 0.163032,-0.24595 0.397874,-0.44503 0.644935,-0.60636 0.200802,-0.13113 0.43263,-0.21175 0.662005,-0.28173 0.359823,-0.1098 1.108293,-0.21313 1.108293,-0.21313 0,0 -1.052267,-0.0208 -1.53925,-0.19479 -0.254297,-0.0909 -0.485234,-0.2504 -0.686039,-0.431 -0.255046,-0.22937 -0.466599,-0.51061 -0.63647,-0.80861 -0.190793,-0.33471 -0.296442,-0.71202 -0.417243,-1.07787 -0.161658,-0.48956 -0.296179,-0.98849 -0.410349,-1.49124 -0.08217,-0.36181 -0.197182,-1.09544 -0.197182,-1.09544 z"
       id="path8415"
       inkscape:connector-curvature="0"
       sodipodi:nodetypes="caaaacaaaaacaaaaacaaaaac" />
    <path
       style="fill:#e68a0a;fill-opacity:1;stroke:#e68a0a;stroke-width:0.12016195px;stroke-linecap:butt;stroke-linejoin:miter;stroke-opacity:1"
       d="m 86.174796,233.46962 c 0.0041,0.15168 0.10955,0.85477 0.111412,1.28455 0.0019,0.43326 3.22e-4,0.87457 -0.101096,1.29578 -0.07523,0.31254 -0.166141,0.64234 -0.370765,0.89027 -0.182234,0.2208 -0.462322,0.34153 -0.715834,0.47454 -0.366373,0.19219 -1.152222,0.46141 -1.152222,0.46141 0,0 0.6639,-0.17023 1.003748,-0.2005 0.334066,-0.0296 0.686975,-0.0839 1.005977,0.0196 0.227065,0.0737 0.418385,0.24098 0.587746,0.40923 0.181108,0.17993 0.323494,0.3994 0.441753,0.62565 0.148191,0.28346 0.245353,0.59281 0.327743,0.9019 0.112948,0.42369 0.225778,1.29591 0.225778,1.29591 0,0 -0.08654,-0.98734 -0.07901,-1.48198 0.0043,-0.27476 0.02137,-0.55085 0.06906,-0.82148 0.03658,-0.20801 0.06534,-0.42577 0.165744,-0.61156 0.105481,-0.19518 0.267893,-0.36007 0.442013,-0.49756 0.141505,-0.11175 0.309656,-0.18774 0.476683,-0.25563 0.262025,-0.10651 0.815507,-0.23435 0.815507,-0.23435 0,0 -0.789333,0.0555 -1.16573,-0.042 -0.196546,-0.051 -0.380235,-0.15475 -0.542779,-0.27643 -0.206452,-0.15454 -0.383836,-0.35086 -0.531145,-0.56253 -0.165447,-0.23775 -0.270014,-0.51316 -0.385156,-0.77893 -0.154079,-0.35568 -0.288467,-0.72021 -0.407882,-1.08896 -0.08594,-0.26537 -0.22156,-0.80694 -0.22156,-0.80694 z"
       id="path8415-5"
       inkscape:connector-curvature="0"
       sodipodi:nodetypes="caaaacaaaaacaaaaacaaaaac" />
    <path
       style="color:#000000;font-style:normal;font-variant:normal;font-weight:normal;font-stretch:normal;font-size:medium;line-height:normal;font-family:sans-serif;font-variant-ligatures:normal;font-variant-position:normal;font-variant-caps:normal;font-variant-numeric:normal;font-variant-alternates:normal;font-feature-settings:normal;text-indent:0;text-align:start;text-decoration:none;text-decoration-line:none;text-decoration-style:solid;text-decoration-color:#000000;letter-spacing:normal;word-spacing:normal;text-transform:none;writing-mode:lr-tb;direction:ltr;text-orientation:mixed;dominant-baseline:auto;baseline-shift:baseline;text-anchor:start;white-space:normal;shape-padding:0;clip-rule:nonzero;display:inline;overflow:visible;visibility:visible;opacity:1;isolation:auto;mix-blend-mode:normal;color-interpolation:sRGB;color-interpolation-filters:linearRGB;solid-color:#000000;solid-opacity:1;vector-effect:none;fill:#000000;fill-opacity:1;fill-rule:nonzero;stroke:none;stroke-width:0.76415151;stroke-linecap:butt;stroke-linejoin:miter;stroke-miterlimit:4;stroke-dasharray:none;stroke-dashoffset:0;stroke-opacity:1;color-rendering:auto;image-rendering:auto;shape-rendering:auto;text-rendering:auto;enable-background:accumulate"
       d="m 59.384971,239.26821 -0.715165,-0.11019 c 0,0 0.602051,0.97992 0.986959,1.4026 0.473021,0.51944 1.008135,0.9946 1.602915,1.36852 0.720933,0.45323 1.521428,0.78699 2.337026,1.03185 0.888508,0.26676 1.823873,0.34657 2.744084,0.46411 1.147623,0.14652 2.301239,0.27213 3.457847,0.29992 0.818457,0.0196 1.63941,-0.0152 2.454257,-0.0945 0.702915,-0.0684 1.41793,-0.12112 2.093148,-0.32812 0.468918,-0.14375 0.9786,-0.28544 1.331588,-0.62595 0.249314,-0.24051 0.460852,-0.5779 0.475656,-0.92399 0.02746,-0.64194 -0.732667,-1.78289 -0.732667,-1.78289 l -0.486128,0.32526 c 0,0 0.229481,0.82901 0.186969,1.24725 -0.01766,0.17338 -0.05862,0.36577 -0.179951,0.49086 -0.249337,0.25708 -0.655913,0.29122 -0.996974,0.40048 -0.587095,0.18808 -1.186667,0.35127 -1.797269,0.43621 -0.769761,0.10707 -1.552857,0.10797 -2.329809,0.0893 -1.13065,-0.0271 -2.258386,-0.14963 -3.380276,-0.29272 -0.878241,-0.11188 -1.771043,-0.1874 -2.618987,-0.44203 -0.749468,-0.225 -1.484776,-0.53237 -2.147202,-0.94892 -0.54433,-0.34229 -0.986185,-0.82568 -1.467205,-1.25237 -0.277682,-0.24634 -0.818816,-0.75474 -0.818816,-0.75474 z"
       id="path8441"
       inkscape:connector-curvature="0"
       sodipodi:nodetypes="ccaaaaaaaaaccaaaaaaaaac" />
    <path
       style="color:#000000;font-style:normal;font-variant:normal;font-weight:normal;font-stretch:normal;font-size:medium;line-height:normal;font-family:sans-serif;font-variant-ligatures:normal;font-variant-position:normal;font-variant-caps:normal;font-variant-numeric:normal;font-variant-alternates:normal;font-feature-settings:normal;text-indent:0;text-align:start;text-decoration:none;text-decoration-line:none;text-decoration-style:solid;text-decoration-color:#000000;letter-spacing:normal;word-spacing:normal;text-transform:none;writing-mode:lr-tb;direction:ltr;text-orientation:mixed;dominant-baseline:auto;baseline-shift:baseline;text-anchor:start;white-space:normal;shape-padding:0;clip-rule:nonzero;display:inline;overflow:visible;visibility:visible;opacity:1;isolation:auto;mix-blend-mode:normal;color-interpolation:sRGB;color-interpolation-filters:linearRGB;solid-color:#000000;solid-opacity:1;vector-effect:none;fill:#000000;fill-opacity:1;fill-rule:nonzero;stroke:none;stroke-width:0.82455879;stroke-linecap:butt;stroke-linejoin:miter;stroke-miterlimit:4;stroke-dasharray:none;stroke-dashoffset:0;stroke-opacity:1;color-rendering:auto;image-rendering:auto;shape-rendering:auto;text-rendering:auto;enable-background:accumulate"
       d="m 92.118671,241.73585 -0.84257,0.0116 c 0,0 0.09057,0.33157 0.08227,0.5004 -0.008,0.16547 -0.03929,0.34044 -0.128325,0.48014 -0.118839,0.18642 -0.31814,0.31343 -0.508592,0.4257 -0.261416,0.15409 -0.558535,0.24095 -0.849281,0.32783 -0.508694,0.15202 -1.029738,0.27334 -1.556979,0.33572 -0.448845,0.053 -0.90424,0.0556 -1.355576,0.0314 -0.586421,-0.032 -1.165735,-0.14465 -1.747017,-0.22853 -0.851487,-0.12291 -1.702596,-0.25029 -2.549392,-0.40216 -0.811437,-0.14553 -1.651439,-0.20158 -2.424589,-0.48767 -0.281437,-0.10415 -0.50751,-0.32689 -0.78557,-0.43973 -0.144218,-0.0585 -0.451131,-0.12047 -0.451131,-0.12047 l -0.555712,0.0922 c 0,0 0.228086,0.46774 0.413642,0.64205 0.303215,0.28482 0.699118,0.46484 1.089337,0.60903 0.81903,0.30267 1.70875,0.36169 2.568227,0.51567 0.855758,0.15334 1.715869,0.28193 2.576324,0.40622 0.606259,0.0875 1.210328,0.20654 1.822004,0.23919 0.479311,0.0263 0.960249,-0.0107 1.439702,-0.0344 0.563116,-0.0279 1.132313,-0.0237 1.686676,-0.12639 0.346169,-0.0641 0.70184,-0.13636 1.011589,-0.3037 0.328543,-0.17751 0.659124,-0.40452 0.857556,-0.72087 0.177693,-0.2833 0.213804,-0.63962 0.24688,-0.9724 0.0258,-0.25941 -0.03947,-0.7811 -0.03947,-0.7811 z"
       id="path8447"
       inkscape:connector-curvature="0"
       sodipodi:nodetypes="ccaaaaaaaaaaccaaaaaaaaaac" />
    <path
       style="fill:#000000;fill-opacity:1;stroke:#000000;stroke-width:0.15982747px;stroke-linecap:butt;stroke-linejoin:miter;stroke-opacity:1"
       d="m 59.19674,225.48976 c 0,0 1.353973,-1.49888 2.101617,-2.17531 0.641271,-0.58018 1.331744,-1.10606 2.036341,-1.60746 0.611441,-0.43511 1.234953,-0.85906 1.896986,-1.21246 0.660623,-0.35263 1.352165,-0.65112 2.058626,-0.8995 0.673424,-0.23676 1.369464,-0.40839 2.067173,-0.55926 0.829373,-0.17934 1.664476,-0.378 2.512426,-0.40982 0.42303,-0.0159 0.909689,-0.11988 1.265223,0.10985 0.199196,0.12875 0.305872,0.3875 0.347275,0.62105 0.122683,0.69201 -0.333685,2.08184 -0.333685,2.08184 0,0 0.08923,0.67701 -0.122464,0.88777 -0.664005,0.66105 -1.857563,0.24702 -2.786182,0.37171 -0.769248,0.1033 -1.537337,0.21552 -2.307489,0.31186 -0.748088,0.0936 -1.51189,0.0908 -2.246927,0.25846 -1.247172,0.28449 -2.415039,0.84452 -3.625542,1.25811 -0.952909,0.32559 -2.863365,0.96309 -2.863365,0.96309 z"
       id="path8451"
       inkscape:connector-curvature="0"
       sodipodi:nodetypes="caaaaaaaacaaaaac" />
    <path
       style="fill:#000000;fill-opacity:1;stroke:#000000;stroke-width:0.15982747px;stroke-linecap:butt;stroke-linejoin:miter;stroke-opacity:1"
       d="m 90.573414,230.38813 c 0,0 0.171027,-0.89348 0.112995,-1.33694 -0.05916,-0.45211 -0.257729,-0.87986 -0.462048,-1.28746 -0.197814,-0.39464 -0.418968,-0.79202 -0.730995,-1.10428 -0.256065,-0.25625 -0.601044,-0.40468 -0.905792,-0.60055 -0.354491,-0.22784 -0.70018,-0.47208 -1.073095,-0.66832 -0.394167,-0.20742 -0.803722,-0.38884 -1.224512,-0.53488 -0.421269,-0.1462 -0.876276,-0.18324 -1.294066,-0.33911 -0.34763,-0.12968 -0.681778,-0.29865 -0.998444,-0.492 -0.358091,-0.21867 -0.635121,-0.56322 -1.010733,-0.75017 -0.270672,-0.13471 -0.568998,-0.23145 -0.870412,-0.25515 -0.299507,-0.0229 -0.61781,-0.004 -0.893788,0.11514 -0.321608,0.13825 -0.571604,0.41099 -0.814034,0.66354 -0.22842,0.23792 -0.457662,0.49122 -0.59336,0.79184 -0.08304,0.18395 -0.11557,0.39112 -0.123234,0.59278 -0.0133,0.34864 0.0386,0.70258 0.134632,1.03801 0.08318,0.29051 0.237524,0.55639 0.376891,0.82453 0.243387,0.46825 0.800259,1.36602 0.800259,1.36602 0,0 0.684569,-0.7528 1.095576,-1.04612 0.270922,-0.19334 0.557636,-0.41006 0.886894,-0.45875 0.312847,-0.0464 0.626529,0.0944 0.932772,0.1733 0.485197,0.12493 0.95583,0.30197 1.426518,0.4737 0.510708,0.18632 1.012703,0.39588 1.515129,0.6035 0.379674,0.15687 0.763156,0.30614 1.132889,0.48518 0.434831,0.21056 0.871947,0.42328 1.273854,0.6914 0.465529,0.31056 1.306095,1.05479 1.306095,1.05479 z"
       id="path8453"
       inkscape:connector-curvature="0"
       sodipodi:nodetypes="caaaaaaaaaaaaaaaacaaaaaaac" />
    <path
       style="fill:none;stroke:#000000;stroke-width:0.82455879;stroke-linecap:butt;stroke-linejoin:miter;stroke-miterlimit:4;stroke-dasharray:none;stroke-opacity:1"
       d="m 80.558625,247.29674 c 0,0 -0.223711,0.77821 -0.154319,1.1631 0.109294,0.60634 0.612052,1.07143 0.867568,1.63206 0.147311,0.32321 0.298342,0.64956 0.382053,0.99476 0.07402,0.30524 0.127617,0.62357 0.102622,0.93667 -0.02627,0.32878 -0.07251,0.68443 -0.262465,0.95405 -0.198478,0.2817 -0.514634,0.50029 -0.846348,0.59363 -0.375584,0.10569 -0.787756,0.0129 -1.168184,-0.0738 -0.539285,-0.12283 -1.025293,-0.41524 -1.537943,-0.62286 -0.315473,-0.12778 -0.608584,-0.34192 -0.946425,-0.38332 -0.395479,-0.0484 -0.825106,-0.006 -1.183447,0.16792 -0.411053,0.19983 -0.752252,0.55827 -0.990087,0.94855 -0.251369,0.4125 -0.332282,0.913 -0.411294,1.38954 -0.09907,0.59742 -0.102513,1.21032 -0.07419,1.81523 0.02885,0.61677 0.156863,1.22496 0.248071,1.83561 0.09788,0.65527 0.163622,1.31795 0.320995,1.96154 0.137682,0.56302 0.317252,1.11803 0.542766,1.65198 0.201989,0.47825 0.440372,0.94386 0.721701,1.38019 0.351166,0.54464 0.747546,1.06517 1.197459,1.53156 0.267154,0.27695 0.572544,0.5163 0.883248,0.74333 0.272238,0.1989 0.53991,0.42117 0.855684,0.53933 0.278356,0.10425 0.585083,0.16295 0.881123,0.1365 0.348418,-0.031 0.706896,-0.1394 0.992215,-0.34178 0.173509,-0.12307 0.270299,-0.32886 0.395606,-0.50078 0.110094,-0.15104 0.158666,-0.35941 0.312507,-0.46558 0.11561,-0.0798 0.270544,-0.10787 0.410453,-0.0954 0.199229,0.0176 0.391343,0.1169 0.55123,0.23704 0.220681,0.16585 0.430109,0.3809 0.5258,0.63984 0.112314,0.30393 0.04791,0.64908 0.0195,0.97185 -0.01772,0.20283 -0.108331,0.39582 -0.118706,0.59915 -0.01322,0.25846 0.04957,0.51523 0.07251,0.77301 0.03252,0.36579 0.02388,0.73703 0.09245,1.0978 0.07234,0.38056 0.334138,1.11304 0.334138,1.11304"
       id="path8455"
       inkscape:connector-curvature="0"
       sodipodi:nodetypes="caaaaaaaaaaaaaaaaaaaaaaaaaaaaaaac" />
    <path
       style="fill:none;stroke:#000000;stroke-width:0.52252263;stroke-linecap:butt;stroke-linejoin:miter;stroke-miterlimit:4;stroke-dasharray:none;stroke-opacity:1"
       d="m 77.799011,250.62917 c 0,0 -0.411758,-0.7839 -0.732789,-1.07578 -0.264504,-0.24049 -0.583493,-0.48634 -0.939673,-0.51691 -0.492889,-0.0423 -1.01591,0.17556 -1.403204,0.48336 -0.406576,0.32311 -0.629178,0.84022 -0.826919,1.32045 -0.183419,0.44543 -0.249444,0.93294 -0.31781,1.40979 -0.0648,0.45204 -0.08634,1.36723 -0.08634,1.36723"
       id="path8457"
       inkscape:connector-curvature="0"
       sodipodi:nodetypes="caaaaac" />
    <path
       style="fill:none;stroke:#000000;stroke-width:0.64333713;stroke-linecap:butt;stroke-linejoin:miter;stroke-miterlimit:4;stroke-dasharray:none;stroke-opacity:1"
       d="m 74.841012,265.77062 c 0,0 0.432952,0.89782 0.718407,1.30365 0.216732,0.30813 0.453234,0.6123 0.747179,0.84793 0.278936,0.22357 0.592696,0.43085 0.939672,0.51689 0.463164,0.11491 0.980918,0.13348 1.43139,-0.024 0.190933,-0.0667 0.290666,-0.30136 0.480928,-0.36998 0.179875,-0.0649 0.40589,-0.11345 0.573282,-0.0211 0.180157,0.0994 0.309427,0.5343 0.309427,0.5343"
       id="path8459"
       inkscape:connector-curvature="0"
       sodipodi:nodetypes="caaaaaac" />
    <path
       style="fill:#030303;fill-opacity:1;stroke:#000000;stroke-width:0.15982747px;stroke-linecap:butt;stroke-linejoin:miter;stroke-opacity:1"
       d="m 79.22653,253.83644 c 0,0 -0.134435,1.23075 -0.202379,1.84606 -0.08774,0.79521 -0.213476,1.58707 -0.26503,2.38544 -0.04082,0.63675 -0.09277,1.27839 -0.03506,1.91383 0.05968,0.65731 0.178252,1.31641 0.392196,1.94081 0.160271,0.46772 0.425681,0.89296 0.659636,1.32853 0.211002,0.39283 0.416525,0.79106 0.670434,1.15762 0.214642,0.3099 0.716902,0.87461 0.716902,0.87461 0,0 -0.150446,0.27075 -0.238836,0.39758 -0.0635,0.0912 -0.120971,0.19151 -0.208511,0.25983 -0.117451,0.0917 -0.263916,0.1422 -0.406107,0.18667 -0.122231,0.0382 -0.250373,0.0617 -0.378334,0.0671 -0.124384,0.005 -0.250184,-0.008 -0.37196,-0.0338 -0.201152,-0.0426 -0.402516,-0.10197 -0.583991,-0.19865 -0.19266,-0.10264 -0.348982,-0.26237 -0.520916,-0.39687 -0.230055,-0.17997 -0.472008,-0.34691 -0.683212,-0.54869 -0.237327,-0.22671 -0.445703,-0.48265 -0.65099,-0.73874 -0.207676,-0.25909 -0.408297,-0.52503 -0.586117,-0.80543 -0.168408,-0.26557 -0.317387,-0.54379 -0.453285,-0.82738 -0.161867,-0.33778 -0.30059,-0.68667 -0.429865,-1.03822 -0.08235,-0.22394 -0.153906,-0.45189 -0.219862,-0.68119 -0.08204,-0.2852 -0.160463,-0.57204 -0.218486,-0.8631 -0.05714,-0.28661 -0.08384,-0.57844 -0.127216,-0.86745 -0.03273,-0.21793 -0.06637,-0.43568 -0.100286,-0.65342 -0.04986,-0.32011 -0.108857,-0.63886 -0.151701,-0.95999 -0.03385,-0.25378 -0.06325,-0.50831 -0.08322,-0.76355 -0.01429,-0.1822 -0.0275,-0.36488 -0.02609,-0.54763 0.0022,-0.2859 0.02746,-0.57133 0.05406,-0.856 0.02091,-0.22478 0.04157,-0.45024 0.08289,-0.67219 0.04073,-0.21856 0.07922,-0.44068 0.162182,-0.64695 0.07409,-0.18423 0.174049,-0.36014 0.295539,-0.51721 0.08597,-0.11114 0.191244,-0.20753 0.30169,-0.29438 0.12694,-0.0998 0.264353,-0.1886 0.410558,-0.25718 0.147594,-0.0691 0.303173,-0.13009 0.464626,-0.15264 0.143279,-0.02 0.290959,-0.006 0.433679,0.0171 0.132806,0.022 0.261582,0.0666 0.387036,0.11542 0.189755,0.0738 0.368157,0.17427 0.549323,0.26723 0.171385,0.088 0.332104,0.19716 0.508402,0.27478 0.172528,0.0759 0.355485,0.12567 0.534276,0.18539 0.105619,0.0353 0.318056,0.10225 0.318056,0.10225 z"
       id="path8461"
       inkscape:connector-curvature="0"
       sodipodi:nodetypes="caaaaaacaaaaaaaaaaaaaaaaaaaaaaaaaaaaaaac" />
  </g>
</svg>
