<?xml version="1.0" encoding="UTF-8" standalone="no"?>
<!-- Created with Inkscape (http://www.inkscape.org/) -->

<svg
   xmlns:dc="http://purl.org/dc/elements/1.1/"
   xmlns:cc="http://creativecommons.org/ns#"
   xmlns:rdf="http://www.w3.org/1999/02/22-rdf-syntax-ns#"
   xmlns:svg="http://www.w3.org/2000/svg"
   xmlns="http://www.w3.org/2000/svg"
   xmlns:sodipodi="http://sodipodi.sourceforge.net/DTD/sodipodi-0.dtd"
   xmlns:inkscape="http://www.inkscape.org/namespaces/inkscape"
   width="564"
   height="381"
   viewBox="0 0 149.225 100.80625"
   version="1.1"
   id="svg6432"
   inkscape:version="0.92.1 r15371"
   sodipodi:docname="pride.svg">
  <defs
     id="defs6426">
    <inkscape:path-effect
       effect="bspline"
       id="path-effect7173"
       is_visible="true"
       weight="33.333333"
       steps="2"
       helper_size="0"
       apply_no_weight="true"
       apply_with_weight="true"
       only_selected="false" />
    <inkscape:path-effect
       effect="bspline"
       id="path-effect7002"
       is_visible="true"
       weight="33.333333"
       steps="2"
       helper_size="0"
       apply_no_weight="true"
       apply_with_weight="true"
       only_selected="false" />
    <inkscape:path-effect
       effect="bspline"
       id="path-effect7002-9"
       is_visible="true"
       weight="33.333333"
       steps="2"
       helper_size="0"
       apply_no_weight="true"
       apply_with_weight="true"
       only_selected="false" />
  </defs>
  <sodipodi:namedview
     id="base"
     pagecolor="#ffffff"
     bordercolor="#666666"
     borderopacity="1.0"
     inkscape:pageopacity="0.0"
     inkscape:pageshadow="2"
     inkscape:zoom="0.49497475"
     inkscape:cx="43.706271"
     inkscape:cy="283.02355"
     inkscape:document-units="mm"
     inkscape:current-layer="layer1"
     showgrid="false"
     units="px"
     inkscape:window-width="1366"
     inkscape:window-height="745"
     inkscape:window-x="-8"
     inkscape:window-y="-8"
     inkscape:window-maximized="1"
     inkscape:snap-global="false" />
  <metadata
     id="metadata6429">
    <rdf:RDF>
      <cc:Work
         rdf:about="">
        <dc:format>image/svg+xml</dc:format>
        <dc:type
           rdf:resource="http://purl.org/dc/dcmitype/StillImage" />
        <dc:title></dc:title>
      </cc:Work>
    </rdf:RDF>
  </metadata>
  <g
     inkscape:label="Layer 1"
     inkscape:groupmode="layer"
     id="layer1"
     transform="translate(0,-196.19373)">
    <path
       style="fill:#ffffff;fill-opacity:1;stroke:#000000;stroke-width:0.95742244;stroke-linecap:butt;stroke-linejoin:miter;stroke-miterlimit:4;stroke-dasharray:none;stroke-opacity:1"
       d="m 56.065151,236.73072 c 0.439392,-0.12815 1.244766,-1.26299 2.105002,-2.08657 0.860235,-0.82358 1.775621,-1.3362 2.782168,-1.61069 1.006547,-0.27448 2.1051,-0.3111 3.001885,-0.21958 0.896786,0.0915 1.592465,0.31122 2.306211,0.67725 0.713745,0.36603 1.446042,0.87863 2.031725,1.446 0.585683,0.56738 1.024995,1.18974 1.244658,1.00658 0.219663,-0.18316 0.219663,-1.24473 0.109846,-2.39772 -0.109818,-1.15299 -0.329516,-2.43455 -0.677265,-3.55097 -0.347749,-1.11643 -0.823724,-2.06838 -1.409388,-2.83707 -0.585664,-0.76869 -1.281269,-1.35446 -2.050007,-1.81206 -0.768739,-0.45759 -1.610688,-0.78705 -2.507585,-0.8969 -0.896897,-0.10986 -1.848575,-5e-5 -2.71315,0.26681 -0.864574,0.26687 -1.697961,0.72144 -2.411972,1.47202 -0.714012,0.75058 -1.336142,1.81186 -1.738904,2.80039 -0.402761,0.98854 -0.585757,1.90351 -0.658997,2.9104 -0.07324,1.0069 -0.03664,2.10483 0.01827,3.09334 0.05491,0.9885 0.128108,1.86692 0.567501,1.73877 z"
       id="path7000"
       inkscape:connector-curvature="0"
       inkscape:path-effect="#path-effect7002"
       inkscape:original-d="m 55.698986,237.73767 c 0.805599,-1.13507 1.610976,-2.26991 2.41614,-3.40455 0.915222,-0.51262 1.830608,-1.02524 2.745592,-1.53754 1.098143,-0.0368 2.196697,-0.0734 3.294725,-0.10982 0.695631,0.21939 1.391311,0.43908 2.086646,0.65895 0.732252,0.51219 1.464544,1.0248 2.196492,1.53753 0.439494,0.62209 0.878807,1.24445 1.317882,1.86701 2.21e-4,-0.9887 2.21e-4,-2.05027 0,-3.07507 -0.219369,-1.28123 -0.439075,-2.56278 -0.658954,-3.84384 -0.475604,-0.95189 -0.951579,-1.90384 -1.42771,-2.85542 -0.695269,-0.5859 -1.390876,-1.17167 -2.086646,-1.75718 -0.841801,-0.32971 -1.683749,-0.65917 -2.52596,-0.98842 -0.951711,0.10962 -1.903389,0.21943 -2.855404,0.32947 -0.768765,0.43918 -1.610541,0.87837 -2.416132,1.31788 -0.622316,1.06177 -1.244452,2.12305 -1.867006,3.1849 -0.182872,0.91521 -0.365867,1.83018 -0.549125,2.7456 0.03682,1.09833 0.07347,2.19626 0.109828,3.29472 0.07347,0.87854 0.146638,1.75696 0.219632,2.63578 z"
       inkscape:export-xdpi="96"
       inkscape:export-ydpi="96" />
    <path
       style="fill:#6a005d;fill-opacity:1;stroke:#000000;stroke-width:0.21744035px;stroke-linecap:butt;stroke-linejoin:miter;stroke-opacity:1"
       d="m 58.250611,226.5411 c 0,0 0.102876,1.2692 0.310608,1.86378 0.175804,0.50319 0.424841,0.99734 0.776589,1.39783 0.244278,0.27813 0.56852,0.48202 0.893049,0.66008 0.316097,0.17344 0.655066,0.32247 1.009559,0.38829 0.572637,0.10633 1.178969,0.12744 1.747283,0 0.502799,-0.11275 0.981634,-0.35629 1.397837,-0.66009 0.429008,-0.31314 0.833525,-0.69822 1.087205,-1.16486 0.254888,-0.46884 0.297614,-1.02725 0.388278,-1.55314 0.06846,-0.39724 0.116485,-1.20369 0.116485,-1.20369 0,0 -0.488047,-0.38833 -0.757169,-0.5436 -0.347467,-0.20048 -0.720319,-0.35685 -1.096902,-0.49507 -0.319188,-0.11716 -0.645657,-0.22197 -0.980417,-0.2815 -0.220397,-0.0392 -0.446151,-0.039 -0.669802,-0.0486 -0.242478,-0.0104 -0.486116,-0.0292 -0.728035,-0.01 -0.298001,0.024 -0.593084,0.0837 -0.883352,0.15531 -0.247385,0.0611 -0.490159,0.14165 -0.728035,0.23297 -0.235255,0.0903 -0.46659,0.19258 -0.689221,0.31063 -0.174547,0.0926 -0.342421,0.19804 -0.504763,0.31063 -0.151577,0.10512 -0.304001,0.21174 -0.436815,0.33975 -0.09426,0.0909 -0.252382,0.30095 -0.252382,0.30095 z"
       id="path7004"
       inkscape:connector-curvature="0"
       sodipodi:nodetypes="caaaaaaaacaaaaaaaaaac"
       inkscape:export-xdpi="96"
       inkscape:export-ydpi="96" />
    <path
       style="fill:#ffffff;fill-opacity:1;stroke:#000000;stroke-width:0.95742244;stroke-linecap:butt;stroke-linejoin:miter;stroke-miterlimit:4;stroke-dasharray:none;stroke-opacity:1"
       d="m 90.836043,236.73072 c -0.439392,-0.12815 -1.244766,-1.26299 -2.105002,-2.08657 -0.860235,-0.82358 -1.775621,-1.3362 -2.782168,-1.61069 -1.006547,-0.27448 -2.1051,-0.3111 -3.001885,-0.21958 -0.896786,0.0915 -1.592465,0.31122 -2.306211,0.67725 -0.713745,0.36603 -1.446042,0.87863 -2.031725,1.446 -0.585683,0.56738 -1.024995,1.18974 -1.244658,1.00658 -0.219663,-0.18316 -0.219663,-1.24473 -0.109846,-2.39772 0.109818,-1.15299 0.329516,-2.43455 0.677265,-3.55097 0.347749,-1.11643 0.823724,-2.06838 1.409388,-2.83707 0.585664,-0.76869 1.281269,-1.35446 2.050007,-1.81206 0.768739,-0.45759 1.610688,-0.78705 2.507585,-0.8969 0.896897,-0.10986 1.848575,-5e-5 2.71315,0.26681 0.864574,0.26687 1.697961,0.72144 2.411972,1.47202 0.714012,0.75058 1.336142,1.81186 1.738904,2.80039 0.402761,0.98854 0.585757,1.90351 0.658997,2.9104 0.07324,1.0069 0.03664,2.10483 -0.01827,3.09334 -0.05491,0.9885 -0.128108,1.86692 -0.567501,1.73877 z"
       id="path7000-5"
       inkscape:connector-curvature="0"
       inkscape:path-effect="#path-effect7002-9"
       inkscape:original-d="m 91.202208,237.73767 c -0.805599,-1.13507 -1.610976,-2.26991 -2.41614,-3.40455 -0.915222,-0.51262 -1.830608,-1.02524 -2.745592,-1.53754 -1.098143,-0.0368 -2.196697,-0.0734 -3.294725,-0.10982 -0.695631,0.21939 -1.391311,0.43908 -2.086646,0.65895 -0.732252,0.51219 -1.464544,1.0248 -2.196492,1.53753 -0.439494,0.62209 -0.878807,1.24445 -1.317882,1.86701 -2.13e-4,-0.9887 -2.13e-4,-2.05027 0,-3.07507 0.219369,-1.28123 0.439075,-2.56278 0.658954,-3.84384 0.475604,-0.95189 0.951579,-1.90384 1.42771,-2.85542 0.695269,-0.5859 1.390876,-1.17167 2.086646,-1.75718 0.841801,-0.32971 1.683749,-0.65917 2.52596,-0.98842 0.951711,0.10962 1.903389,0.21943 2.855404,0.32947 0.768765,0.43918 1.610541,0.87837 2.416132,1.31788 0.622316,1.06177 1.244452,2.12305 1.867006,3.1849 0.182872,0.91521 0.365867,1.83018 0.549125,2.7456 -0.03682,1.09833 -0.07347,2.19626 -0.109828,3.29472 -0.07347,0.87854 -0.146638,1.75696 -0.219632,2.63578 z"
       inkscape:export-xdpi="96"
       inkscape:export-ydpi="96" />
    <path
       style="fill:#6a005d;fill-opacity:1;stroke:#000000;stroke-width:0.21744035px;stroke-linecap:butt;stroke-linejoin:miter;stroke-opacity:1"
       d="m 88.650583,226.5411 c 0,0 -0.102876,1.2692 -0.310608,1.86378 -0.175804,0.50319 -0.424841,0.99734 -0.776589,1.39783 -0.244278,0.27813 -0.56852,0.48202 -0.893049,0.66008 -0.316097,0.17344 -0.655066,0.32247 -1.009559,0.38829 -0.572637,0.10633 -1.178969,0.12744 -1.747283,0 -0.502799,-0.11275 -0.981634,-0.35629 -1.397837,-0.66009 -0.429008,-0.31314 -0.833525,-0.69822 -1.087205,-1.16486 -0.254888,-0.46884 -0.297614,-1.02725 -0.388278,-1.55314 -0.06846,-0.39724 -0.116485,-1.20369 -0.116485,-1.20369 0,0 0.488047,-0.38833 0.757169,-0.5436 0.347467,-0.20048 0.720319,-0.35685 1.096902,-0.49507 0.319188,-0.11716 0.645657,-0.22197 0.980417,-0.2815 0.220397,-0.0392 0.446151,-0.039 0.669802,-0.0486 0.242478,-0.0104 0.486116,-0.0292 0.728035,-0.01 0.298001,0.024 0.593084,0.0837 0.883352,0.15531 0.247385,0.0611 0.490159,0.14165 0.728035,0.23297 0.235255,0.0903 0.46659,0.19258 0.689221,0.31063 0.174547,0.0926 0.342421,0.19804 0.504763,0.31063 0.151577,0.10512 0.304001,0.21174 0.436815,0.33975 0.09426,0.0909 0.252382,0.30095 0.252382,0.30095 z"
       id="path7004-7"
       inkscape:connector-curvature="0"
       sodipodi:nodetypes="caaaaaaaacaaaaaaaaaac"
       inkscape:export-xdpi="96"
       inkscape:export-ydpi="96" />
    <path
       style="fill:none;stroke:#000000;stroke-width:0.6286937;stroke-linecap:butt;stroke-linejoin:miter;stroke-miterlimit:4;stroke-dasharray:none;stroke-opacity:1"
       d="m 71.64648,238.88861 c 0,0 -0.25631,2.01942 -0.388286,3.02863 -0.101585,0.77683 -0.05728,1.58837 -0.310632,2.32972 -0.30008,0.87806 -0.79222,1.70432 -1.397821,2.40738 -0.432697,0.50234 -1.553152,1.24251 -1.553152,1.24251"
       id="path7038"
       inkscape:connector-curvature="0"
       sodipodi:nodetypes="caaac"
       inkscape:export-xdpi="96"
       inkscape:export-ydpi="96" />
    <path
       style="fill:none;stroke:#000000;stroke-width:1.36833334;stroke-linecap:butt;stroke-linejoin:miter;stroke-miterlimit:4;stroke-dasharray:none;stroke-opacity:1"
       d="m 69.536806,248.77497 c 0,0 -0.992646,-0.6558 -1.540217,-0.87812 -0.542197,-0.22014 -1.114621,-0.42344 -1.699577,-0.43977 -0.653069,-0.0182 -1.324695,0.11951 -1.921913,0.38439 -0.562208,0.24937 -1.093146,0.62226 -1.482641,1.09824 -0.40967,0.50064 -0.729818,1.11714 -0.823687,1.75718 -0.07249,0.49432 0.05128,1.01225 0.219665,1.48263 0.215818,0.60291 0.543331,1.18693 0.988413,1.64736 0.257592,0.26647 0.933499,0.60403 0.933499,0.60403"
       id="path7055"
       inkscape:connector-curvature="0"
       sodipodi:nodetypes="caaaaaaac"
       inkscape:export-xdpi="96"
       inkscape:export-ydpi="96" />
    <path
       style="fill:none;stroke:#000000;stroke-width:0.6286937;stroke-linecap:butt;stroke-linejoin:miter;stroke-miterlimit:4;stroke-dasharray:none;stroke-opacity:1"
       d="m 76.025303,238.88861 c 0,0 0.25631,2.01942 0.388286,3.02863 0.101586,0.77683 0.05728,1.58837 0.310633,2.32972 0.30008,0.87806 0.792219,1.70432 1.39782,2.40738 0.432697,0.50234 1.553153,1.24251 1.553153,1.24251"
       id="path7038-1"
       inkscape:connector-curvature="0"
       sodipodi:nodetypes="caaac"
       inkscape:export-xdpi="96"
       inkscape:export-ydpi="96" />
    <path
       style="fill:none;stroke:#000000;stroke-width:1.36833334;stroke-linecap:butt;stroke-linejoin:miter;stroke-miterlimit:4;stroke-dasharray:none;stroke-opacity:1"
       d="m 78.134977,248.77497 c 0,0 0.992646,-0.6558 1.540218,-0.87812 0.542197,-0.22014 1.11462,-0.42344 1.699577,-0.43977 0.653069,-0.0182 1.324694,0.11951 1.921912,0.38439 0.562209,0.24937 1.093147,0.62226 1.482641,1.09824 0.40967,0.50064 0.729819,1.11714 0.823687,1.75718 0.07249,0.49432 -0.05128,1.01225 -0.219664,1.48263 -0.215819,0.60291 -0.543331,1.18693 -0.988414,1.64736 -0.257592,0.26647 -0.933499,0.60403 -0.933499,0.60403"
       id="path7055-0"
       inkscape:connector-curvature="0"
       sodipodi:nodetypes="caaaaaaac"
       inkscape:export-xdpi="96"
       inkscape:export-ydpi="96" />
    <ellipse
       style="opacity:1;vector-effect:none;fill:#000000;fill-opacity:1;fill-rule:evenodd;stroke:none;stroke-width:1.36833334;stroke-linecap:square;stroke-linejoin:round;stroke-miterlimit:4;stroke-dasharray:none;stroke-dashoffset:0;stroke-opacity:1;paint-order:stroke markers fill"
       id="path7083"
       cx="-124.4362"
       cy="228.5329"
       rx="1.6696314"
       ry="2.4073756"
       transform="rotate(-43.467944)"
       inkscape:transform-center-x="0.040018204"
       inkscape:transform-center-y="0.22949325"
       inkscape:export-xdpi="96"
       inkscape:export-ydpi="96" />
    <ellipse
       style="opacity:1;vector-effect:none;fill:#000000;fill-opacity:1;fill-rule:evenodd;stroke:none;stroke-width:1.36833334;stroke-linecap:square;stroke-linejoin:round;stroke-miterlimit:4;stroke-dasharray:none;stroke-dashoffset:0;stroke-opacity:1;paint-order:stroke markers fill"
       id="path7083-7"
       cx="-231.71257"
       cy="126.84536"
       rx="1.6696314"
       ry="2.4073756"
       transform="matrix(-0.72575938,-0.68794863,-0.68794863,0.72575938,0,0)"
       inkscape:transform-center-x="-0.040012097"
       inkscape:transform-center-y="0.22950725"
       inkscape:export-xdpi="96"
       inkscape:export-ydpi="96" />
    <path
       style="color:#000000;font-style:normal;font-variant:normal;font-weight:normal;font-stretch:normal;font-size:medium;line-height:normal;font-family:sans-serif;font-variant-ligatures:normal;font-variant-position:normal;font-variant-caps:normal;font-variant-numeric:normal;font-variant-alternates:normal;font-feature-settings:normal;text-indent:0;text-align:start;text-decoration:none;text-decoration-line:none;text-decoration-style:solid;text-decoration-color:#000000;letter-spacing:normal;word-spacing:normal;text-transform:none;writing-mode:lr-tb;direction:ltr;text-orientation:mixed;dominant-baseline:auto;baseline-shift:baseline;text-anchor:start;white-space:normal;shape-padding:0;clip-rule:nonzero;display:inline;overflow:visible;visibility:visible;opacity:1;isolation:auto;mix-blend-mode:normal;color-interpolation:sRGB;color-interpolation-filters:linearRGB;solid-color:#000000;solid-opacity:1;vector-effect:none;fill:#000000;fill-opacity:1;fill-rule:nonzero;stroke:none;stroke-width:0.21744035px;stroke-linecap:butt;stroke-linejoin:miter;stroke-miterlimit:4;stroke-dasharray:none;stroke-dashoffset:0;stroke-opacity:1;color-rendering:auto;image-rendering:auto;shape-rendering:auto;text-rendering:auto;enable-background:accumulate"
       d="m 73.961922,258.94772 c -4.671441,1.01084 -8.726203,8.41733 -8.726203,8.41733 l 3.385882,-0.49842 c 0,0 2.531671,-6.42876 5.304835,-6.40908 2.516492,0.0178 4.730809,5.88361 4.730809,5.88361 l 3.393894,0.66959 c 0,0 -3.869046,-7.32091 -8.089217,-8.06303 z"
       id="path7112"
       inkscape:connector-curvature="0"
       sodipodi:nodetypes="cccaccc"
       inkscape:export-xdpi="96"
       inkscape:export-ydpi="96" />
    <path
       style="color:#000000;font-style:normal;font-variant:normal;font-weight:normal;font-stretch:normal;font-size:medium;line-height:normal;font-family:sans-serif;font-variant-ligatures:normal;font-variant-position:normal;font-variant-caps:normal;font-variant-numeric:normal;font-variant-alternates:normal;font-feature-settings:normal;text-indent:0;text-align:start;text-decoration:none;text-decoration-line:none;text-decoration-style:solid;text-decoration-color:#000000;letter-spacing:normal;word-spacing:normal;text-transform:none;writing-mode:lr-tb;direction:ltr;text-orientation:mixed;dominant-baseline:auto;baseline-shift:baseline;text-anchor:start;white-space:normal;shape-padding:0;clip-rule:nonzero;display:inline;overflow:visible;visibility:visible;opacity:1;isolation:auto;mix-blend-mode:normal;color-interpolation:sRGB;color-interpolation-filters:linearRGB;solid-color:#000000;solid-opacity:1;vector-effect:none;fill:#000000;fill-opacity:1;fill-rule:nonzero;stroke:none;stroke-width:0.05691873px;stroke-linecap:butt;stroke-linejoin:miter;stroke-miterlimit:4;stroke-dasharray:none;stroke-dashoffset:0;stroke-opacity:1;color-rendering:auto;image-rendering:auto;shape-rendering:auto;text-rendering:auto;enable-background:accumulate"
       d="m 74.100473,267.80243 c -1.180489,0.2741 -2.189317,1.66339 -2.189317,1.66339 l 1.290507,-0.13515 c 0,0 0.478522,-0.83319 0.885078,-0.83938 0.34892,-0.005 0.781199,0.69689 0.781199,0.69689 l 1.292537,0.18158 c 0,0 -0.99355,-1.36609 -2.060004,-1.56733 z"
       id="path7112-9"
       inkscape:connector-curvature="0"
       sodipodi:nodetypes="cccaccc"
       inkscape:export-xdpi="96"
       inkscape:export-ydpi="96" />
    <path
       style="fill:none;stroke:#000000;stroke-width:0.87524033;stroke-linecap:butt;stroke-linejoin:miter;stroke-miterlimit:4;stroke-dasharray:none;stroke-opacity:1"
       d="m 68.658221,255.63897 c 0,0 3.324327,1.63952 5.106826,1.59245 1.73683,-0.0459 4.887169,-1.8121 4.887169,-1.8121"
       id="path7131"
       inkscape:connector-curvature="0"
       sodipodi:nodetypes="cac"
       inkscape:export-xdpi="96"
       inkscape:export-ydpi="96" />
    <path
       style="fill:none;stroke:#000000;stroke-width:0.82275462;stroke-linecap:butt;stroke-linejoin:miter;stroke-miterlimit:4;stroke-dasharray:none;stroke-opacity:1"
       d="m 70.730239,249.3987 c 0,0 1.94923,-1.75131 2.994399,-1.70104 1.018393,0.049 2.865602,1.93566 2.865602,1.93566"
       id="path7131-4"
       inkscape:connector-curvature="0"
       sodipodi:nodetypes="cac"
       inkscape:export-xdpi="96"
       inkscape:export-ydpi="96" />
    <path
       style="fill:#e4e4e4;fill-opacity:1;stroke:#d8d8d8;stroke-width:0.26499999;stroke-linecap:butt;stroke-linejoin:miter;stroke-miterlimit:4;stroke-dasharray:none;stroke-opacity:1"
       d="m 67.291243,252.41044 c 0,0 -1.967877,2.75741 -3.146557,3.96457 -0.972216,0.9957 -2.07877,1.85833 -3.207235,2.6727 -1.232893,0.88973 -2.458911,1.85298 -3.875407,2.40542 -0.887179,0.346 -2.80633,0.53454 -2.80633,0.53454 0,0 1.158964,-0.33835 1.469983,-0.80181 0.449545,-0.66988 0.649655,-1.69506 0.267269,-2.40542 -0.559511,-1.03941 -1.974196,-1.66827 -3.153272,-1.61172 -1.211599,0.0581 -2.534691,0.86865 -3.066884,1.95866 -0.271255,0.55557 -0.194961,1.3506 0.174166,1.84657 0.466138,0.62631 2.170582,0.88009 2.170582,0.88009 0,0 -1.968169,-0.58489 -2.939965,-0.40091 -1.124412,0.21287 -2.279788,0.7832 -2.996711,1.67519 -0.842363,1.04806 -1.387184,2.53585 -1.164962,3.86198 0.227235,1.35604 1.159906,2.78031 2.413533,3.34504 1.254169,0.56496 2.930642,0.30507 4.106318,-0.40902 1.357687,-0.82463 2.605301,-3.99028 2.605301,-3.99028 -1.041356,1.151 -1.158812,2.68734 -0.71542,3.94975 0.287779,0.81935 1.123256,1.49808 1.965381,1.71016 1.128269,0.28414 2.561981,0.0318 3.404327,-0.77078 1.075823,-1.02507 1.979594,-3.03445 1.193217,-4.29531 -0.512559,-0.82183 -2.856358,-0.53315 -2.856358,-0.53315 0,0 2.664235,-1.71911 3.805232,-2.80633 1.123168,-1.07023 2.071217,-2.32277 2.939966,-3.60814 0.757734,-1.12111 1.963989,-3.55278 1.963989,-3.55278 z"
       id="path7154"
       inkscape:connector-curvature="0"
       sodipodi:nodetypes="caaacaaaaacaaaaacaaaacaacc"
       inkscape:export-xdpi="96"
       inkscape:export-ydpi="96" />
    <path
       style="fill:#e4e4e4;fill-opacity:1;stroke:#d8d8d8;stroke-width:0.26499999;stroke-linecap:butt;stroke-linejoin:miter;stroke-miterlimit:4;stroke-dasharray:none;stroke-opacity:1"
       d="m 81.164877,252.36319 c 0,0 1.231835,2.83437 2.201616,4.01182 0.884731,1.07419 2.07877,1.85833 3.207235,2.6727 1.232894,0.88973 2.458911,1.85298 3.875407,2.40542 0.88718,0.346 2.806331,0.53454 2.806331,0.53454 0,0 -1.158965,-0.33835 -1.469983,-0.80181 -0.449545,-0.66988 -0.649655,-1.69506 -0.267269,-2.40542 0.55951,-1.03941 1.974195,-1.66827 3.153272,-1.61172 1.211598,0.0581 2.53469,0.86865 3.066883,1.95866 0.271256,0.55557 0.194962,1.3506 -0.174165,1.84657 -0.466138,0.62631 -2.170583,0.88009 -2.170583,0.88009 0,0 1.96817,-0.58489 2.939965,-0.40091 1.124413,0.21287 2.279794,0.7832 2.996714,1.67519 0.84237,1.04806 1.3872,2.53585 1.16497,3.86198 -0.22723,1.35604 -1.15991,2.78031 -2.41354,3.34504 -1.254173,0.56496 -2.930646,0.30507 -4.106321,-0.40902 -1.357688,-0.82463 -2.605302,-3.99028 -2.605302,-3.99028 1.041356,1.151 1.158812,2.68734 0.71542,3.94975 -0.287779,0.81935 -1.123256,1.49808 -1.965381,1.71016 -1.128268,0.28414 -2.561981,0.0318 -3.404326,-0.77078 -1.075823,-1.02507 -1.979595,-3.03445 -1.193218,-4.29531 0.51256,-0.82183 2.856359,-0.53315 2.856359,-0.53315 0,0 -2.664236,-1.71911 -3.805233,-2.80633 -1.123168,-1.07023 -2.107531,-2.29896 -2.939966,-3.60814 -0.789769,-1.24208 -1.916742,-3.97801 -1.916742,-3.97801 z"
       id="path7154-0"
       inkscape:connector-curvature="0"
       sodipodi:nodetypes="caaacaaaaacaaaaacaaaacaacc"
       inkscape:export-xdpi="96"
       inkscape:export-ydpi="96" />
    <path
       style="fill:none;stroke:#787878;stroke-width:0.26458332px;stroke-linecap:butt;stroke-linejoin:miter;stroke-opacity:1"
       d="m 52.718914,266.26398 c 0,0 -0.79015,1.85254 -1.536801,2.47225 -0.661992,0.54945 -1.545454,0.95941 -2.405425,0.93544 -0.538029,-0.015 -1.077532,-0.29982 -1.469982,-0.66817 -0.276075,-0.25912 -0.551722,-0.62402 -0.534538,-1.00226 0.03869,-0.85161 0.687483,-1.67498 1.403165,-2.13816 0.494641,-0.32012 1.172647,-0.41781 1.745356,-0.27941 0.372652,0.0901 0.751005,0.33991 0.927338,0.68033 0.172422,0.33287 0.165907,0.77901 0.02027,1.12444 -0.211781,0.50229 -0.672504,0.95289 -1.191248,1.12038 -0.587303,0.18961 -1.546171,0.30466 -1.835799,-0.24031 -0.257095,-0.48376 0.327845,-1.10344 0.734991,-1.46998 0.282855,-0.25464 0.741319,-0.59435 1.069078,-0.4009 0.273754,0.16158 0.310429,0.67625 0.138381,0.94355 -0.173649,0.26979 -0.924675,0.26727 -0.924675,0.26727"
       id="path7185"
       inkscape:connector-curvature="0"
       sodipodi:nodetypes="caaaaaaaaaaaaac"
       inkscape:export-xdpi="96"
       inkscape:export-ydpi="96" />
    <path
       style="fill:none;stroke:#787878;stroke-width:0.13631871px;stroke-linecap:butt;stroke-linejoin:miter;stroke-opacity:1"
       d="m 58.001321,264.8634 c 0,0 -1.885088,1.39945 -2.252513,2.42031 -0.147453,0.40968 -0.115051,0.90939 0.08757,1.29697 0.126759,0.24249 0.38282,0.42835 0.646148,0.5293 0.185208,0.0711 0.420905,0.11941 0.597878,0.0312 0.398448,-0.19849 0.647788,-0.66958 0.710092,-1.09473 0.04306,-0.29383 -0.06096,-0.62416 -0.254408,-0.85628 -0.125907,-0.15101 -0.329441,-0.27069 -0.5313,-0.27899 -0.197432,-0.008 -0.409226,0.0896 -0.541966,0.22951 -0.193009,0.20337 -0.305968,0.50942 -0.270725,0.78185 0.03992,0.30843 0.198064,0.7707 0.522929,0.78722 0.288377,0.0147 0.45455,-0.38401 0.539247,-0.64774 0.05883,-0.18323 0.119303,-0.46471 -0.04602,-0.57329 -0.138283,-0.0904 -0.392235,0.002 -0.481755,0.13717 -0.09036,0.13658 0.07778,0.47898 0.07778,0.47898"
       id="path7185-4"
       inkscape:connector-curvature="0"
       sodipodi:nodetypes="caaaaaaaaaaaaac"
       inkscape:export-xdpi="96"
       inkscape:export-ydpi="96" />
    <path
       style="fill:none;stroke:#8a8a8a;stroke-width:0.13631871px;stroke-linecap:butt;stroke-linejoin:miter;stroke-opacity:1"
       d="m 90.69971,261.76785 c 0,0 2.215195,0.77775 3.26669,0.51033 0.421969,-0.10735 0.8178,-0.41404 1.025375,-0.799 0.129879,-0.24084 0.140423,-0.55706 0.07655,-0.83175 -0.04483,-0.19326 -0.136841,-0.41557 -0.309037,-0.51278 -0.387604,-0.21889 -0.917524,-0.16158 -1.304622,0.0249 -0.267547,0.12885 -0.482916,0.4001 -0.566851,0.69037 -0.05457,0.1889 -0.03972,0.42454 0.06647,0.59641 0.103924,0.16806 0.30344,0.28882 0.493697,0.32042 0.276582,0.046 0.593395,-0.0319 0.799336,-0.21362 0.233141,-0.20584 0.527514,-0.59577 0.35924,-0.87414 -0.149321,-0.24715 -0.572723,-0.16146 -0.838639,-0.0839 -0.184722,0.0539 -0.45178,0.16147 -0.449131,0.35926 0.0026,0.16518 0.221354,0.32381 0.38347,0.32225 0.163779,-0.002 0.353229,-0.33272 0.353229,-0.33272"
       id="path7185-4-7"
       inkscape:connector-curvature="0"
       sodipodi:nodetypes="caaaaaaaaaaaaac"
       inkscape:export-xdpi="96"
       inkscape:export-ydpi="96" />
    <path
       style="fill:none;stroke:#8a8a8a;stroke-width:0.3073692px;stroke-linecap:butt;stroke-linejoin:miter;stroke-opacity:1"
       d="m 94.259795,265.3313 c 0,0 0.926727,2.13167 1.802442,2.84475 0.776421,0.63223 1.812595,1.10396 2.821217,1.07638 0.631031,-0.0173 1.263786,-0.34499 1.724086,-0.76884 0.32378,-0.29816 0.64707,-0.71804 0.62692,-1.15327 -0.0454,-0.97993 -0.80631,-1.92735 -1.645703,-2.46032 -0.580143,-0.36835 -1.375346,-0.48076 -2.047052,-0.32151 -0.437067,0.10368 -0.88082,0.39112 -1.087634,0.78284 -0.202226,0.38302 -0.194585,0.89638 -0.02377,1.29386 0.248388,0.57797 0.78875,1.09646 1.397162,1.28918 0.688822,0.21818 1.813436,0.35057 2.153128,-0.27651 0.301539,-0.55665 -0.384515,-1.2697 -0.862039,-1.69147 -0.331748,-0.293 -0.86946,-0.6839 -1.253874,-0.4613 -0.321074,0.18593 -0.364089,0.77814 -0.162301,1.08572 0.203665,0.31043 1.084511,0.30753 1.084511,0.30753"
       id="path7185-5"
       inkscape:connector-curvature="0"
       sodipodi:nodetypes="caaaaaaaaaaaaac"
       inkscape:export-xdpi="96"
       inkscape:export-ydpi="96" />
  </g>
</svg>
