<?xml version="1.0" encoding="UTF-8" standalone="no"?>
<!-- Created with Inkscape (http://www.inkscape.org/) -->

<svg
   xmlns:dc="http://purl.org/dc/elements/1.1/"
   xmlns:cc="http://creativecommons.org/ns#"
   xmlns:rdf="http://www.w3.org/1999/02/22-rdf-syntax-ns#"
   xmlns:svg="http://www.w3.org/2000/svg"
   xmlns="http://www.w3.org/2000/svg"
   xmlns:sodipodi="http://sodipodi.sourceforge.net/DTD/sodipodi-0.dtd"
   xmlns:inkscape="http://www.inkscape.org/namespaces/inkscape"
   width="564"
   height="381"
   viewBox="0 0 149.225 100.80625"
   version="1.1"
   id="svg8"
   inkscape:version="0.92.1 r15371"
   sodipodi:docname="fire_projectile.svg"
   inkscape:export-filename="C:\Users\palme_000\Documents\Grado en Ingenieria Informatica UB\Cuarto Curso\Test\ES2017F2\Wiki Resources\Projectiles\fire_projectile.png"
   inkscape:export-xdpi="32.583839"
   inkscape:export-ydpi="32.583839">
  <defs
     id="defs2" />
  <sodipodi:namedview
     id="base"
     pagecolor="#ffffff"
     bordercolor="#666666"
     borderopacity="1.0"
     inkscape:pageopacity="0.0"
     inkscape:pageshadow="2"
     inkscape:zoom="0.98994949"
     inkscape:cx="365.36131"
     inkscape:cy="145.05301"
     inkscape:document-units="mm"
     inkscape:current-layer="layer1-3"
     showgrid="false"
     units="px"
     inkscape:window-width="1366"
     inkscape:window-height="745"
     inkscape:window-x="-8"
     inkscape:window-y="-8"
     inkscape:window-maximized="1" />
  <metadata
     id="metadata5">
    <rdf:RDF>
      <cc:Work
         rdf:about="">
        <dc:format>image/svg+xml</dc:format>
        <dc:type
           rdf:resource="http://purl.org/dc/dcmitype/StillImage" />
        <dc:title></dc:title>
      </cc:Work>
    </rdf:RDF>
  </metadata>
  <g
     inkscape:label="Layer 1"
     inkscape:groupmode="layer"
     id="layer1"
     transform="translate(0,-196.19373)">
    <g
       id="layer1-3"
       inkscape:label="Layer 1"
       transform="matrix(0.01770587,0.26136602,0.43869856,-0.01054873,8.1395212,217.9234)">
      <g
         id="g6367"
         style="opacity:0.91000001"
         transform="matrix(3.0687551,-0.0014011,0.00135058,2.9580945,-3180.6467,2744.9286)">
        <path
           inkscape:connector-curvature="0"
           id="path6132"
           d="m 1069.9003,-850.6017 c 0,0 -4.9375,-0.5625 -7.4375,-1.3125 -2.5,-0.75 -4.875,-2.3125 -6.75,-4.0625 -1.875,-1.75 -3.875,-4.9375 -4.4375,-6 -0.5625,-1.0625 -1.5625,-4.25 -1.6875,-5.125 2.362,3.14106 5.4074,6.82732 5.5949,6.70232 0.1875,-0.125 -2.8444,-7.32732 -2.9069,-7.70232 -0.062,-0.375 -0.375,-2.125 -0.1875,-4.75 0.1875,-2.625 1.0625,-5.75 2.0625,-7.75 1,-2 4.6151,-7.22344 4.6151,-7.23449 0,-0.0111 -0.3094,1.5026 0.1988,2.72899 0.5083,1.22639 2.044,2.65165 2.1213,2.69585 0.077,0.0442 0.4709,-1.75314 0.7018,-2.63005 0.3439,-1.30613 0.5297,-2.62729 1.018,-3.91941 1.2449,-3.2935 3.615,-6.42614 4.8551,-9.72021 1.658,-4.40453 3.4304,-13.36087 3.4304,-13.36087 l 7.2399,18.25923 c 0.2298,0.57954 1.5561,3.70836 1.8061,4.39586 0.25,0.6875 0.9099,3.59789 1.1599,4.41039 0.25,0.8125 1.1448,2.63827 1.2698,3.57577 0.125,0.9375 3.5841,4.54894 3.5841,4.54894 0,0 -0.062,-2 0.375,-3.5 0.4375,-1.5 1.5,-2.875 2.625,-3.3125 1.125,-0.4375 0.9375,-0.5 0.9375,-0.5 0,0 -0.4375,1.3125 -0.3125,2.1875 0.125,0.875 1,2.875 1.375,3.125 0.375,0.25 1.5625,1.1875 2.25,2.875 0.6875,1.6875 1.25,3.3125 1.0625,5.25 -0.1875,1.9375 -0.75,4.0625 -1.1875,4.625 -0.4375,0.5625 -2.625,3 -3.0625,3.375 -0.4375,0.375 -2.1677,3.6432 -2.1677,3.6432 0,0 3.4235,-1.87673 4.8597,-2.96893 1.1194,-0.85131 2.8854,-2.76087 2.8854,-2.76087 0,0 -1.3953,4.31762 -4.3953,7.13012 -3,2.8125 -4.1535,3.05902 -5.4035,3.74652 -1.25,0.6875 -4.0286,1.45996 -5.0286,1.77246 -1,0.3125 -1.4375,0.4375 -3.1875,0.9375 -1.75,0.5 -7.125,1 -7.875,0.625 z"
           style="fill:#bb2917;fill-opacity:1;stroke:#000000;stroke-width:0.88964623;stroke-linecap:butt;stroke-linejoin:miter;stroke-miterlimit:4;stroke-dasharray:none;stroke-opacity:1"
           sodipodi:nodetypes="cssscscsssccaaacssssccscsssssscacsssscc" />
        <path
           inkscape:connector-curvature="0"
           id="path6134"
           d="m 1069.9011,-850.6017 -5.2149,-1.23743 -3.4471,-2.47488 -3.0936,-3.88908 c 0,0 -1.591,-4.77297 -1.9446,-5.92202 -0.3535,-1.14905 -1.0606,-6.89429 -0.7071,-8.22012 0.3536,-1.32582 0.442,-3.44714 0.9723,-5.03814 0.5303,-1.59099 2.1213,-3.97747 2.1213,-3.97747 0,0 0,2.74004 0.6187,3.44714 0.6187,0.70711 1.8562,2.20971 1.8562,2.20971 l 1.6794,1.32583 c 0,0 -0.3913,-2.65368 -0.3913,-3.44917 0,-0.7955 1.1485,-4.18901 1.6788,-5.33806 0.5303,-1.14905 2.6434,-5.25852 3.8454,-7.90641 1.2757,-2.81024 3.5715,-8.46724 3.5715,-8.46724 0,0 3.6221,9.38272 5.8147,13.99967 1.4659,3.08667 4.461,7.11718 4.9029,9.15012 0.442,2.03293 2.2093,6.43484 2.2093,6.43484 l 0.5303,-3.09359 c 0,0 0.3536,-0.7955 1.3258,-2.12132 0.9723,-1.32583 3.2704,-2.47488 3.2704,-2.47488 0,0 -0.7071,1.85616 -0.7071,3.62392 0,1.76777 0.5303,3.88909 0.4419,5.12653 -0.088,1.23743 -0.1767,4.59619 -1.0606,6.62912 -0.8839,2.03294 -1.7678,3.27037 -2.5633,4.33103 -0.7955,1.06066 -2.4749,3.18198 -3.5355,4.06587 -1.0607,0.88388 -2.893,2.55893 -3.8653,2.82409 -0.9723,0.26517 -6.6291,0.97227 -8.3085,0.44194 z"
           style="opacity:0.66000001;fill:#fd8700;fill-opacity:1;stroke:#000000;stroke-width:0.40000001;stroke-linecap:butt;stroke-linejoin:miter;stroke-miterlimit:4;stroke-dasharray:none;stroke-opacity:1"
           sodipodi:nodetypes="cccccccccccssacacccccsccsccc" />
        <path
           inkscape:connector-curvature="0"
           id="path6136"
           d="m 1069.9011,-850.6017 c 0,0 -3.8891,-0.79549 -4.8614,-1.59099 -0.9722,-0.79549 -2.6516,-3.09359 -3.182,-4.41942 -0.5303,-1.32582 -1.3258,-3.27037 -1.4142,-5.39169 -0.088,-2.12132 0.088,-4.86136 0.442,-6.36396 0.3535,-1.5026 2.7341,-4.62686 2.7341,-4.62686 0,0 0.012,2.64414 2.3357,4.5027 1.2818,-2.24815 -0.4425,-4.89492 -0.2534,-7.34996 0.1868,-2.42547 0.6418,-3.59742 1.3235,-5.36173 1.1024,-2.85324 4.4503,-8.38743 4.4503,-8.38743 0,0 1.9132,5.82091 3.5523,8.58375 0.6042,1.01846 1.591,2.03293 2.2981,2.91681 0.7071,0.88389 2.6517,3.97748 2.8284,4.33103 0.1768,0.35356 1.7678,2.91682 1.9446,3.53554 0.1768,0.61872 1.0606,2.29809 0.8839,3.88908 -0.1768,1.591 0.088,3.35876 -0.1768,4.5962 -0.2652,1.23744 -0.442,3.62392 -0.9723,5.03813 -0.5303,1.41422 -0.7955,2.82843 -1.9445,3.88909 -1.1491,1.06066 -1.1491,1.67938 -2.033,1.85616 -0.8838,0.17677 -5.5684,0.7071 -7.9549,0.35355 z"
           style="opacity:0.66000001;fill:#fee215;fill-opacity:1;stroke:#000000;stroke-width:0.30000001;stroke-linecap:butt;stroke-linejoin:miter;stroke-miterlimit:4;stroke-dasharray:none;stroke-opacity:1"
           sodipodi:nodetypes="cccccccsacaccsccccccc" />
        <path
           inkscape:connector-curvature="0"
           id="path6138"
           d="m 1069.9015,-850.6017 c -0.9995,-0.17083 -1.8595,-0.59939 -2.5625,-1.0625 -0.9314,-0.61359 -1.5178,-1.41075 -2.0625,-2.1875 -0.46,-0.65594 -0.9125,-1.34056 -1,-2.0625 -0.151,-1.24683 0.2207,-2.53864 0.8414,-3.74932 0.7468,-1.45654 2.5921,-2.65392 3.402,-4.09899 0.6724,-1.19976 0.8759,-2.47216 1.1676,-3.71978 0.7196,-3.0785 1.4316,-9.27037 1.4316,-9.27037 0,0 2.4989,4.05968 3.4699,6.15096 0.5664,1.21987 0.8724,2.48722 1.3693,3.72035 0.4676,1.16029 0.6552,2.39865 1.5164,3.45973 0.7184,0.88524 2.2302,1.44436 2.964,2.32446 0.4918,0.58992 0.7485,1.25824 0.9143,1.92145 0.2334,0.93387 0.2436,1.89915 0.1013,2.84999 -0.1396,0.93229 -0.3417,1.88856 -0.9311,2.76263 -0.3745,0.5555 -0.9756,1.0552 -1.6132,1.51453 -0.6607,0.47589 -1.3274,1.02256 -2.2578,1.26125 -2.1094,0.54116 -4.6071,0.55198 -6.7507,0.18561 z"
           style="opacity:0.66000001;fill:#fefb8e;fill-opacity:1;stroke:#000000;stroke-width:0.40000001;stroke-linecap:butt;stroke-linejoin:miter;stroke-miterlimit:4;stroke-dasharray:none;stroke-opacity:1"
           sodipodi:nodetypes="aaaaaaacaaaaaaaaaa" />
      </g>
    </g>
  </g>
</svg>
