<?xml version="1.0" encoding="UTF-8" standalone="no"?>
<!-- Created with Inkscape (http://www.inkscape.org/) -->

<svg
   xmlns:dc="http://purl.org/dc/elements/1.1/"
   xmlns:cc="http://creativecommons.org/ns#"
   xmlns:rdf="http://www.w3.org/1999/02/22-rdf-syntax-ns#"
   xmlns:svg="http://www.w3.org/2000/svg"
   xmlns="http://www.w3.org/2000/svg"
   xmlns:sodipodi="http://sodipodi.sourceforge.net/DTD/sodipodi-0.dtd"
   xmlns:inkscape="http://www.inkscape.org/namespaces/inkscape"
   width="564"
   height="381"
   viewBox="0 0 149.225 100.80625"
   version="1.1"
   id="svg4657"
   inkscape:version="0.92.1 r15371"
   sodipodi:docname="lava_projectile.svg">
  <defs
     id="defs4651" />
  <sodipodi:namedview
     id="base"
     pagecolor="#ffffff"
     bordercolor="#666666"
     borderopacity="1.0"
     inkscape:pageopacity="0.0"
     inkscape:pageshadow="2"
     inkscape:zoom="1"
     inkscape:cx="268.32998"
     inkscape:cy="122.83587"
     inkscape:document-units="mm"
     inkscape:current-layer="layer1"
     showgrid="false"
     units="px"
     inkscape:snap-global="false"
     inkscape:window-width="1366"
     inkscape:window-height="745"
     inkscape:window-x="-8"
     inkscape:window-y="-8"
     inkscape:window-maximized="1"
     inkscape:snap-bbox="false"
     inkscape:snap-midpoints="false" />
  <metadata
     id="metadata4654">
    <rdf:RDF>
      <cc:Work
         rdf:about="">
        <dc:format>image/svg+xml</dc:format>
        <dc:type
           rdf:resource="http://purl.org/dc/dcmitype/StillImage" />
        <dc:title />
      </cc:Work>
    </rdf:RDF>
  </metadata>
  <g
     inkscape:label="Layer 1"
     inkscape:groupmode="layer"
     id="layer1"
     transform="translate(0,-196.19373)">
    <path
       style="fill:#575757;fill-opacity:1;stroke:#000000;stroke-width:0.26458332px;stroke-linecap:butt;stroke-linejoin:miter;stroke-opacity:1"
       d="m 111.50132,244.26035 c -0.19554,-3.76519 5.30099,-6.41084 4.95932,-10.16559 -0.16423,-1.80491 -1.41709,-4.47424 -3.2268,-4.37606 -2.4278,0.13171 -1.39824,7.17524 -3.66833,6.3045 -1.63274,-0.62626 1.11971,-3.38767 1.07073,-5.1357 -0.0479,-1.70941 -0.30162,-3.5869 -1.32664,-4.95575 -1.94407,-2.59617 -5.88846,-7.21629 -8.31109,-5.05982 -2.214609,1.97132 2.19122,6.1817 3.71406,8.08217 -2.71853,-1.90969 -6.531065,-8.78449 -11.405715,-10.49935 -3.716545,-1.30744 -9.880963,-2.64771 -11.792512,0.7973 -0.9908,1.78563 1.552271,3.87048 2.88391,5.40505 -1.979171,-1.67719 -6.86953,-4.03937 -10.602774,-3.72721 -2.916037,0.24382 -7.359169,1.33804 -7.683349,4.24625 -0.27664,2.48173 3.904564,3.15524 5.597779,4.97844 -2.292609,-1.63568 -10.097568,-2.60362 -12.786014,-1.90021 -2.463001,0.74618 -3.928155,2.69208 -3.727283,4.67489 0.273655,2.70128 4.977017,3.66713 6.251944,5.22102 -1.218443,-0.67317 -5.091939,-3.15613 -7.57921,-2.27726 -1.687036,0.59611 -3.91319,2.92892 -3.029144,4.43139 -0.680279,-0.28738 -3.795766,-3.24755 -6.562869,-0.43008 -2.963033,3.01696 0.941714,5.33608 1.945522,5.87962 -1.388618,-0.82484 -8.895329,-1.21601 -10.767685,-0.57843 -1.30828,0.44549 -2.736834,0.867 -3.712698,1.84563 -0.871422,0.87391 -1.544377,2.08949 -1.63867,3.32002 -0.08365,1.09171 0.304041,2.27764 0.988053,3.1326 1.179288,1.474 3.028524,2.56721 4.895353,2.84714 3.588203,0.53806 10.046959,-1.2578 10.600547,-2.47198 0.34754,1.21978 -2.071199,3.38177 -1.387137,4.95442 0.570297,1.31109 2.381477,1.91189 3.810055,1.97014 2.497598,0.10186 6.453472,-1.39 6.919517,-2.8906 0.0506,1.21708 -1.414498,2.70485 -1.052758,4.053 0.345864,1.28896 1.556012,2.39742 2.811245,2.85068 1.72537,0.62303 3.730005,0.0166 5.476121,-0.54562 1.481802,-0.47715 2.807513,-1.39011 4.04418,-2.33566 0.486979,-0.37234 0.474476,-0.1154 1.305053,-1.29574 -1.474119,2.30078 -3.244186,3.5283 -3.42725,5.75292 -0.119783,1.45563 0.544149,3.06797 1.597012,4.08022 1.184519,1.13884 3.022903,1.44736 4.657518,1.61487 2.043021,0.20935 4.173876,-0.10948 6.109559,-0.7957 1.580616,-0.56034 3.74542,-1.21348 4.284147,-2.63762 -0.69834,1.75942 -2.931893,2.21369 -3.294014,3.86805 -0.23052,1.05312 0.111774,2.35325 0.876489,3.11313 1.516501,1.50691 4.046662,1.69422 6.184542,1.69896 2.158896,0.005 4.355548,-0.65791 6.252876,-1.68796 1.250544,-0.67892 3.401176,-1.61093 3.177964,-2.85019 0.501318,1.38984 -2.894931,3.08778 -1.999003,4.44188 1.565827,2.36656 5.947914,1.03764 8.511189,-0.17981 2.01626,-0.95764 3.16118,-3.20415 4.33994,-5.09965 0.89565,-1.44024 1.46526,-3.8176 2.01699,-4.67122 0.17424,-0.72322 -3.09141,8.04611 -0.32589,8.33547 6.53043,0.68327 3.73999,-17.3035 3.32139,-19.41606 2.28638,-1.84771 -0.14555,8.52526 2.84089,8.49735 3.37468,-0.0316 3.27291,-6.2943 3.03014,-9.66038 -0.28606,-3.96653 -1.94672,-8.42026 -5.1672,-10.75346 z"
       id="path4509"
       inkscape:connector-curvature="0"
       sodipodi:nodetypes="caaaaaacaacaaccacacscsaaaacaacaaaacaaaacaaaacaaacacaaac"
       inkscape:export-xdpi="96"
       inkscape:export-ydpi="96" />
    <path
       style="color:#000000;font-style:normal;font-variant:normal;font-weight:normal;font-stretch:normal;font-size:medium;line-height:normal;font-family:sans-serif;font-variant-ligatures:normal;font-variant-position:normal;font-variant-caps:normal;font-variant-numeric:normal;font-variant-alternates:normal;font-feature-settings:normal;text-indent:0;text-align:start;text-decoration:none;text-decoration-line:none;text-decoration-style:solid;text-decoration-color:#000000;letter-spacing:normal;word-spacing:normal;text-transform:none;writing-mode:lr-tb;direction:ltr;text-orientation:mixed;dominant-baseline:auto;baseline-shift:baseline;text-anchor:start;white-space:normal;shape-padding:0;clip-rule:nonzero;display:inline;overflow:visible;visibility:visible;opacity:1;isolation:auto;mix-blend-mode:normal;color-interpolation:sRGB;color-interpolation-filters:linearRGB;solid-color:#000000;solid-opacity:1;vector-effect:none;fill:#200f0f;fill-opacity:1;fill-rule:evenodd;stroke:none;stroke-width:0.69999999;stroke-linecap:square;stroke-linejoin:round;stroke-miterlimit:4;stroke-dasharray:none;stroke-dashoffset:0;stroke-opacity:1;paint-order:stroke markers fill;color-rendering:auto;image-rendering:auto;shape-rendering:auto;text-rendering:auto;enable-background:accumulate"
       d="m 95.066445,257.66041 0.233394,-1.78546 4.631247,-0.58879 -3.154825,-3.23293 1.764925,-1.43185 2.241434,4.60725 c 0.2307,-0.21131 5.51082,4.59768 5.72819,4.37267 2.18879,-2.26575 3.68577,-5.22701 4.17135,-8.90989 1.09688,-8.31917 -4.18243,-15.04979 -11.55536,-18.59814 -0.09485,-0.0456 -0.359494,-0.16074 -0.455015,-0.2053 -0.04589,-0.0214 -1.117616,1.83947 -1.857505,3.09142 -0.295899,0.50067 -2.091044,0.83495 -2.868973,0.95164 -0.08946,0.0134 -0.800737,0.92262 -1.604146,1.98363 -0.08475,0.11193 -0.170527,0.22555 -0.256706,0.33998 -0.04037,0.0536 2.950132,2.36419 5.332704,4.22221 -0.966241,1.55775 -1.987794,5.2514 -2.014758,5.28734 -0.228358,0.3043 -0.490478,-0.39401 -0.706231,-0.10391 -0.01743,0.0234 0.817781,-3.11185 1.662154,-4.64491 -2.439965,-1.60718 -5.244849,-3.46181 -5.267031,-3.43195 -0.111839,0.15056 -0.219699,0.296 -0.321858,0.43394 -0.518295,0.69981 -0.889948,1.20625 -0.891538,1.20552 -0.20897,-0.0954 -0.719607,-0.26312 -0.931536,-0.35374 -0.01241,-0.006 4.239177,-5.13415 4.602771,-5.17538 0.79154,-0.0897 2.116654,-0.29677 2.418598,-0.76138 0.730382,-1.12386 1.874982,-3.02268 1.91299,-3.28817 0.02986,-0.20891 -0.300462,-0.23594 -0.352617,-0.25699 -2.16136,-0.87243 -4.465656,-1.48174 -6.816389,-1.79168 l 4e-6,-3e-5 c -11.259855,-1.48461 -19.334573,4.45797 -20.819175,15.71782 -0.236593,1.79442 -0.249284,3.47872 -0.05786,5.04842 0.01757,0.14408 6.904143,-3.5442 9.718345,-4.96044 0.718435,-0.36155 7.697752,8.70991 7.703333,8.74608 0.06901,0.44707 -0.473998,1.05428 -0.371594,1.48192 0.0068,0.0281 -6.528528,-9.51753 -7.400695,-8.95767 -2.911007,1.86866 -9.250574,5.81148 -9.226012,5.90422 1.846939,6.97445 8.150802,11.27278 16.741188,12.40541 6.053251,0.79812 12.615846,-0.36796 17.064427,-3.1534 0.23821,-0.14917 -4.119004,-6.0887 -4.119004,-6.0887 0,0 -4.782066,1.70083 -4.878231,1.92124 z m -0.679588,1.03974 c -0.05005,0.0358 5.069348,-2.34967 5.353027,-2.41021 0.924926,1.48247 3.587976,5.04149 3.359886,5.18457 -4.311219,2.70433 -10.115256,3.59064 -16.009117,2.81354 -8.116213,-1.07011 -14.10324,-4.99146 -16.028821,-11.42958 -0.0656,-0.21934 5.23753,-3.16744 8.325903,-5.21399 1.238948,-0.82102 7.673294,9.21816 7.652337,9.12689 -0.07631,-0.33233 0.639996,-2.38739 0.584494,-2.73206 -0.0089,-0.0553 -6.981377,-9.67872 -7.95787,-9.1842 -3.015477,1.52711 -9.149663,4.82641 -9.17027,4.65163 -0.176301,-1.49525 -0.136425,-2.38974 0.08934,-4.10201 1.43515,-10.88478 9.149761,-16.55115 20.034555,-15.116 2.300724,0.30334 4.558216,0.89981 6.674613,1.75419 0.104686,0.0422 -0.712377,1.288 -1.433729,2.40895 -0.306545,0.47636 -1.533382,0.77448 -2.620046,0.95557 -0.987544,0.16456 -5.030956,5.75162 -4.991027,5.76883 0.175721,0.0757 1.695309,0.95293 2.103701,0.80373 0.01452,-0.005 0.414882,-0.62849 0.959207,-1.46031 0.05937,-0.0907 2.168795,1.2691 4.315685,2.65257 -1.108172,1.78563 -1.520223,5.2669 -1.452846,5.16473 0.210287,-0.31888 1.071327,0.37547 1.293464,0.0453 0.06374,-0.0948 1.559882,-4.15434 2.520032,-5.84263 -2.342512,-1.86648 -5.262941,-4.1411 -5.170862,-4.27498 0.724848,-1.0539 1.37316,-1.92998 1.553474,-1.96576 0.977494,-0.194 2.487585,-0.55336 2.804802,-1.05832 0.721436,-1.14841 1.558348,-2.5659 1.646785,-2.52349 7.115779,3.41307 12.222849,9.86257 11.165369,17.88295 -0.46753,3.54593 -1.38318,5.85966 -3.48586,8.02851 -0.20025,0.20657 -5.32892,-4.31037 -5.61043,-4.36959 -0.38235,-0.75442 -1.700252,-4.8845 -1.988595,-4.65644 -0.0552,0.0437 -2.68125,1.89384 -2.884424,2.35765 -0.07325,0.16721 3.163479,2.67843 3.061069,2.90503 -0.09327,0.20633 -4.484301,0.49114 -4.520833,0.59447 -0.01665,0.0471 -0.109458,3.19504 -0.17301,3.24051 z"
       id="path5202"
       inkscape:connector-curvature="0"
       sodipodi:nodetypes="ccccccsssssssscsscsssssssssssssssssssccscssssssssssssssscsscssssssscsssss"
       inkscape:export-xdpi="96"
       inkscape:export-ydpi="96" />
    <path
       style="fill:#d0330f;fill-opacity:1;stroke:#000000;stroke-width:0.26458332px;stroke-linecap:butt;stroke-linejoin:miter;stroke-opacity:1"
       d="m 98.541184,250.62138 -1.764925,1.43185 3.154827,3.23293 -4.631248,0.58879 -0.233295,1.78548 4.878232,-1.92125 2.465905,3.43538 1.20244,1.74233 0.20038,0.3971 0.0138,0.40619 -0.84224,0.7651 -1.50031,0.64464 -1.00603,0.47391 c 0,0 -0.828412,0.59113 -1.285925,0.80768 -1.674242,0.79247 -3.453065,1.40022 -5.268971,1.76564 -0.712059,0.1433 -1.453927,0.0587 -2.173064,0.16073 -0.599099,0.085 -1.221304,0.13341 -1.77618,0.37477 -0.579421,0.25203 -1.13576,0.5802 -1.550846,1.09 -0.191785,0.66494 -0.697775,1.84667 -0.598095,2.41139 0.173152,0.81387 0.881802,1.5412 1.64152,1.88059 0.791535,0.3536 1.753005,0.14863 2.600561,-0.0336 1.054288,-0.22666 2.065221,-0.69884 2.966201,-1.29141 1.431277,-0.94133 2.553084,-2.28859 3.750179,-3.51401 0.621633,-0.63633 1.071617,-1.44978 1.77873,-1.98953 0.4272,-0.32608 0.91145,-0.80024 1.44281,-0.71961 0.20481,0.031 0.42997,0.22356 0.44879,0.42985 0.0298,0.32749 -0.32602,0.58785 -0.57726,0.80004 -0.36811,0.31089 -0.9658,0.28795 -1.29721,0.6377 -0.3609,0.38087 -0.678491,0.92683 -0.617428,1.44797 0.07366,0.62856 0.614178,1.15788 1.128258,1.52698 0.30341,0.21785 0.69376,0.36132 1.06683,0.34285 0.69048,-0.0342 1.39279,-0.35913 1.90216,-0.82654 0.41943,-0.38489 0.64396,-0.95842 0.8124,-1.5022 0.15669,-0.50607 0.16084,-1.05085 0.16654,-1.58059 0.007,-0.62687 -0.20232,-1.24884 -0.15728,-1.87412 0.0249,-0.34594 -0.038,-0.79945 0.23475,-1.01369 0.22051,-0.1732 0.67086,-0.21296 0.84115,0.01 0.13387,0.17514 -0.17781,0.42 -0.1661,0.64014 0.0143,0.26932 0.0851,0.57631 0.28515,0.75716 0.25821,0.23343 0.67423,0.36209 1.00932,0.26788 0.45179,-0.12703 0.83291,-0.56957 0.97321,-1.01742 0.16459,-0.52537 -0.0387,-1.12601 -0.25665,-1.63159 -0.26647,-0.61817 -0.74096,-1.14059 -1.23495,-1.59787 -0.26316,-0.24361 -0.59151,-0.40649 -0.8994,-0.59036 -0.5629,-0.33614 -1.18858,-0.56603 -1.73001,-0.93575 -0.61225,-0.41808 -1.15726,-0.92937 -1.69763,-1.43696 -0.46776,-0.43938 -1.04764,-0.81422 -1.33328,-1.38891 -0.11752,-0.23643 -0.12431,-0.78224 -0.12431,-0.78224 z"
       id="path5215"
       inkscape:connector-curvature="0"
       sodipodi:nodetypes="cccccccccccccaaaaccaaaaaaaaaaaaaaaaaaaaaaaaaaaacc"
       inkscape:export-xdpi="96"
       inkscape:export-ydpi="96" />
    <path
       style="fill:#d0330f;fill-opacity:1;stroke:#000000;stroke-width:0.26499999;stroke-linecap:butt;stroke-linejoin:miter;stroke-miterlimit:4;stroke-dasharray:none;stroke-opacity:1"
       d="m 94.685472,247.60857 0.236223,-0.003 0.290639,0.22365 0.118113,-0.001 0.06059,-0.0762 0.791242,-2.42301 0.567414,-1.49214 0.667455,-1.36015 -5.325014,-4.20753 1.822389,-2.32076 1.419146,-0.28465 0.880453,-0.28829 0.476443,-0.29101 1.086986,-1.72691 0.888624,-1.50034 c 0,0 0.985858,-0.80834 1.38454,-1.30015 0.38309,-0.47256 0.79958,-0.96984 0.94704,-1.56002 0.10166,-0.40684 -1.8e-4,-0.84263 -0.0703,-1.25608 -0.0792,-0.46712 -0.21405,-0.92722 -0.39275,-1.366 -0.22266,-0.54673 -0.43676,-1.12756 -0.839,-1.55964 -0.34289,-0.36833 -0.808302,-0.6202 -1.275029,-0.80836 -0.735137,-0.29637 -1.549004,-0.61197 -2.329828,-0.47567 -0.507133,0.0885 -0.864722,0.56121 -1.31904,0.80332 -0.662559,0.35308 -1.295413,0.90453 -2.04517,0.94346 -0.793905,0.0412 -1.49633,-0.53973 -2.257404,-0.7694 -0.591102,-0.1784 -1.180148,-0.38311 -1.791143,-0.47205 -0.55369,-0.0811 -1.146603,-0.22834 -1.677935,-0.0528 -0.748618,0.24738 -1.808293,0.68123 -1.854368,1.46831 -0.04783,0.81713 0.942317,1.53116 1.734122,1.73857 1.137362,0.29793 2.25037,-0.68824 3.395357,-0.95537 0.524723,-0.12242 1.050496,-0.28166 1.58912,-0.29594 1.068702,-0.0283 2.47312,-0.38304 3.179715,0.41924 0.163427,0.18555 0.11464,0.52101 0.0033,0.74178 -0.159615,0.31646 -0.512873,0.54703 -0.857881,0.62824 -0.893616,0.21038 -1.822684,-0.24738 -2.714579,-0.46507 -0.42013,-0.1024 -0.805936,-0.43823 -1.236073,-0.39379 -0.423794,0.0438 -0.986473,0.22191 -1.112791,0.6288 -0.118194,0.38074 0.177638,0.87897 0.524996,1.07461 0.592352,0.33364 1.433124,0.0143 2.031209,-0.18422 0.716935,-0.23801 1.529828,-0.47842 2.25173,-0.25594 0.368967,0.11371 0.933819,0.37399 0.877565,0.75596 -0.07619,0.51739 -0.923295,0.52257 -1.433408,0.6378 -0.867268,0.19592 -1.785284,-0.0499 -2.66648,0.0685 -1.091369,0.14668 -2.124889,0.58961 -3.20766,0.79014 -0.735693,0.13625 -1.485398,0.18136 -2.227173,0.27922 -0.790153,0.10424 -1.589806,0.15768 -2.368395,0.32799 -0.740091,0.1619 -1.57382,0.19675 -2.175844,0.65666 -1.001909,0.76538 -1.837572,1.95688 -2.00655,3.20632 -0.04745,0.35071 0.08623,0.73827 0.303939,1.01731 0.678223,0.86926 1.749583,1.55384 2.843789,1.68916 0.811383,0.0999 1.637253,-0.30102 2.350191,-0.70107 0.613072,-0.34401 1.134426,-0.85715 1.567623,-1.4108 0.469056,-0.59949 0.646318,-1.38561 1.074425,-2.015 0.484705,-0.7126 0.974425,-1.46757 1.674987,-1.96951 1.008085,-0.72227 2.240489,-1.13825 3.458605,-1.37086 0.974387,-0.18607 2.015718,0.24882 2.97598,-2e-5 0.690113,-0.17885 1.15779,-0.99768 1.869516,-1.03881 0.345186,-0.02 0.741298,0.12719 0.958723,0.396 0.228093,0.28204 0.186798,0.70782 0.19584,1.07044 0.0092,0.36738 -0.144115,1.09303 -0.144115,1.09303 l -0.893897,1.66813 -1.068243,1.71253 -0.474259,0.27445 -0.951065,0.31268 -0.924866,0.11394 -1.527582,1.61827 -1.58254,1.77951 -1.549422,1.78389 1.000583,0.33411 1.191995,-1.62882 5.282019,3.43097 c -0.696989,1.39466 -1.197798,2.98131 -1.672846,4.59318 z"
       id="path5226"
       inkscape:connector-curvature="0"
       sodipodi:nodetypes="cccccccccccccccaaaaaaaaaaaaaaaaaaaaaaasaaaaaaaaaaaaaaaaaaaaccccccccccccc"
       inkscape:export-xdpi="96"
       inkscape:export-ydpi="96" />
    <path
       style="fill:#d0330f;fill-opacity:1;stroke:#000000;stroke-width:0.26458332px;stroke-linecap:butt;stroke-linejoin:miter;stroke-opacity:1"
       d="m 86.887405,255.63669 -0.0054,-0.27871 0.105997,-0.35671 0.215647,-0.48545 0.04804,-0.36435 -4.181728,-5.26662 -2.478275,-2.70956 -0.553358,-0.50186 -0.393782,-0.26637 -9.802653,4.95046 c 0,0 0.09491,-0.63897 0.126609,-0.96026 0.04727,-0.47905 0.21656,-0.97532 0.09469,-1.44102 -0.07352,-0.28094 -0.253774,-0.54253 -0.475635,-0.7299 -0.218987,-0.18494 -0.502224,-0.33969 -0.788849,-0.34228 -0.299838,-0.003 -0.605753,0.1458 -0.831556,0.34308 -0.231266,0.20207 -0.449962,0.48998 -0.462482,0.79684 -0.01416,0.34699 0.247711,0.65686 0.447844,0.94068 0.148854,0.2111 0.426225,0.32047 0.547181,0.5487 0.0583,0.11002 0.182989,0.3128 0.07078,0.36675 -0.4874,0.23438 -0.716024,-0.81137 -1.052413,-1.23484 -0.19744,-0.24855 -0.342962,-0.54003 -0.56623,-0.76567 -0.235638,-0.23813 -0.512104,-0.4377 -0.801721,-0.6061 -0.275848,-0.16038 -0.56046,-0.38617 -0.879444,-0.37805 -0.141909,0.004 -0.259661,0.1162 -0.382193,0.18788 -0.27433,0.16048 -0.654207,0.25053 -0.786001,0.53973 -0.121167,0.26589 -0.0079,0.59924 0.09962,0.87093 0.141398,0.35728 0.35872,0.72707 0.688229,0.92472 0.364718,0.21876 0.839147,0.23891 1.261639,0.19015 0.224148,-0.0259 0.406548,-0.28985 0.628752,-0.25069 0.234455,0.0413 0.513447,0.2381 0.533023,0.47536 0.01744,0.21131 -0.213995,0.39171 -0.398915,0.49544 -0.213232,0.11961 -0.483011,0.0855 -0.727328,0.0947 -0.615592,0.0232 -1.239726,0.0124 -1.845352,-0.10033 -0.844829,-0.15718 -1.628209,-0.55155 -2.452181,-0.79551 -1.127083,-0.3337 -2.23354,-0.82948 -3.405987,-0.91342 -0.830343,-0.0594 -1.705407,-0.009 -2.479725,0.29667 -0.670195,0.26456 -1.344441,0.67823 -1.742915,1.27854 -0.425292,0.64071 -0.796183,1.52076 -0.535162,2.24413 0.449582,1.24594 1.867254,2.19211 3.177534,2.38611 0.787598,0.11666 1.598422,-0.35284 2.24366,-0.8193 0.634492,-0.4587 0.828113,-1.37579 1.456754,-1.84247 0.545158,-0.4047 1.232667,-0.59759 1.895024,-0.74683 0.966435,-0.21775 1.9748,-0.17669 2.965155,-0.20136 0.469354,-0.0117 0.939966,-0.008 1.408288,0.0254 0.380287,0.027 0.785949,-0.012 1.134944,0.14157 0.200298,0.088 0.500153,0.20626 0.500177,0.42506 4.8e-5,0.40157 -0.526745,0.68916 -0.917828,0.78035 -0.703175,0.16395 -1.428409,-0.792 -2.100649,-0.5285 -0.37383,0.14653 -0.669136,0.60807 -0.657307,1.00942 0.009,0.30617 0.284002,0.58032 0.545901,0.73915 0.455003,0.27594 1.047823,0.30239 1.577114,0.24738 0.448406,-0.0466 0.88258,-0.24022 1.264518,-0.47973 0.617075,-0.38695 0.907511,-1.7626 1.587472,-1.50151 0.210509,0.0808 0.118536,0.45823 0.05406,0.67431 -0.200813,0.67296 -0.684764,1.31114 -1.291712,1.66444 -0.501994,0.29221 -1.158528,0.11915 -1.724638,0.24917 -0.559622,0.12853 -1.2091,0.14445 -1.641503,0.52223 -0.367567,0.32113 -0.785336,0.8614 -0.627188,1.32316 0.262252,0.76572 1.357564,1.08145 2.166826,1.09584 0.810368,0.0145 1.585193,-0.50015 2.207453,-1.01948 0.456993,-0.38141 0.777349,-0.92058 1.026624,-1.46111 0.109623,-0.2377 0.152071,-0.50243 0.195585,-0.76054 0.05374,-0.31874 0.01661,-0.64942 0.07976,-0.96643 0.0344,-0.17268 0.115604,-0.33294 0.161616,-0.50291 0.04751,-0.17547 0.117869,-0.5325 0.117869,-0.5325 l 8.996038,-5.70017 0.359292,0.16652 0.879968,0.73555 2.31922,2.83155 2.512003,3.35736 z"
       id="path5228"
       inkscape:connector-curvature="0"
       sodipodi:nodetypes="ccccccccccaaaaaaaaaaaaaaaaaaaaaaaaaaaaaaaaaaaaaaaaaaaaaaaaaaaaaaccccccc"
       inkscape:export-xdpi="96"
       inkscape:export-ydpi="96" />
    <path
       style="fill:#fc0600;fill-opacity:1;stroke:#000000;stroke-width:0.2;stroke-linecap:butt;stroke-linejoin:miter;stroke-miterlimit:4;stroke-dasharray:none;stroke-opacity:1"
       d="m 56.69008,249.40587 c 0,0 -1.283463,0.15379 -1.756544,0.54345 -0.34005,0.28009 -0.496854,0.74296 -0.625292,1.16438 -0.100694,0.3304 -0.177362,0.69401 -0.102257,1.03115 0.117226,0.52626 0.450399,1.00451 0.82771,1.38965 0.282498,0.28836 0.623979,0.63039 1.02752,0.64094 0.3184,0.008 0.708048,-0.17098 0.836048,-0.46263 0.148771,-0.33898 -0.02291,-0.79665 -0.262086,-1.07919 -0.186798,-0.22066 -0.573044,-0.15877 -0.79748,-0.34103 -0.281462,-0.22855 -0.564429,-0.53335 -0.623874,-0.89101 -0.06094,-0.36666 0.10256,-0.76255 0.309723,-1.07118 0.276471,-0.41199 1.16653,-0.92453 1.16653,-0.92453 z"
       id="path5230"
       inkscape:connector-curvature="0"
       sodipodi:nodetypes="caaaaaaaaaacc"
       inkscape:export-xdpi="96"
       inkscape:export-ydpi="96" />
    <path
       style="fill:#fc0600;fill-opacity:1;stroke:#000000;stroke-width:0.2;stroke-linecap:butt;stroke-linejoin:miter;stroke-miterlimit:4;stroke-dasharray:none;stroke-opacity:1"
       d="m 67.915613,254.99708 c -0.368707,-0.0149 -1.247467,-0.0433 -1.836628,0.12853 -0.290821,0.0848 -0.579499,0.22461 -0.798557,0.43386 -0.140636,0.13434 -0.277675,0.30639 -0.301727,0.49939 -0.01664,0.13353 0.0429,0.27424 0.117572,0.38618 0.116607,0.17479 0.276162,0.40195 0.48628,0.4011 0.181282,-7.1e-4 0.311768,-0.20164 0.416748,-0.34944 0.112623,-0.15855 0.07967,-0.39836 0.206729,-0.54559 0.426364,-0.49405 1.709583,-0.95403 1.709583,-0.95403 z"
       id="path5232"
       inkscape:connector-curvature="0"
       sodipodi:nodetypes="caaaaaaac"
       inkscape:export-xdpi="96"
       inkscape:export-ydpi="96" />
    <path
       style="fill:#fc0600;fill-opacity:1;stroke:#000000;stroke-width:0.2;stroke-linecap:butt;stroke-linejoin:miter;stroke-miterlimit:4;stroke-dasharray:none;stroke-opacity:1"
       d="m 65.211121,247.39546 c -0.198733,-0.0262 -0.5984,0.11095 -0.752338,0.33889 -0.06885,0.10193 -0.04816,0.25028 -0.01491,0.3687 0.09598,0.34193 0.302401,0.67933 0.590752,0.88664 0.136834,0.0983 0.320364,0.148 0.488099,0.13173 0.199821,-0.0193 0.540503,-0.26571 0.540503,-0.26571 0,0 -0.496759,-0.41533 -0.650076,-0.69228 -0.128204,-0.23157 -0.202026,-0.76797 -0.202026,-0.76797 z"
       id="path5234"
       inkscape:connector-curvature="0"
       sodipodi:nodetypes="caaaacac"
       inkscape:export-xdpi="96"
       inkscape:export-ydpi="96" />
    <path
       style="fill:#fc0600;fill-opacity:1;stroke:#000000;stroke-width:0.14599939;stroke-linecap:butt;stroke-linejoin:miter;stroke-miterlimit:4;stroke-dasharray:none;stroke-opacity:1"
       d="m 80.281605,233.98842 c -0.252606,0.21358 -0.41092,0.52911 -0.491692,0.84091 -0.06795,0.26227 -0.08629,0.55942 0.01975,0.813 0.126837,0.30333 0.404924,0.54833 0.69018,0.73454 0.398911,0.26041 0.879857,0.42015 1.357276,0.48882 0.2882,0.042 0.593636,0.029 0.870065,-0.0521 0.419117,-0.12299 0.791497,-0.3718 1.125056,-0.63822 0.279507,-0.22325 0.511022,-0.49986 0.71319,-0.78787 0.208766,-0.2974 0.312716,-0.65202 0.507138,-0.95805 0.328472,-0.51702 1.108399,-1.47465 1.108399,-1.47465 0,0 -0.795307,0.48131 -1.143592,0.77879 -0.363611,0.31059 -0.601331,0.73935 -0.974842,1.03939 -0.42177,0.33881 -0.855964,0.75104 -1.405489,0.8396 -0.297593,0.048 -0.617233,-0.0591 -0.889084,-0.18873 -0.369438,-0.17612 -0.775534,-0.41 -0.939718,-0.76746 -0.127484,-0.27755 0.04252,-0.90012 0.04252,-0.90012 0,0 -0.431142,0.0986 -0.589147,0.23217 z"
       id="path5236"
       inkscape:connector-curvature="0"
       sodipodi:nodetypes="aaaaaaaaacaaaaaca"
       inkscape:export-xdpi="96"
       inkscape:export-ydpi="96" />
    <path
       style="fill:#fc0600;fill-opacity:1;stroke:#000000;stroke-width:0.065;stroke-linecap:butt;stroke-linejoin:miter;stroke-miterlimit:4;stroke-dasharray:none;stroke-opacity:1"
       d="m 71.614971,251.18698 0.23934,-0.73093 7.485555,-4.1837 -0.01054,0.26071 z"
       id="path5238"
       inkscape:connector-curvature="0"
       inkscape:export-xdpi="96"
       inkscape:export-ydpi="96" />
    <path
       style="fill:#fc0600;fill-opacity:1;stroke:#000000;stroke-width:0.05;stroke-linecap:butt;stroke-linejoin:miter;stroke-miterlimit:4;stroke-dasharray:none;stroke-opacity:1"
       d="m 82.151688,248.6208 -0.09805,0.20152 1.903303,2.37165 0.180669,-0.28595 z"
       id="path5240"
       inkscape:connector-curvature="0"
       inkscape:export-xdpi="96"
       inkscape:export-ydpi="96" />
    <path
       style="fill:#fc0600;fill-opacity:1;stroke:#000000;stroke-width:0.05;stroke-linecap:butt;stroke-linejoin:miter;stroke-miterlimit:4;stroke-dasharray:none;stroke-opacity:1"
       d="m 84.322405,251.31364 -0.121481,0.19843 2.502739,3.42762 0.222619,-0.42338 z"
       id="path5242"
       inkscape:connector-curvature="0"
       inkscape:export-xdpi="96"
       inkscape:export-ydpi="96" />
    <path
       style="fill:#fc0600;fill-opacity:1;stroke:#000000;stroke-width:0.2;stroke-linecap:butt;stroke-linejoin:miter;stroke-miterlimit:4;stroke-dasharray:none;stroke-opacity:1"
       d="m 90.432303,271.8157 c 0.423698,0.0174 0.848713,-0.0548 1.264818,-0.13652 0.655737,-0.12879 1.316596,-0.28165 1.926521,-0.55473 0.620757,-0.27792 1.185407,-0.67518 1.727056,-1.08652 0.604117,-0.45877 1.135745,-1.00641 1.684456,-1.53019 0.344786,-0.32911 0.668468,-0.67975 1.009655,-1.01259 0.215383,-0.21011 0.604309,-0.32471 0.654797,-0.62133 0.02994,-0.17353 -0.08862,-0.38224 -0.241338,-0.46989 -0.157225,-0.0902 -0.383214,-0.0556 -0.543055,0.0295 -0.180303,0.0964 -0.242673,0.32912 -0.367974,0.49065 -0.263373,0.33956 -0.530528,0.67634 -0.806551,1.00569 -0.36107,0.43084 -0.683687,0.90342 -1.110836,1.26884 -0.39655,0.33925 -0.862464,0.59176 -1.323405,0.83645 -0.551621,0.29282 -1.113479,0.58847 -1.716506,0.75091 -0.354684,0.0956 -0.727707,0.13713 -1.094842,0.12523 -0.467999,-0.0152 -0.921424,-0.16738 -1.382392,-0.24964 -0.252383,-0.0451 -0.513352,-0.21198 -0.757442,-0.13356 -0.159032,0.0511 -0.320164,0.19389 -0.350503,0.35816 -0.04717,0.25541 0.107449,0.5524 0.310124,0.71484 0.295956,0.23721 0.738452,0.19911 1.117417,0.21471 z"
       id="path5244"
       inkscape:connector-curvature="0"
       sodipodi:nodetypes="aaaaaaaaaaaaaaaaaaaa"
       inkscape:export-xdpi="96"
       inkscape:export-ydpi="96" />
    <path
       style="fill:#fc0600;fill-opacity:1;stroke:#000000;stroke-width:0.2;stroke-linecap:butt;stroke-linejoin:miter;stroke-miterlimit:4;stroke-dasharray:none;stroke-opacity:1"
       d="m 101.38594,269.00397 c 0.31012,0.15769 0.6721,0.26529 1.01817,0.22956 0.44336,-0.0458 0.85921,-0.28836 1.21684,-0.55441 0.27336,-0.20336 0.51604,-0.46678 0.67327,-0.76903 0.26687,-0.51302 0.58432,-1.13275 0.4128,-1.68501 -0.0706,-0.22735 -0.31172,-0.5631 -0.53303,-0.47537 -0.33705,0.13363 -8.8e-4,0.73345 -0.0952,1.08355 -0.13535,0.50258 -0.23194,1.12192 -0.66296,1.41375 -0.31202,0.21128 -0.78308,0.21609 -1.12857,0.0657 -0.27588,-0.12009 -0.29611,-0.58372 -0.5755,-0.69541 -0.35469,-0.14178 -0.9208,-0.17839 -1.13785,0.13592 -0.1346,0.19493 0.0479,0.48748 0.17117,0.68975 0.14779,0.24241 0.38779,0.43236 0.64087,0.56105 z"
       id="path5246"
       inkscape:connector-curvature="0"
       sodipodi:nodetypes="aaaaaaaaaaaaa"
       inkscape:export-xdpi="96"
       inkscape:export-ydpi="96" />
    <path
       style="fill:#fc0600;fill-opacity:1;stroke:#000000;stroke-width:0.2;stroke-linecap:butt;stroke-linejoin:miter;stroke-miterlimit:4;stroke-dasharray:none;stroke-opacity:1"
       d="m 97.140245,224.00677 c 0.530298,0.12065 1.093485,0.21296 1.550552,0.50772 0.378673,0.24417 0.651236,0.62999 0.913237,0.99655 0.296605,0.41499 0.557746,0.8643 0.732716,1.34343 0.11718,0.32088 0.15793,0.6658 0.20457,1.00421 0.045,0.3267 0.15716,0.66811 0.0721,0.98674 -0.0964,0.36088 -0.39975,0.63237 -0.627846,0.92815 -0.245201,0.31796 -0.676622,0.78694 -0.793455,0.90633 -0.116835,0.11938 0.137813,-0.50239 0.23293,-0.74434 0.184252,-0.46869 0.594171,-0.86278 0.651501,-1.36311 0.0593,-0.518 -0.117617,-1.05464 -0.337804,-1.52724 -0.266039,-0.57103 -0.653671,-1.11187 -1.150198,-1.49957 -0.319503,-0.24948 -0.719285,-0.3989 -1.115601,-0.48407 -0.372731,-0.0801 -0.779111,0.0957 -1.143615,-0.016 -0.342867,-0.10512 -0.933918,-0.23341 -0.899402,-0.59036 0.04321,-0.44683 0.801399,-0.45208 1.246615,-0.50959 0.154621,-0.02 0.311685,0.0266 0.46371,0.0611 z"
       id="path5248"
       inkscape:connector-curvature="0"
       sodipodi:nodetypes="aaaaaaacaaaaaaaaa"
       inkscape:export-xdpi="96"
       inkscape:export-ydpi="96" />
    <path
       style="fill:#fc0600;fill-opacity:1;stroke:#000000;stroke-width:0.2;stroke-linecap:butt;stroke-linejoin:miter;stroke-miterlimit:4;stroke-dasharray:none;stroke-opacity:1"
       d="m 85.856239,225.24851 c 0.176672,-0.34528 0.492277,-0.64046 0.846594,-0.79823 0.385109,-0.17148 0.839409,-0.12429 1.260453,-0.10339 0.445456,0.0221 0.896617,0.0896 1.316149,0.24091 0.225643,0.0814 0.627503,0.35232 0.627503,0.35232 0,0 -1.166174,-0.26454 -1.755467,-0.23146 -0.334483,0.0187 -0.703411,0.0466 -0.975455,0.24207 -0.149688,0.10758 -0.18146,0.32292 -0.29736,0.46626 -0.159664,0.19748 -0.291384,0.49607 -0.542316,0.53505 -0.198382,0.0308 -0.44333,-0.0954 -0.536871,-0.27297 -0.06744,-0.12809 -0.0092,-0.30169 0.05677,-0.43056 z"
       id="path5250"
       inkscape:connector-curvature="0"
       sodipodi:nodetypes="aaaacaaaaaa"
       inkscape:export-xdpi="96"
       inkscape:export-ydpi="96" />
    <path
       style="fill:#fc0600;fill-opacity:1;stroke:#000000;stroke-width:0.05;stroke-linecap:butt;stroke-linejoin:miter;stroke-miterlimit:4;stroke-dasharray:none;stroke-opacity:1"
       d="m 91.907658,238.42204 -0.428514,0.5392 5.394048,3.54672 0.03887,-0.114 z"
       id="path5252"
       inkscape:connector-curvature="0"
       inkscape:export-xdpi="96"
       inkscape:export-ydpi="96" />
    <path
       style="opacity:1;vector-effect:none;fill:#554141;fill-opacity:1;fill-rule:evenodd;stroke:#050101;stroke-width:0.01797631;stroke-linecap:square;stroke-linejoin:round;stroke-miterlimit:4;stroke-dasharray:none;stroke-dashoffset:0;stroke-opacity:1;paint-order:stroke markers fill"
       d="m 80.60543,231.59856 c -0.03049,0.0268 -0.07462,0.0396 -0.108748,0.068 -1.186183,0.989 -1.995171,2.47647 -1.866326,3.46965 0.09519,0.7337 1.036289,1.79348 2.133396,2.24974 0.737209,0.3066 1.518929,0.35154 2.218671,0.12756 1.143227,-0.36595 2.047551,-0.98435 2.864719,-1.95898 0.103456,-0.12339 0.392415,-0.64099 0.642133,-1.15021 1.05164,-2.14449 2.068706,-3.12098 3.970235,-3.81183 l 0.793124,-0.28816 1.068271,0.20188 c 1.252855,0.2367 2.646873,0.62133 3.989609,1.1008 0.832566,0.29728 1.066297,0.32227 1.018682,0.47114 -0.104137,0.32561 -1.344202,2.39802 -1.581578,2.58907 -0.299688,0.2412 -0.966493,0.4733 -1.826659,0.63582 -0.764279,0.14441 -1.110376,0.37894 -2.02,1.36883 -1.268596,1.38055 -3.701377,4.2988 -3.617748,4.48484 0.06576,0.14627 1.438767,0.77101 1.795582,0.81701 0.286819,0.037 0.325138,0.002 0.774711,-0.71553 0.418122,-0.66696 0.348033,-0.88141 0.516377,-0.8025 0.20582,0.0964 4.20788,2.64881 4.256624,2.71236 0.01623,0.0212 -0.177076,0.31737 -0.32666,0.64297 -0.335897,0.73112 -0.751608,2.10712 -1.015632,3.46749 l -0.06432,0.89657 0.518859,0.10573 c 0.616748,0.10209 0.698121,0.23272 0.804479,0.0498 0.06369,-0.10957 0.410463,-1.28345 0.808483,-2.27745 0.398022,-0.994 0.789993,-1.92973 1.044118,-2.46428 0.254121,-0.53455 0.6378,-1.03989 0.641666,-1.06922 0.0039,-0.0293 -0.929064,-0.59688 -1.895707,-1.37031 -2.430247,-1.94451 -3.356922,-2.7402 -3.338653,-2.86676 0.02077,-0.14298 1.065057,-1.53976 1.384683,-1.86336 0.157825,-0.15978 0.433185,-0.199 0.76646,-0.26937 0.801036,-0.16914 1.809561,-0.53834 2.069877,-0.75776 0.127295,-0.10729 0.524985,-0.8221 0.943394,-1.49412 0.418407,-0.67201 0.787903,-1.16861 0.832317,-1.18858 0.04441,-0.02 0.554713,0.19389 1.063159,0.4659 2.908181,1.55583 5.178451,3.45444 7.027341,5.87691 2.95226,3.86811 3.91922,8.14613 2.94091,13.01109 -0.43621,2.16919 -0.96359,3.54604 -1.87042,4.88322 -0.59813,0.88198 -1.37941,1.79214 -1.52076,1.7735 -0.13019,-0.0172 -1.58936,-1.18503 -4.04438,-3.18744 l -1.51473,-1.24668 -0.48947,-1.30827 c -0.682501,-1.8242 -1.289407,-3.21824 -1.429494,-3.2835 -0.123697,-0.0577 -2.413778,1.62478 -2.756295,2.0312 -0.10831,0.12853 -0.174512,0.28353 -0.14712,0.34448 0.0274,0.0609 0.80661,0.67717 1.571283,1.34827 0.764675,0.67111 1.472888,1.26398 1.433502,1.43984 0.113863,0.18096 -0.212899,0.14914 -2.973733,0.43375 l -1.483368,0.15292 -0.04066,0.29846 c -0.04533,0.33312 0.01792,0.84601 -0.0068,1.36214 -0.03648,0.76291 -0.143429,1.50942 -0.08697,1.50188 0.0571,-0.008 1.266447,-0.54381 2.687424,-1.19151 l 2.583604,-1.17763 0.363355,0.65193 c 0.18443,0.27868 1.13402,1.5137 1.55774,2.12387 1.18121,1.70096 1.4691,2.34814 1.45291,2.46577 -0.0211,0.1537 -1.39197,0.88389 -2.64836,1.41074 -2.621269,1.09919 -5.491303,1.64942 -9.036329,1.73243 -1.668971,0.0391 -6.099553,-0.47422 -7.705082,-0.89266 l 5.1e-5,10e-6 c -6.36677,-1.65934 -10.583925,-5.05279 -12.481845,-10.04389 l -0.290316,-0.76346 0.449596,-0.32927 c 0.24728,-0.1811 1.857373,-1.18236 3.577987,-2.22501 1.720612,-1.04265 3.411334,-2.0769 3.757157,-2.29832 0.396501,-0.25388 0.876387,-0.57101 1.03091,-0.55217 0.783239,0.0952 2.830392,2.54035 6.035707,7.2082 0.731443,1.0652 1.166474,1.98656 1.184285,1.94366 0.01784,-0.0429 0.178452,-0.65509 0.356979,-1.36041 l 0.284237,-1.22935 -1.141962,-1.61406 c -1.367999,-1.88221 -3.803283,-4.91139 -4.928078,-6.12989 -0.944409,-1.02309 -1.472388,-1.32711 -1.789403,-1.36891 -0.166051,-0.0219 -1.065302,0.39463 -2.76463,1.28051 -3.785075,1.97325 -6.496553,3.35124 -6.574098,3.34102 -0.165914,-0.0219 -0.164596,-1.82729 -0.01294,-3.34962 0.44846,-4.50178 1.920931,-8.21474 4.367477,-11.01296 0.801675,-0.91692 2.396665,-2.25158 3.439619,-2.87823 0.596023,-0.35811 1.897826,-0.99882 2.370723,-1.16986 l 0.06709,-0.0284 c 0.04606,-0.0291 0.350896,-0.16388 0.858857,-0.32528 1.834585,-0.58293 3.748623,-0.79916 5.867656,-0.82235 0.320668,-0.004 0.5058,0.0273 0.880382,0.0947 -0.312359,0.091 -1.232883,0.24342 -2.686114,0.41116 -1.817013,0.20975 -1.957886,0.23159 -2.830962,0.3966 -1.303954,0.24645 -1.581551,0.31605 -1.947031,0.56113 -0.06976,0.0365 -0.112444,0.0645 -0.138502,0.0785 z"
       id="path5254"
       inkscape:connector-curvature="0"
       sodipodi:nodetypes="ccccsccscscccccscccscccccccssccccccssscsscscsccccccsccccsccsccsccsccscccccssssccccssccsccc"
       inkscape:export-xdpi="96"
       inkscape:export-ydpi="96" />
    <path
       style="fill:#8a8a8a;fill-opacity:1;stroke:#000000;stroke-width:0.26458332px;stroke-linecap:butt;stroke-linejoin:miter;stroke-opacity:1"
       d="m 45.158849,246.1332 c 0,0 -3.255225,-0.46803 -4.893392,-0.45649 -1.123047,0.008 -2.243017,0.17031 -3.349898,0.36034 -1.035919,0.17785 -2.118753,0.27661 -3.068099,0.72772 -0.856328,0.40691 -1.743852,0.93373 -2.256845,1.73104 -0.440687,0.68494 -1.172194,1.85541 -0.549784,2.38072 0.708177,0.59769 2.117388,0.0913 2.409218,-1.09766 0.17993,-0.73307 1.011814,-2.021 1.623457,-1.57868 0.719105,0.52005 -1.454548,1.55516 -1.164834,2.39399 0.144857,0.4194 0.76099,0.66482 1.196987,0.58241 0.505774,-0.0956 0.74651,-0.71731 1.046124,-1.13585 0.505602,-0.7063 0.52513,-1.80343 1.245342,-2.28901 0.319798,-0.2156 0.951246,-0.46227 1.149584,-0.13148 0.369317,0.61595 -1.487428,1.10449 -1.22446,1.77281 0.200535,0.50964 1.113919,0.59629 1.604638,0.35309 0.468338,-0.2321 0.488808,-0.92864 0.659355,-1.42272 0.153368,-0.44433 -0.02228,-1.05332 0.322531,-1.37278 1.299221,-1.20369 5.250076,-0.81745 5.250076,-0.81745 z"
       id="path4511"
       inkscape:connector-curvature="0"
       sodipodi:nodetypes="caaaassaaaaaaaaaac"
       inkscape:export-xdpi="96"
       inkscape:export-ydpi="96" />
    <path
       style="fill:#8a8a8a;fill-opacity:1;stroke:#000000;stroke-width:0.26458332px;stroke-linecap:butt;stroke-linejoin:miter;stroke-opacity:1"
       d="m 65.412585,241.72709 c 0,0 -2.428356,-1.71209 -3.678623,-2.51363 -1.087483,-0.69717 -2.12743,-1.50431 -3.322422,-1.9949 -0.942892,-0.38708 -1.952718,-0.68511 -2.971306,-0.722 -0.798416,-0.0289 -1.693543,-0.0387 -2.363883,0.39598 -0.684484,0.44386 -1.801794,1.35697 -1.353884,2.03881 0.422312,0.64287 1.50538,-0.33576 2.271137,-0.4082 0.658518,-0.0623 1.744485,-0.63792 1.98426,-0.0214 0.208419,0.53585 -1.015834,0.64311 -1.284091,1.15165 -0.189128,0.35853 -0.433558,0.90746 -0.158963,1.20564 0.472315,0.51289 1.434632,0.13812 2.08923,-0.10195 0.703809,-0.25814 1.066164,-1.15426 1.784483,-1.36873 0.523721,-0.15637 1.409811,-0.37668 1.635201,0.12129 0.221697,0.48975 -0.987912,0.74982 -0.971721,1.28718 0.01264,0.41931 0.411453,0.85104 0.817365,0.95696 0.647804,0.16903 1.221323,-0.60241 1.884371,-0.6951 0.556718,-0.0778 1.1278,0.0308 1.681571,0.12741 0.666834,0.11626 1.95727,0.54108 1.95727,0.54108 z"
       id="path4513"
       inkscape:connector-curvature="0"
       sodipodi:nodetypes="caaaaaaaaaaaaaaaac"
       inkscape:export-xdpi="96"
       inkscape:export-ydpi="96" />
    <path
       style="fill:#8a8a8a;fill-opacity:1;stroke:#000000;stroke-width:0.26458332px;stroke-linecap:butt;stroke-linejoin:miter;stroke-opacity:1"
       d="m 79.804701,266.24396 c -0.812062,0.33524 -1.569146,0.83923 -2.427482,1.02655 -1.141906,0.24923 -2.356032,0.31936 -3.504809,0.10403 -0.921983,-0.17281 -1.690276,-0.83697 -2.591687,-1.09654 -1.019213,-0.29349 -2.106661,-0.74314 -3.140996,-0.50845 -0.90411,0.20514 -2.383256,0.66396 -2.284875,1.58582 0.0891,0.83485 1.492097,0.86698 2.325689,0.96712 0.548543,0.0663 1.085836,-0.22956 1.637746,-0.25583 0.43716,-0.0208 1.25544,-0.35566 1.310606,0.0785 0.104969,0.82613 -1.645655,0.37043 -2.377238,0.76829 -0.43434,0.23621 -1.220485,0.44744 -1.149963,0.93679 0.152134,1.05567 1.886386,1.16475 2.950424,1.2382 0.5719,0.0395 1.121193,-0.25174 1.662205,-0.44132 0.963934,-0.33776 2.139776,-2.0096 2.804642,-1.23422 0.335977,0.39182 -1.038214,0.8321 -0.832611,1.30553 0.236325,0.54416 1.164602,0.4221 1.749872,0.32502 0.922833,-0.15307 1.665163,-0.8606 2.445902,-1.37588 0.625675,-0.41293 1.229314,-0.86499 1.784484,-1.36874 1.191869,-1.08148 3.295823,-3.52831 3.295823,-3.52831 0,0 -2.442741,0.97187 -3.657732,1.47345 z"
       id="path4515"
       inkscape:connector-curvature="0"
       sodipodi:nodetypes="aaaaaaaaaaaaaaaaaaca"
       inkscape:export-xdpi="96"
       inkscape:export-ydpi="96" />
    <path
       style="fill:#8a8a8a;fill-opacity:1;stroke:#000000;stroke-width:0.26458332px;stroke-linecap:butt;stroke-linejoin:miter;stroke-opacity:1"
       d="m 82.699378,224.75814 c -1.273928,-0.35667 -2.379206,-0.977 -3.587387,-1.41653 -1.701074,-0.61882 -3.347667,-1.56949 -5.151771,-1.71715 -1.524073,-0.12469 -3.191807,-0.0162 -4.530051,0.72367 -0.590338,0.32639 -1.491915,0.86705 -1.333001,1.52262 0.181723,0.74968 1.382594,0.80109 2.152432,0.84991 0.837897,0.0532 1.613881,-0.47654 2.440823,-0.62171 0.946103,-0.16608 1.907277,-0.2804 2.867846,-0.28236 1.251245,-0.003 2.496901,0.18705 3.737149,0.3526 1.141368,0.15251 3.40396,0.58895 3.40396,0.58895 z"
       id="path4517"
       inkscape:connector-curvature="0"
       sodipodi:nodetypes="caaaaaaaac"
       inkscape:export-xdpi="96"
       inkscape:export-ydpi="96" />
    <path
       style="fill:#8a8a8a;fill-opacity:1;stroke:#000000;stroke-width:0.26458332px;stroke-linecap:butt;stroke-linejoin:miter;stroke-opacity:1"
       d="m 109.44778,229.41714 c 0,0 0.0417,-1.79824 -0.31905,-2.58961 -0.75692,-1.66025 -2.15644,-3.03802 -3.66236,-4.06834 -0.67417,-0.46124 -1.49034,-1.02725 -2.29157,-0.86826 -0.43469,0.0863 -1.00696,0.46855 -0.96918,0.9101 0.10345,1.20886 2.05745,1.29018 3.0381,2.00459 0.97251,0.70848 2.02808,1.34895 2.81594,2.25836 0.5963,0.68831 1.38812,2.35316 1.38812,2.35316 z"
       id="path4519"
       inkscape:connector-curvature="0"
       sodipodi:nodetypes="caaaaaac"
       inkscape:export-xdpi="96"
       inkscape:export-ydpi="96" />
    <path
       style="fill:#8a8a8a;fill-opacity:1;stroke:#000000;stroke-width:0.26458332px;stroke-linecap:butt;stroke-linejoin:miter;stroke-opacity:1"
       d="m 112.23864,252.61877 c 0.32204,0.41988 0.1,3.35132 0.18659,5.02536 0.0657,1.27025 0.0728,2.54833 0.25282,3.80749 0.10331,0.72259 -0.0458,1.62454 0.47293,2.13814 0.28888,0.28606 0.81649,0.40401 1.19342,0.25166 0.4525,-0.1829 0.7731,-0.72702 0.82039,-1.21278 0.0596,-0.6121 -0.45189,-1.1452 -0.71954,-1.69889 -0.26093,-0.53974 -0.65744,-1.01492 -0.86217,-1.57836 -0.78156,-2.15093 -1.34444,-6.73262 -1.34444,-6.73262 z"
       id="path4521"
       inkscape:connector-curvature="0"
       sodipodi:nodetypes="caaaaaaac"
       inkscape:export-xdpi="96"
       inkscape:export-ydpi="96" />
    <path
       style="fill:#8a8a8a;fill-opacity:1;stroke:#000000;stroke-width:0.26458332px;stroke-linecap:butt;stroke-linejoin:miter;stroke-opacity:1"
       d="m 105.19827,272.02377 c 0,0 -1.91852,2.53498 -3.19088,3.4478 -1.1602,0.83235 -2.516776,1.43798 -3.910419,1.74891 -1.12335,0.25063 -2.476154,0.67352 -3.452329,0.0638 -0.344811,-0.21539 -0.616298,-0.7121 -0.514684,-1.10575 0.226012,-0.87557 1.297448,-1.4668 2.192128,-1.59805 0.599024,-0.0879 1.109323,0.55977 1.713196,0.60329 1.214631,0.0875 2.461618,-0.23506 3.584308,-0.70683 1.33332,-0.56028 3.57868,-2.45313 3.57868,-2.45313 z"
       id="path4523"
       inkscape:connector-curvature="0"
       sodipodi:nodetypes="caaaaaaac"
       inkscape:export-xdpi="96"
       inkscape:export-ydpi="96" />
  </g>
</svg>
