<?xml version="1.0" encoding="UTF-8" standalone="no"?>
<!-- Created with Inkscape (http://www.inkscape.org/) -->

<svg
   xmlns:dc="http://purl.org/dc/elements/1.1/"
   xmlns:cc="http://creativecommons.org/ns#"
   xmlns:rdf="http://www.w3.org/1999/02/22-rdf-syntax-ns#"
   xmlns:svg="http://www.w3.org/2000/svg"
   xmlns="http://www.w3.org/2000/svg"
   xmlns:sodipodi="http://sodipodi.sourceforge.net/DTD/sodipodi-0.dtd"
   xmlns:inkscape="http://www.inkscape.org/namespaces/inkscape"
   width="564"
   height="381"
   viewBox="0 0 149.225 100.80625"
   version="1.1"
   id="svg8"
   inkscape:version="0.92.1 r15371"
   sodipodi:docname="steam_projectile.svg"
   inkscape:export-filename="C:\Users\palme_000\Documents\Grado en Ingenieria Informatica UB\Cuarto Curso\Test\ES2017F2\Wiki Resources\Projectiles\steam_projectile.png"
   inkscape:export-xdpi="96"
   inkscape:export-ydpi="96">
  <defs
     id="defs2" />
  <sodipodi:namedview
     id="base"
     pagecolor="#ffffff"
     bordercolor="#666666"
     borderopacity="1.0"
     inkscape:pageopacity="0.0"
     inkscape:pageshadow="2"
     inkscape:zoom="0.98994949"
     inkscape:cx="233.07944"
     inkscape:cy="127.84065"
     inkscape:document-units="mm"
     inkscape:current-layer="layer1"
     showgrid="false"
     units="px"
     inkscape:snap-global="false"
     inkscape:window-width="1366"
     inkscape:window-height="745"
     inkscape:window-x="-8"
     inkscape:window-y="-8"
     inkscape:window-maximized="1" />
  <metadata
     id="metadata5">
    <rdf:RDF>
      <cc:Work
         rdf:about="">
        <dc:format>image/svg+xml</dc:format>
        <dc:type
           rdf:resource="http://purl.org/dc/dcmitype/StillImage" />
        <dc:title></dc:title>
      </cc:Work>
    </rdf:RDF>
  </metadata>
  <g
     inkscape:label="Layer 1"
     inkscape:groupmode="layer"
     id="layer1"
     transform="translate(0,-196.19373)">
    <path
       style="color:#000000;font-style:normal;font-variant:normal;font-weight:normal;font-stretch:normal;font-size:medium;line-height:normal;font-family:sans-serif;font-variant-ligatures:normal;font-variant-position:normal;font-variant-caps:normal;font-variant-numeric:normal;font-variant-alternates:normal;font-feature-settings:normal;text-indent:0;text-align:start;text-decoration:none;text-decoration-line:none;text-decoration-style:solid;text-decoration-color:#000000;letter-spacing:normal;word-spacing:normal;text-transform:none;writing-mode:lr-tb;direction:ltr;text-orientation:mixed;dominant-baseline:auto;baseline-shift:baseline;text-anchor:start;white-space:normal;shape-padding:0;clip-rule:nonzero;display:inline;overflow:visible;visibility:visible;opacity:1;isolation:auto;mix-blend-mode:normal;color-interpolation:sRGB;color-interpolation-filters:linearRGB;solid-color:#000000;solid-opacity:1;vector-effect:none;fill:#ababab;fill-opacity:1;fill-rule:evenodd;stroke:none;stroke-width:0.23050402;stroke-linecap:butt;stroke-linejoin:miter;stroke-miterlimit:4;stroke-dasharray:none;stroke-dashoffset:0;stroke-opacity:1;color-rendering:auto;image-rendering:auto;shape-rendering:auto;text-rendering:auto;enable-background:accumulate"
       d="m 98.167434,237.96866 c 5.284476,7.63759 6.062116,18.05892 0.71204,26.25728 -6.360393,9.74654 -19.855939,13.12094 -29.717243,6.58619 -8.681683,-5.75306 -11.670067,-17.85894 -5.732862,-26.64967 5.144725,-7.61737 15.864363,-10.22182 23.583436,-4.88057 6.553857,4.53498 8.775932,13.87145 4.02827,20.51721 -3.923108,5.49156 -11.882283,7.33239 -17.452013,3.17463 -4.431188,-3.30785 -5.893749,-9.89909 -2.319627,-14.38786 2.686643,-3.37418 7.926923,-4.46313 11.324412,-1.4609 1.161816,1.02665 1.922193,2.51568 2.088985,4.03861 0.167117,1.52267 -0.02765,4.69107 -1.255654,5.83054 -0.694154,0.64411 -1.719889,1.06155 -2.71369,1.07922 -0.993802,0.0177 -1.966379,-0.37873 -2.492046,-1.36597 -0.21279,-0.3996 -0.222306,-1.06632 -0.03403,-1.58556 0.09414,-0.25962 0.242301,-0.48687 0.467306,-0.60382 0.225006,-0.11695 0.659647,-0.33013 0.999738,-0.21384 0,0 -0.234335,0.1263 -0.313007,0.22885 -0.163496,0.21311 -0.20895,0.52547 -0.290898,0.75147 -0.163897,0.45201 -0.05387,0.45244 0.105498,0.75174 0.482808,0.90677 0.426,0.81066 1.357325,0.7941 0.931317,-0.0166 1.267795,-0.50209 1.914805,-1.10245 1.171023,-1.08659 0.679376,-0.71055 0.518769,-2.17382 -0.1606,-1.46328 -1.21705,-3.86515 -2.333173,-4.85142 -3.288424,-2.90585 -4.867661,-1.05998 -7.478384,2.21885 -3.486438,4.37866 -1.91476,7.22827 2.418258,10.46284 5.459142,4.07521 9.762543,1.48046 13.614059,-3.91089 4.66848,-6.5349 0.876046,-11.00944 -5.5761,-15.47403 -7.608043,-5.26443 -12.648787,-2.29918 -17.72402,5.2153 -5.862144,8.67959 -1.864115,15.19297 6.713738,20.87723 9.750083,6.46105 16.918613,2.64123 23.210757,-7.00074 7.060817,-10.81985 3.8669,-19.57518 -6.839705,-26.47439 -11.889097,-7.6612 -23.97154,-3.37732 -31.477196,8.39433 0,0 -1.155814,9.34121 -4.115875,12.63748 -3.347256,3.72745 -13.709451,6.15896 -13.709451,6.15896 7.427396,-4.00364 13.149372,-12.46524 13.167525,-15.61103 1.418184,-3.73833 2.037612,-5.06132 2.774951,-6.46197 7.573077,-11.87738 23.846888,-16.02403 35.847324,-8.2911 2.702949,1.74176 4.966308,3.9793 6.727799,6.52517 z"
       id="path4485-5"
       inkscape:connector-curvature="0"
       sodipodi:nodetypes="csssssssscssccccaccsscssssssssscacccccc" />
    <path
       style="color:#000000;font-style:normal;font-variant:normal;font-weight:normal;font-stretch:normal;font-size:medium;line-height:normal;font-family:sans-serif;font-variant-ligatures:normal;font-variant-position:normal;font-variant-caps:normal;font-variant-numeric:normal;font-variant-alternates:normal;font-feature-settings:normal;text-indent:0;text-align:start;text-decoration:none;text-decoration-line:none;text-decoration-style:solid;text-decoration-color:#000000;letter-spacing:normal;word-spacing:normal;text-transform:none;writing-mode:lr-tb;direction:ltr;text-orientation:mixed;dominant-baseline:auto;baseline-shift:baseline;text-anchor:start;white-space:normal;shape-padding:0;clip-rule:nonzero;display:inline;overflow:visible;visibility:visible;opacity:1;isolation:auto;mix-blend-mode:normal;color-interpolation:sRGB;color-interpolation-filters:linearRGB;solid-color:#000000;solid-opacity:1;vector-effect:none;fill:#909090;fill-opacity:1;fill-rule:evenodd;stroke:none;stroke-width:0.32721868;stroke-linecap:butt;stroke-linejoin:miter;stroke-miterlimit:4;stroke-dasharray:none;stroke-dashoffset:0;stroke-opacity:1;color-rendering:auto;image-rendering:auto;shape-rendering:auto;text-rendering:auto;enable-background:accumulate"
       d="m 107.69118,231.61004 c 7.50172,10.84217 8.60565,25.63607 1.0108,37.27428 -9.029094,13.83598 -28.187099,18.62622 -42.185992,9.34963 -12.324327,-8.16693 -16.566576,-25.35218 -8.138251,-37.83131 7.303346,-10.81346 22.520724,-14.51069 33.478556,-6.92836 9.303717,6.43776 12.458127,19.69161 5.718447,29.1258 -5.569157,7.7957 -16.86784,10.40892 -24.774509,4.50663 -6.290429,-4.69575 -8.366641,-14.05253 -3.292905,-20.42469 3.813911,-4.78992 11.252905,-6.33577 16.075906,-2.07386 1.649292,1.45741 2.728289,3.57152 2.965469,5.73312 0.237249,2.16155 -0.138354,5.98534 -1.881607,7.6029 -0.985412,0.91436 -2.441517,1.50695 -3.852298,1.53204 -1.410783,0.0251 -2.791439,-0.53763 -3.53766,-1.9391 -0.302047,-0.56729 -0.315576,-1.51373 -0.04831,-2.25083 0.133646,-0.36855 0.343978,-0.69116 0.663386,-0.85718 0.319405,-0.16602 0.936417,-0.46864 1.4192,-0.30355 0,0 -0.332645,0.17931 -0.444322,0.32488 -0.232094,0.30254 -0.296614,0.74594 -0.412952,1.06679 -0.232668,0.64166 -0.07648,0.64227 0.149766,1.06714 0.68538,1.28724 0.604747,1.15079 1.926829,1.12728 1.322075,-0.0235 1.799739,-0.71275 2.718215,-1.56501 1.662356,-1.5425 0.728204,-2.61508 0.500205,-4.69231 -0.227991,-2.07723 -1.392354,-3.20647 -2.976767,-4.60656 -4.668183,-4.12509 -6.910047,-1.50472 -10.616171,3.14985 -4.949275,6.21584 -2.718149,10.26109 3.432919,14.85281 7.749679,5.78508 13.858688,2.10164 19.326239,-5.55182 6.627257,-9.27681 1.243596,-15.62878 -7.915738,-21.96661 -10.800219,-7.47328 -17.955955,-3.26387 -25.160647,7.40353 -8.321767,12.32136 -2.646258,21.56762 9.530691,29.63687 13.841016,9.17197 24.017304,3.74943 32.949501,-9.9381 10.02338,-15.35963 5.48937,-27.78852 -9.709503,-37.5825 -16.877511,-10.87567 -34.029502,-4.79436 -44.684371,11.91642 0,0 -2.434848,12.65417 -5.842801,17.93989 -3.193822,4.95361 -33.617456,13.06111 -33.71775,12.77164 7.19815,-3.88006 17.825482,-8.67078 25.367804,-15.37643 3.505584,-3.11671 5.437399,-6.96826 7.580638,-10.81316 1.620258,-2.90669 2.892544,-7.18494 3.939261,-9.17327 10.750573,-16.86088 33.852538,-22.74738 50.888116,-11.76988 3.837046,2.47257 7.050066,5.64894 9.550636,9.263 z"
       id="path4485-7-9"
       inkscape:connector-curvature="0"
       sodipodi:nodetypes="csssssssscssccccaccsscssssssssscscsacccc" />
    <path
       style="color:#000000;font-style:normal;font-variant:normal;font-weight:normal;font-stretch:normal;font-size:medium;line-height:normal;font-family:sans-serif;font-variant-ligatures:normal;font-variant-position:normal;font-variant-caps:normal;font-variant-numeric:normal;font-variant-alternates:normal;font-feature-settings:normal;text-indent:0;text-align:start;text-decoration:none;text-decoration-line:none;text-decoration-style:solid;text-decoration-color:#000000;letter-spacing:normal;word-spacing:normal;text-transform:none;writing-mode:lr-tb;direction:ltr;text-orientation:mixed;dominant-baseline:auto;baseline-shift:baseline;text-anchor:start;white-space:normal;shape-padding:0;clip-rule:nonzero;display:inline;overflow:visible;visibility:visible;opacity:1;isolation:auto;mix-blend-mode:normal;color-interpolation:sRGB;color-interpolation-filters:linearRGB;solid-color:#000000;solid-opacity:1;vector-effect:none;fill:#4e4e4e;fill-opacity:1;fill-rule:evenodd;stroke:none;stroke-width:0.29698092;stroke-linecap:butt;stroke-linejoin:miter;stroke-miterlimit:4;stroke-dasharray:none;stroke-dashoffset:0;stroke-opacity:1;color-rendering:auto;image-rendering:auto;shape-rendering:auto;text-rendering:auto;enable-background:accumulate"
       d="m 104.58241,233.69888 c 6.8085,9.84026 7.81042,23.26708 0.9174,33.82982 -8.19473,12.55742 -25.58237,16.905 -38.28765,8.48564 -11.185461,-7.41223 -15.035691,-23.00942 -7.386212,-34.33538 6.628454,-9.8142 20.439621,-13.16977 30.384854,-6.28811 8.443979,5.84285 11.306898,17.87194 5.190013,26.43433 -5.05452,7.07531 -15.309106,9.44704 -22.485135,4.09018 -5.709134,-4.26183 -7.593493,-12.75396 -2.988608,-18.53728 3.461468,-4.34729 10.213044,-5.75029 14.590356,-1.88222 1.496882,1.32273 2.47615,3.2415 2.691436,5.20333 0.215325,1.96181 -0.103745,5.58069 -1.685902,7.04877 -0.894351,0.82987 -2.215903,1.36771 -3.496315,1.39047 -1.280414,0.0228 -2.533484,-0.48795 -3.21075,-1.75992 -0.274137,-0.51486 -0.286411,-1.37384 -0.04384,-2.04282 0.121292,-0.3345 0.312187,-0.62729 0.60208,-0.77797 0.289892,-0.15068 0.849884,-0.42533 1.288057,-0.27551 0,0 -0.301908,0.16274 -0.403267,0.29486 -0.210646,0.27458 -0.269211,0.67701 -0.374794,0.9682 -0.211168,0.58237 -0.06941,0.58292 0.135926,0.96854 0.622044,1.16828 0.548859,1.04444 1.748769,1.02311 1.199911,-0.0213 1.633428,-0.64689 2.467036,-1.42039 1.50874,-1.39997 0.875311,-0.91548 0.668382,-2.80075 -0.206921,-1.88528 -1.499922,-4.51657 -2.937925,-5.78728 -4.236802,-3.74389 -6.271496,-1.36566 -9.635146,2.85878 -4.491916,5.64144 -2.466967,9.31287 3.115691,13.48029 7.033546,5.25048 12.578029,1.90743 17.540328,-5.03879 6.014845,-8.41954 1.128688,-14.18453 -7.184244,-19.9367 -9.802189,-6.78269 -16.296673,-2.96226 -22.835596,6.71938 -7.552767,11.18276 -2.401721,19.57459 8.649975,26.89818 12.561991,8.3244 21.797908,3.40295 29.904691,-9.01975 9.09714,-13.94027 4.98211,-25.22061 -8.812266,-34.10955 -15.317886,-9.87066 -30.884883,-4.35132 -40.555156,10.81524 0,0 -1.402956,12.1142 -5.302879,16.2821 -5.924196,6.33127 -24.144343,9.67888 -24.144343,9.67888 6.425573,-3.46362 13.959166,-7.98984 18.803594,-13.36741 2.37025,-2.6311 3.230862,-5.58951 4.642535,-8.48949 1.321919,-2.7156 2.625246,-6.52099 3.575238,-8.32559 9.757129,-15.30279 30.72428,-20.64533 46.185623,-10.68224 3.482468,2.24408 6.398574,5.12693 8.668074,8.40702 z"
       id="path4485-7"
       inkscape:connector-curvature="0"
       sodipodi:nodetypes="csssssssscssccccaccsscssssssssscacsacccc" />
    <path
       style="color:#000000;font-style:normal;font-variant:normal;font-weight:normal;font-stretch:normal;font-size:medium;line-height:normal;font-family:sans-serif;font-variant-ligatures:normal;font-variant-position:normal;font-variant-caps:normal;font-variant-numeric:normal;font-variant-alternates:normal;font-feature-settings:normal;text-indent:0;text-align:start;text-decoration:none;text-decoration-line:none;text-decoration-style:solid;text-decoration-color:#000000;letter-spacing:normal;word-spacing:normal;text-transform:none;writing-mode:lr-tb;direction:ltr;text-orientation:mixed;dominant-baseline:auto;baseline-shift:baseline;text-anchor:start;white-space:normal;shape-padding:0;clip-rule:nonzero;display:inline;overflow:visible;visibility:visible;opacity:1;isolation:auto;mix-blend-mode:normal;color-interpolation:sRGB;color-interpolation-filters:linearRGB;solid-color:#000000;solid-opacity:1;vector-effect:none;fill:#000000;fill-opacity:1;fill-rule:evenodd;stroke:none;stroke-width:0.26458332;stroke-linecap:butt;stroke-linejoin:miter;stroke-miterlimit:4;stroke-dasharray:none;stroke-dashoffset:0;stroke-opacity:1;color-rendering:auto;image-rendering:auto;shape-rendering:auto;text-rendering:auto;enable-background:accumulate"
       d="m 101.67115,235.61445 c 6.06577,8.76679 6.95838,20.72888 0.81732,30.13933 -7.300761,11.18754 -22.791589,15.06084 -34.11085,7.55994 -9.965244,-6.60362 -13.395452,-20.49933 -6.580454,-30.58973 5.905362,-8.74358 18.209865,-11.73309 27.070179,-5.60215 7.522822,5.20546 10.073425,15.92229 4.623835,23.55061 -4.503126,6.30347 -13.639038,8.41646 -20.032239,3.64399 -5.086327,-3.79691 -6.76512,-11.36264 -2.662578,-16.51506 3.083854,-3.87304 9.0989,-5.12299 12.998697,-1.67689 1.333584,1.17844 2.20601,2.8879 2.397827,4.63571 0.191832,1.74779 -0.06666,5.14713 -1.476219,6.45506 -0.796783,0.73934 -1.974167,1.2185 -3.114901,1.23878 -1.140733,0.0203 -2.257109,-0.43471 -2.860492,-1.56792 -0.244218,-0.45871 -0.255166,-1.22398 -0.03905,-1.81998 0.10806,-0.298 0.278127,-0.55885 0.536396,-0.6931 0.258268,-0.13424 0.757173,-0.37893 1.147546,-0.24545 0,0 -0.268968,0.14499 -0.359268,0.2627 -0.187664,0.24463 -0.239844,0.60316 -0.333908,0.86258 -0.188132,0.51884 -0.06183,0.51933 0.121097,0.86288 0.55419,1.04084 0.488984,0.93051 1.557998,0.9115 1.069014,-0.019 1.455241,-0.57632 2.197906,-1.26544 1.344156,-1.24724 0.543587,-2.422 0.359235,-4.10161 -0.184345,-1.67962 -1.125829,-2.59271 -2.406962,-3.72479 -3.774609,-3.33547 -5.587338,-1.21669 -8.584049,2.54691 -4.001893,5.02602 -2.197851,8.29694 2.775797,12.00973 6.266257,4.67771 11.205899,1.69935 15.626855,-4.4891 5.358685,-7.50107 1.005556,-12.63716 -6.400517,-17.76183 -8.732871,-6.04276 -14.518873,-2.6391 -20.344466,5.98637 -6.72884,9.96284 -2.139718,17.4392 7.706349,23.96386 11.191602,7.41629 19.419976,3.03172 26.642396,-8.03578 8.10472,-12.41953 4.4386,-22.46931 -7.850942,-30.38855 -13.646861,-8.79387 -29.842626,-1.12665 -36.131,9.63541 -2.355672,4.03155 -1.290727,10.75488 -4.724389,14.50589 -4.680686,5.11328 -19.129267,8.15852 -19.129267,8.15852 5.147998,-1.91842 10.916742,-5.2965 14.486338,-9.31678 3.10932,-3.50189 2.489943,-7.2507 4.020882,-10.76035 0.946592,-2.17004 2.338863,-4.74054 3.185217,-6.34827 8.692727,-13.63341 27.372576,-18.39313 41.147239,-9.51691 3.102572,1.99927 5.700561,4.56763 7.722482,7.48989 z"
       id="path4485"
       inkscape:connector-curvature="0"
       sodipodi:nodetypes="csssssssscssccccaccsscssssssssssacsacccc" />
    <path
       style="color:#000000;font-style:normal;font-variant:normal;font-weight:normal;font-stretch:normal;font-size:medium;line-height:normal;font-family:sans-serif;font-variant-ligatures:normal;font-variant-position:normal;font-variant-caps:normal;font-variant-numeric:normal;font-variant-alternates:normal;font-feature-settings:normal;text-indent:0;text-align:start;text-decoration:none;text-decoration-line:none;text-decoration-style:solid;text-decoration-color:#000000;letter-spacing:normal;word-spacing:normal;text-transform:none;writing-mode:lr-tb;direction:ltr;text-orientation:mixed;dominant-baseline:auto;baseline-shift:baseline;text-anchor:start;white-space:normal;shape-padding:0;clip-rule:nonzero;display:inline;overflow:visible;visibility:visible;opacity:1;isolation:auto;mix-blend-mode:normal;color-interpolation:sRGB;color-interpolation-filters:linearRGB;solid-color:#000000;solid-opacity:1;vector-effect:none;fill:#909090;fill-opacity:1;fill-rule:evenodd;stroke:none;stroke-width:0.32721868;stroke-linecap:butt;stroke-linejoin:miter;stroke-miterlimit:4;stroke-dasharray:none;stroke-dashoffset:0;stroke-opacity:1;color-rendering:auto;image-rendering:auto;shape-rendering:auto;text-rendering:auto;enable-background:accumulate"
       d="m 107.69118,231.61004 c 7.50172,10.84217 8.60565,25.63607 1.0108,37.27428 -9.029092,13.83598 -28.187098,18.62622 -42.185993,9.34963 -12.324326,-8.16693 -16.566576,-25.35218 -8.13825,-37.83131 7.303347,-10.81346 22.520725,-14.51069 33.478558,-6.92836 9.303715,6.43776 12.458125,19.69161 5.718447,29.1258 -5.569159,7.7957 -16.867841,10.40892 -24.774512,4.50663 -6.290429,-4.69575 -8.366641,-14.05253 -3.292903,-20.42469 3.81391,-4.78992 11.252904,-6.33577 16.075906,-2.07386 1.649291,1.45741 2.728288,3.57152 2.965468,5.73312 0.23725,2.16155 -0.138354,5.98534 -1.881606,7.6029 -0.985412,0.91436 -2.441517,1.50695 -3.852299,1.53204 -1.410782,0.0251 -2.791439,-0.53763 -3.537659,-1.9391 -0.302048,-0.56729 -0.315577,-1.51373 -0.04831,-2.25083 0.133646,-0.36855 0.343977,-0.69116 0.663387,-0.85718 0.319405,-0.16602 0.936416,-0.46864 1.419198,-0.30355 0,0 -0.332645,0.17931 -0.444322,0.32488 -0.232094,0.30254 -0.296614,0.74594 -0.412951,1.06679 -0.232667,0.64166 -0.07648,0.64227 0.149767,1.06714 0.685379,1.28724 0.604745,1.15079 1.926828,1.12728 1.322075,-0.0235 1.799738,-0.71275 2.718215,-1.56501 1.662356,-1.5425 0.728203,-2.61508 0.500204,-4.69231 -0.227991,-2.07723 -1.392354,-3.20647 -2.976766,-4.60656 -4.668184,-4.12509 -6.910046,-1.50472 -10.616171,3.14985 -4.949275,6.21584 -2.718149,10.26109 3.432919,14.85281 7.74968,5.78508 13.858687,2.10164 19.326238,-5.55182 6.627257,-9.27681 1.243597,-15.62878 -7.915738,-21.96661 -10.800218,-7.47328 -17.955953,-3.26387 -25.160648,7.40353 -8.321765,12.32136 -2.646256,21.56762 9.530692,29.63687 13.841018,9.17197 24.017306,3.74943 32.949501,-9.9381 10.02338,-15.35963 5.48937,-27.78852 -9.709502,-37.5825 -16.877511,-10.87567 -34.029501,-4.79436 -44.684373,11.91642 0,0 -2.434846,12.65417 -5.842799,17.93989 -3.193822,4.95361 -33.617457,13.06111 -33.717751,12.77164 7.19815,-3.88006 17.825482,-8.67078 25.367804,-15.37643 3.505585,-3.11671 5.437398,-6.96826 7.580639,-10.81316 1.620258,-2.90669 2.892544,-7.18494 3.93926,-9.17327 10.750574,-16.86088 33.852538,-22.74738 50.888117,-11.76988 3.837045,2.47257 7.050065,5.64894 9.550635,9.263 z"
       id="path4485-7-9-5"
       inkscape:connector-curvature="0"
       sodipodi:nodetypes="csssssssscssccccaccsscssssssssscscsacccc" />
    <path
       style="color:#000000;font-style:normal;font-variant:normal;font-weight:normal;font-stretch:normal;font-size:medium;line-height:normal;font-family:sans-serif;font-variant-ligatures:normal;font-variant-position:normal;font-variant-caps:normal;font-variant-numeric:normal;font-variant-alternates:normal;font-feature-settings:normal;text-indent:0;text-align:start;text-decoration:none;text-decoration-line:none;text-decoration-style:solid;text-decoration-color:#000000;letter-spacing:normal;word-spacing:normal;text-transform:none;writing-mode:lr-tb;direction:ltr;text-orientation:mixed;dominant-baseline:auto;baseline-shift:baseline;text-anchor:start;white-space:normal;shape-padding:0;clip-rule:nonzero;display:inline;overflow:visible;visibility:visible;opacity:1;isolation:auto;mix-blend-mode:normal;color-interpolation:sRGB;color-interpolation-filters:linearRGB;solid-color:#000000;solid-opacity:1;vector-effect:none;fill:#ababab;fill-opacity:1;fill-rule:evenodd;stroke:none;stroke-width:0.23050404;stroke-linecap:butt;stroke-linejoin:miter;stroke-miterlimit:4;stroke-dasharray:none;stroke-dashoffset:0;stroke-opacity:1;color-rendering:auto;image-rendering:auto;shape-rendering:auto;text-rendering:auto;enable-background:accumulate"
       d="m 98.167435,237.96866 c 5.284475,7.63759 6.062115,18.05892 0.712039,26.25728 -6.360393,9.74654 -19.855939,13.12094 -29.717243,6.58619 -8.681683,-5.75306 -11.670067,-17.85894 -5.732862,-26.64967 5.144725,-7.61737 15.864363,-10.22182 23.583437,-4.88057 6.553856,4.53498 8.775933,13.87145 4.02827,20.51721 -3.923109,5.49156 -11.882284,7.33239 -17.452014,3.17463 -4.431186,-3.30785 -5.893747,-9.89909 -2.319626,-14.38786 2.686643,-3.37418 7.926922,-4.46313 11.324413,-1.4609 1.161814,1.02665 1.922192,2.51568 2.088983,4.03861 0.167119,1.52267 -0.02765,4.69107 -1.255653,5.83054 -0.694155,0.64411 -1.719889,1.06155 -2.713691,1.07922 -0.993801,0.0177 -1.966378,-0.37873 -2.492046,-1.36597 -0.212789,-0.3996 -0.222306,-1.06632 -0.03403,-1.58556 0.09414,-0.25962 0.242301,-0.48687 0.467305,-0.60382 0.225007,-0.11695 0.659648,-0.33013 0.999739,-0.21384 0,0 -0.234336,0.1263 -0.313008,0.22885 -0.163496,0.21311 -0.208949,0.52547 -0.290896,0.75147 -0.163899,0.45201 -0.05387,0.45244 0.105497,0.75174 0.482807,0.90677 0.426001,0.81066 1.357323,0.7941 0.931318,-0.0166 1.267796,-0.50209 1.914806,-1.10245 1.171025,-1.08659 0.443141,-2.31695 0.282536,-3.78022 -0.160602,-1.46328 -0.980816,-2.25875 -2.096939,-3.24502 -3.288424,-2.90585 -4.867662,-1.05998 -7.478385,2.21885 -3.486438,4.37866 -1.91476,7.22827 2.418258,10.46284 5.459142,4.07521 9.762543,1.48046 13.614061,-3.91089 4.668478,-6.5349 0.876046,-11.00944 -5.576102,-15.47403 -7.608043,-5.26443 -12.648787,-2.29918 -17.724019,5.2153 -5.862146,8.67959 -1.864114,15.19297 6.713738,20.87723 9.750084,6.46105 16.918612,2.64123 23.210756,-7.00074 7.060818,-10.81985 3.866901,-19.57518 -6.839704,-26.47439 -11.889097,-7.6612 -23.971541,-3.37732 -31.477196,8.39433 0,0 -1.155814,9.34121 -4.115874,12.63748 -3.347257,3.72745 -13.709452,6.15896 -13.709452,6.15896 7.427397,-4.00364 13.149371,-12.46524 13.167524,-15.61103 1.418185,-3.73833 2.037612,-5.06132 2.774953,-6.46197 7.573076,-11.87738 23.846888,-16.02403 35.847324,-8.2911 2.702949,1.74176 4.966306,3.9793 6.727798,6.52517 z"
       id="path4485-5-2"
       inkscape:connector-curvature="0"
       sodipodi:nodetypes="csssssssscssccccaccsscssssssssscacccccc" />
    <path
       style="color:#000000;font-style:normal;font-variant:normal;font-weight:normal;font-stretch:normal;font-size:medium;line-height:normal;font-family:sans-serif;font-variant-ligatures:normal;font-variant-position:normal;font-variant-caps:normal;font-variant-numeric:normal;font-variant-alternates:normal;font-feature-settings:normal;text-indent:0;text-align:start;text-decoration:none;text-decoration-line:none;text-decoration-style:solid;text-decoration-color:#000000;letter-spacing:normal;word-spacing:normal;text-transform:none;writing-mode:lr-tb;direction:ltr;text-orientation:mixed;dominant-baseline:auto;baseline-shift:baseline;text-anchor:start;white-space:normal;shape-padding:0;clip-rule:nonzero;display:inline;overflow:visible;visibility:visible;opacity:1;isolation:auto;mix-blend-mode:normal;color-interpolation:sRGB;color-interpolation-filters:linearRGB;solid-color:#000000;solid-opacity:1;vector-effect:none;fill:#4e4e4e;fill-opacity:1;fill-rule:evenodd;stroke:none;stroke-width:0.29698092;stroke-linecap:butt;stroke-linejoin:miter;stroke-miterlimit:4;stroke-dasharray:none;stroke-dashoffset:0;stroke-opacity:1;color-rendering:auto;image-rendering:auto;shape-rendering:auto;text-rendering:auto;enable-background:accumulate"
       d="m 104.58241,233.69888 c 6.8085,9.84026 7.81042,23.26708 0.9174,33.82982 -8.194729,12.55742 -25.58237,16.905 -38.287648,8.48564 -11.185462,-7.41223 -15.035692,-23.00942 -7.386215,-34.33538 6.628456,-9.8142 20.439624,-13.16977 30.384856,-6.28811 8.443979,5.84285 11.306897,17.87194 5.190014,26.43433 -5.054521,7.07531 -15.309106,9.44704 -22.485136,4.09018 -5.709134,-4.26183 -7.593494,-12.75396 -2.988609,-18.53728 3.461467,-4.34729 10.213044,-5.75029 14.590356,-1.88222 1.496883,1.32273 2.47615,3.2415 2.691437,5.20333 0.215325,1.96181 -0.103744,5.58069 -1.685902,7.04877 -0.89435,0.82987 -2.215904,1.36771 -3.496316,1.39047 -1.280414,0.0228 -2.533483,-0.48795 -3.21075,-1.75992 -0.274135,-0.51486 -0.286409,-1.37384 -0.04384,-2.04282 0.121293,-0.3345 0.312187,-0.62729 0.60208,-0.77797 0.289891,-0.15068 0.849884,-0.42533 1.288056,-0.27551 0,0 -0.301907,0.16274 -0.403265,0.29486 -0.210646,0.27458 -0.269211,0.67701 -0.374796,0.9682 -0.211166,0.58237 -0.06941,0.58292 0.135927,0.96854 0.622044,1.16828 0.548857,1.04444 1.748769,1.02311 1.19991,-0.0213 1.633427,-0.64689 2.467036,-1.42039 1.508739,-1.39997 0.875311,-0.91548 0.668383,-2.80075 -0.206923,-1.88528 -1.499922,-4.51657 -2.937928,-5.78728 -4.236802,-3.74389 -6.271495,-1.36566 -9.635146,2.85878 -4.491915,5.64144 -2.466967,9.31287 3.115691,13.48029 7.033549,5.25048 12.57803,1.90743 17.54033,-5.03879 6.014845,-8.41954 1.128689,-14.18453 -7.184244,-19.9367 -9.802188,-6.78269 -16.296675,-2.96226 -22.835598,6.71938 -7.552766,11.18276 -2.401721,19.57459 8.649976,26.89818 12.561993,8.3244 21.797909,3.40295 29.904692,-9.01975 9.09714,-13.94027 4.98211,-25.22061 -8.812265,-34.10955 -15.317888,-9.87066 -30.884884,-4.35132 -40.555156,10.81524 0,0 -1.402959,12.1142 -5.30288,16.2821 -5.924195,6.33127 -24.144344,9.67888 -24.144344,9.67888 6.425573,-3.46362 13.959166,-7.98984 18.803595,-13.36741 2.370248,-2.6311 3.230861,-5.58951 4.642535,-8.48949 1.321919,-2.7156 2.625246,-6.52099 3.575238,-8.32559 9.757129,-15.30279 30.724279,-20.64533 46.185624,-10.68224 3.482467,2.24408 6.398573,5.12693 8.668073,8.40702 z"
       id="path4485-7-96"
       inkscape:connector-curvature="0"
       sodipodi:nodetypes="csssssssscssccccaccsscssssssssscacsacccc" />
    <path
       style="color:#000000;font-style:normal;font-variant:normal;font-weight:normal;font-stretch:normal;font-size:medium;line-height:normal;font-family:sans-serif;font-variant-ligatures:normal;font-variant-position:normal;font-variant-caps:normal;font-variant-numeric:normal;font-variant-alternates:normal;font-feature-settings:normal;text-indent:0;text-align:start;text-decoration:none;text-decoration-line:none;text-decoration-style:solid;text-decoration-color:#000000;letter-spacing:normal;word-spacing:normal;text-transform:none;writing-mode:lr-tb;direction:ltr;text-orientation:mixed;dominant-baseline:auto;baseline-shift:baseline;text-anchor:start;white-space:normal;shape-padding:0;clip-rule:nonzero;display:inline;overflow:visible;visibility:visible;opacity:1;isolation:auto;mix-blend-mode:normal;color-interpolation:sRGB;color-interpolation-filters:linearRGB;solid-color:#000000;solid-opacity:1;vector-effect:none;fill:#000000;fill-opacity:1;fill-rule:evenodd;stroke:none;stroke-width:0.26458332;stroke-linecap:butt;stroke-linejoin:miter;stroke-miterlimit:4;stroke-dasharray:none;stroke-dashoffset:0;stroke-opacity:1;color-rendering:auto;image-rendering:auto;shape-rendering:auto;text-rendering:auto;enable-background:accumulate"
       d="m 101.67115,235.61445 c 6.06577,8.76679 6.95838,20.72888 0.81732,30.13933 -7.300759,11.18754 -22.791589,15.06084 -34.110851,7.55994 -9.965242,-6.60362 -13.395452,-20.49933 -6.580452,-30.58973 5.905363,-8.74358 18.209864,-11.73309 27.07018,-5.60215 7.522821,5.20546 10.073423,15.92229 4.623835,23.55061 -4.503127,6.30347 -13.639038,8.41646 -20.03224,3.64399 -5.086328,-3.79691 -6.76512,-11.36264 -2.662578,-16.51506 3.083853,-3.87304 9.098899,-5.12299 12.998696,-1.67689 1.333584,1.17844 2.206011,2.8879 2.397828,4.63571 0.191831,1.74779 -0.06666,5.14713 -1.476219,6.45506 -0.796782,0.73934 -1.974168,1.2185 -3.1149,1.23878 -1.140735,0.0203 -2.25711,-0.43471 -2.860493,-1.56792 -0.244218,-0.45871 -0.255166,-1.22398 -0.03905,-1.81998 0.108059,-0.298 0.278128,-0.55885 0.536396,-0.6931 0.258267,-0.13424 0.757174,-0.37893 1.147545,-0.24545 0,0 -0.268967,0.14499 -0.359267,0.2627 -0.187664,0.24463 -0.239845,0.60316 -0.33391,0.86258 -0.188131,0.51884 -0.06183,0.51933 0.121098,0.86288 0.554191,1.04084 0.488984,0.93051 1.557999,0.9115 1.069014,-0.019 1.45524,-0.57632 2.197907,-1.26544 1.344154,-1.24724 0.543587,-2.422 0.359233,-4.10161 -0.184343,-1.67962 -1.125828,-2.59271 -2.406962,-3.72479 -3.774609,-3.33547 -5.587339,-1.21669 -8.584049,2.54691 -4.001892,5.02602 -2.197851,8.29694 2.775797,12.00973 6.266259,4.67771 11.2059,1.69935 15.626855,-4.4891 5.358685,-7.50107 1.005557,-12.63716 -6.400517,-17.76183 -8.732869,-6.04276 -14.518873,-2.6391 -20.344466,5.98637 -6.728838,9.96284 -2.139717,17.4392 7.706349,23.96386 11.191603,7.41629 19.419978,3.03172 26.642396,-8.03578 8.10472,-12.41953 4.4386,-22.46931 -7.850941,-30.38855 -13.646862,-8.79387 -29.842627,-1.12665 -36.131,9.63541 -2.355673,4.03155 -1.290728,10.75488 -4.72439,14.50589 -4.680685,5.11328 -19.129267,8.15852 -19.129267,8.15852 5.147998,-1.91842 10.916744,-5.2965 14.486338,-9.31678 3.10932,-3.50189 2.489943,-7.2507 4.020883,-10.76035 0.946592,-2.17004 2.338862,-4.74054 3.185216,-6.34827 8.692727,-13.63341 27.372577,-18.39313 41.147241,-9.51691 3.10257,1.99927 5.700559,4.56763 7.72248,7.48989 z"
       id="path4485-2"
       inkscape:connector-curvature="0"
       sodipodi:nodetypes="csssssssscssccccaccsscssssssssssacsacccc" />
    <path
       style="color:#000000;font-style:normal;font-variant:normal;font-weight:normal;font-stretch:normal;font-size:medium;line-height:normal;font-family:sans-serif;font-variant-ligatures:normal;font-variant-position:normal;font-variant-caps:normal;font-variant-numeric:normal;font-variant-alternates:normal;font-feature-settings:normal;text-indent:0;text-align:start;text-decoration:none;text-decoration-line:none;text-decoration-style:solid;text-decoration-color:#000000;letter-spacing:normal;word-spacing:normal;text-transform:none;writing-mode:lr-tb;direction:ltr;text-orientation:mixed;dominant-baseline:auto;baseline-shift:baseline;text-anchor:start;white-space:normal;shape-padding:0;clip-rule:nonzero;display:inline;overflow:visible;visibility:visible;opacity:1;isolation:auto;mix-blend-mode:normal;color-interpolation:sRGB;color-interpolation-filters:linearRGB;solid-color:#000000;solid-opacity:1;vector-effect:none;fill:#ababab;fill-opacity:1;fill-rule:evenodd;stroke:none;stroke-width:0.07984586;stroke-linecap:butt;stroke-linejoin:miter;stroke-miterlimit:4;stroke-dasharray:none;stroke-dashoffset:0;stroke-opacity:1;color-rendering:auto;image-rendering:auto;shape-rendering:auto;text-rendering:auto;enable-background:accumulate"
       d="m 51.229248,230.77399 c 3.06764,0.61319 4.749885,2.87116 3.753069,5.96487 -1.185048,3.6779 -5.990421,7.44662 -10.693239,8.10188 -4.140259,0.57689 -6.905842,-1.58545 -5.758971,-4.94699 0.993783,-2.91285 4.82082,-5.88865 8.531919,-6.34887 3.15092,-0.39074 5.251661,1.2952 4.283769,3.89375 -0.799785,2.14728 -3.653541,4.33515 -6.371576,4.59635 -2.162383,0.20785 -3.604123,-1.00583 -2.807402,-2.84218 0.598887,-1.38034 2.494098,-2.79213 4.213742,-2.84283 0.588054,-0.0173 1.081103,0.16182 1.347612,0.48008 0.266606,0.31812 0.610251,1.09991 0.283191,1.6369 -0.184753,0.30366 -0.529179,0.62723 -0.913227,0.85127 -0.384514,0.22355 -0.815402,0.34616 -1.150672,0.23213 -0.135695,-0.0463 -0.227669,-0.19951 -0.223128,-0.36218 0.0023,-0.0814 0.0298,-0.16708 0.101903,-0.24404 0.07204,-0.077 0.213033,-0.22274 0.360766,-0.27076 0,0 -0.07428,0.0816 -0.09115,0.12283 -0.03541,0.0858 -0.01178,0.16867 -0.01374,0.23949 -0.004,0.14158 0.03893,0.11739 0.140584,0.15197 0.307942,0.1047 0.273092,0.0949 0.633347,-0.11477 0.360187,-0.20976 0.426891,-0.39721 0.599221,-0.68015 0.311978,-0.51204 -0.134255,-0.63813 -0.390466,-0.94383 -0.256212,-0.30571 -0.680721,-0.30995 -1.245639,-0.29339 -1.664433,0.0491 -2.034676,0.82838 -2.616632,2.16977 -0.777185,1.79126 0.211701,2.10841 2.326186,1.90518 2.66403,-0.25604 3.9953,-1.81191 4.780486,-3.91999 0.951754,-2.55521 -1.116499,-2.76055 -4.218527,-2.37589 -3.657739,0.45359 -5.226915,2.25876 -6.207282,5.13225 -1.132375,3.31905 1.285789,3.95434 5.376547,3.38434 4.649771,-0.64786 6.933899,-3.12242 8.106207,-6.76087 1.315535,-4.08292 -1.086482,-5.4186 -6.166511,-4.66155 -5.641106,0.84066 -9.776144,4.50923 -11.138808,8.91234 0,0 0.786791,2.43341 0.07118,3.85601 -0.809211,1.6087 -4.520001,4.46523 -4.520001,4.46523 2.360528,-2.57463 3.467192,-5.81187 3.057828,-6.54936 0.05703,-1.18499 0.122963,-1.63032 0.224491,-2.11984 1.374901,-4.44266 7.159274,-9.00531 12.853203,-9.85387 1.282482,-0.19113 2.459526,-0.1695 3.482067,0.0349 z"
       id="path4485-5-2-4"
       inkscape:connector-curvature="0"
       sodipodi:nodetypes="csssssssscssccccaccsscssssssssscacccccc" />
    <path
       style="color:#000000;font-style:normal;font-variant:normal;font-weight:normal;font-stretch:normal;font-size:medium;line-height:normal;font-family:sans-serif;font-variant-ligatures:normal;font-variant-position:normal;font-variant-caps:normal;font-variant-numeric:normal;font-variant-alternates:normal;font-feature-settings:normal;text-indent:0;text-align:start;text-decoration:none;text-decoration-line:none;text-decoration-style:solid;text-decoration-color:#000000;letter-spacing:normal;word-spacing:normal;text-transform:none;writing-mode:lr-tb;direction:ltr;text-orientation:mixed;dominant-baseline:auto;baseline-shift:baseline;text-anchor:start;white-space:normal;shape-padding:0;clip-rule:nonzero;display:inline;overflow:visible;visibility:visible;opacity:1;isolation:auto;mix-blend-mode:normal;color-interpolation:sRGB;color-interpolation-filters:linearRGB;solid-color:#000000;solid-opacity:1;vector-effect:none;fill:#ababab;fill-opacity:1;fill-rule:evenodd;stroke:none;stroke-width:0.07293088;stroke-linecap:butt;stroke-linejoin:miter;stroke-miterlimit:4;stroke-dasharray:none;stroke-dashoffset:0;stroke-opacity:1;color-rendering:auto;image-rendering:auto;shape-rendering:auto;text-rendering:auto;enable-background:accumulate"
       d="m 90.602146,216.31677 c 1.651397,2.33186 1.35116,4.88618 -1.251712,6.31416 -3.094365,1.69761 -8.648723,1.18386 -12.181389,-1.33212 -3.110086,-2.21499 -3.588931,-5.38559 -0.718413,-6.89718 2.48737,-1.30984 6.89482,-0.88366 9.646846,1.13949 2.336607,1.71778 2.673091,4.15498 0.400118,5.27244 -1.878219,0.92342 -5.145243,0.58496 -7.11324,-0.94716 -1.565702,-1.21889 -1.761111,-2.92912 -0.08002,-3.64808 1.263648,-0.54042 3.407458,-0.2883 4.580689,0.75707 0.401194,0.35749 0.61606,0.78576 0.593237,1.16424 -0.02264,0.37844 -0.285101,1.11297 -0.839146,1.2642 -0.31316,0.0856 -0.744813,0.0843 -1.140298,-0.008 -0.395488,-0.0929 -0.758427,-0.28188 -0.909418,-0.56794 -0.06109,-0.11581 -0.02593,-0.27529 0.07915,-0.38041 0.05262,-0.0526 0.124623,-0.0922 0.220772,-0.0981 0.09611,-0.006 0.281164,-0.0142 0.409346,0.0466 0,0 -0.100468,0.007 -0.137571,0.0243 -0.07734,0.0346 -0.113651,0.10454 -0.15939,0.15034 -0.09147,0.0915 -0.04781,0.10237 -0.0021,0.18908 0.138702,0.26272 0.121702,0.23437 0.492392,0.32124 0.370704,0.0867 0.532599,0.004 0.824515,-0.0754 0.528369,-0.14411 0.311302,-0.50781 0.333056,-0.87148 0.02176,-0.36367 -0.25735,-0.63285 -0.642736,-0.97632 -1.135547,-1.01183 -1.870312,-0.72687 -3.098272,-0.20169 -1.639835,0.7013 -1.182465,1.53232 0.348552,2.72421 1.928919,1.50166 3.788819,1.30429 5.632751,0.39774 2.235067,-1.09883 0.991102,-2.53289 -1.309238,-4.22403 -2.712445,-1.99407 -4.88669,-1.78052 -7.340462,-0.48838 -2.834231,1.49248 -1.627798,3.4315 1.4451,5.62002 3.492816,2.48759 6.561639,2.27833 9.622798,0.5989 3.435119,-1.88458 2.678891,-4.27835 -1.168023,-6.96345 -4.271789,-2.98166 -9.318359,-3.14128 -12.985678,-1.07375 0,0 -1.00467,2.10886 -2.372309,2.6041 -1.546541,0.56002 -5.801985,0.12761 -5.801985,0.12761 3.182322,-0.22774 5.948166,-1.68205 6.139205,-2.42844 0.78141,-0.75075 1.104606,-1.00498 1.479155,-1.26618 3.700253,-2.08611 10.402599,-1.48503 14.714399,1.52455 0.971174,0.67787 1.738881,1.43078 2.289352,2.20806 z"
       id="path4485-5-2-4-9"
       inkscape:connector-curvature="0"
       sodipodi:nodetypes="csssssssscssccccaccsscssssssssscacccccc" />
    <path
       style="color:#000000;font-style:normal;font-variant:normal;font-weight:normal;font-stretch:normal;font-size:medium;line-height:normal;font-family:sans-serif;font-variant-ligatures:normal;font-variant-position:normal;font-variant-caps:normal;font-variant-numeric:normal;font-variant-alternates:normal;font-feature-settings:normal;text-indent:0;text-align:start;text-decoration:none;text-decoration-line:none;text-decoration-style:solid;text-decoration-color:#000000;letter-spacing:normal;word-spacing:normal;text-transform:none;writing-mode:lr-tb;direction:ltr;text-orientation:mixed;dominant-baseline:auto;baseline-shift:baseline;text-anchor:start;white-space:normal;shape-padding:0;clip-rule:nonzero;display:inline;overflow:visible;visibility:visible;opacity:1;isolation:auto;mix-blend-mode:normal;color-interpolation:sRGB;color-interpolation-filters:linearRGB;solid-color:#000000;solid-opacity:1;vector-effect:none;fill:#757575;fill-opacity:1;fill-rule:evenodd;stroke:none;stroke-width:0.06989056;stroke-linecap:butt;stroke-linejoin:miter;stroke-miterlimit:4;stroke-dasharray:none;stroke-dashoffset:0;stroke-opacity:1;color-rendering:auto;image-rendering:auto;shape-rendering:auto;text-rendering:auto;enable-background:accumulate"
       d="m 104.13098,278.85552 c 1.19271,-2.46487 0.50557,-4.83183 -2.1802,-5.77055 -3.192891,-1.11597 -8.361791,0.24671 -11.303613,3.18269 -2.589923,2.58476 -2.541865,5.65726 0.410081,6.63275 2.557929,0.84529 6.656587,-0.25351 8.938355,-2.60039 1.937327,-1.99265 1.870527,-4.34945 -0.45438,-5.04677 -1.921118,-0.57623 -4.955689,0.25958 -6.573925,2.01852 -1.287445,1.39936 -1.202087,3.04674 0.500437,3.46085 1.279755,0.31127 3.266296,-0.26557 4.21016,-1.43893 0.322767,-0.40126 0.458227,-0.83999 0.376887,-1.19413 -0.0812,-0.35413 -0.445227,-1.00698 -0.992794,-1.06243 -0.309507,-0.0314 -0.717317,0.0379 -1.076494,0.18796 -0.359157,0.15023 -0.672367,0.3862 -0.769914,0.68043 -0.0394,0.1191 0.0189,0.26431 0.134927,0.34706 0.058,0.0414 0.13237,0.0675 0.22417,0.0578 0.0918,-0.009 0.267997,-0.031 0.379547,-0.10873 0,0 -0.0961,0.009 -0.13386,-10e-4 -0.0786,-0.0205 -0.123937,-0.0809 -0.174407,-0.11693 -0.10095,-0.072 -0.0613,-0.0892 -0.0318,-0.17839 0.0896,-0.27023 0.078,-0.24075 0.414697,-0.3814 0.336697,-0.1405 0.502747,-0.0881 0.791247,-0.0589 0.522167,0.0528 0.374427,0.43084 0.452417,0.77115 0.0779,0.34031 -0.14331,0.63881 -0.453347,1.02432 -0.913547,1.13571 -1.653051,0.98239 -2.896667,0.67989 -1.660734,-0.40393 -1.359649,-1.26165 -0.100724,-2.63 1.586117,-1.72398 3.375268,-1.83112 5.261316,-1.26541 2.286124,0.68568 1.336764,2.23761 -0.570497,4.19935 -2.248915,2.31313 -4.33776,2.45462 -6.861137,1.62075 -2.914628,-0.96316 -2.080484,-2.98646 0.478469,-5.54032 2.908639,-2.90284 5.842361,-3.18965 9.000989,-2.08562 3.54451,1.23889 3.20772,3.62093 -0.004,6.76639 -3.566905,3.49286 -8.311764,4.44064 -12.104644,3.06549 0,0 -1.282636,-1.83468 -2.653549,-2.08682 -1.550255,-0.28513 -5.504271,0.79558 -5.504271,0.79558 3.043932,-0.28727 5.887894,0.65062 6.186328,1.32594 0.857149,0.58623 1.202783,0.77549 1.598059,0.96324 3.826943,1.38751 10.067156,-0.23901 13.667467,-3.76458 0.81092,-0.79409 1.41768,-1.62697 1.81524,-2.44859 z"
       id="path4485-5-2-4-9-0"
       inkscape:connector-curvature="0"
       sodipodi:nodetypes="csssssssscssccccaccsscssssssssscacccccc" />
    <path
       style="color:#000000;font-style:normal;font-variant:normal;font-weight:normal;font-stretch:normal;font-size:medium;line-height:normal;font-family:sans-serif;font-variant-ligatures:normal;font-variant-position:normal;font-variant-caps:normal;font-variant-numeric:normal;font-variant-alternates:normal;font-feature-settings:normal;text-indent:0;text-align:start;text-decoration:none;text-decoration-line:none;text-decoration-style:solid;text-decoration-color:#000000;letter-spacing:normal;word-spacing:normal;text-transform:none;writing-mode:lr-tb;direction:ltr;text-orientation:mixed;dominant-baseline:auto;baseline-shift:baseline;text-anchor:start;white-space:normal;shape-padding:0;clip-rule:nonzero;display:inline;overflow:visible;visibility:visible;opacity:1;isolation:auto;mix-blend-mode:normal;color-interpolation:sRGB;color-interpolation-filters:linearRGB;solid-color:#000000;solid-opacity:1;vector-effect:none;fill:#6f6969;fill-opacity:1;fill-rule:evenodd;stroke:none;stroke-width:0.08376415;stroke-linecap:butt;stroke-linejoin:miter;stroke-miterlimit:4;stroke-dasharray:none;stroke-dashoffset:0;stroke-opacity:1;color-rendering:auto;image-rendering:auto;shape-rendering:auto;text-rendering:auto;enable-background:accumulate"
       d="m 63.66411,265.80142 c 2.17402,-2.45847 2.147028,-5.41228 -0.648549,-7.36468 -3.32344,-2.32106 -9.729293,-2.42123 -14.074226,0.0149 -3.825186,2.14468 -4.764005,5.70587 -1.673162,7.78683 2.678283,1.80322 7.763688,1.86157 11.156302,-0.10834 2.880492,-1.67258 3.566078,-4.41392 1.108812,-5.97097 -2.030494,-1.28665 -5.802849,-1.30414 -8.239479,0.20199 -1.938538,1.19823 -2.373137,3.12691 -0.542449,4.15573 1.376095,0.77333 3.855222,0.75053 5.324144,-0.29808 0.502323,-0.35859 0.800618,-0.82105 0.821354,-1.25605 0.02089,-0.43493 -0.187926,-1.30613 -0.801873,-1.5473 -0.347011,-0.1364 -0.840044,-0.18839 -1.303095,-0.13147 -0.463083,0.0572 -0.900885,0.22809 -1.10867,0.53606 -0.08402,0.12469 -0.06372,0.31113 0.0434,0.44418 0.05354,0.0665 0.130912,0.12072 0.239987,0.13924 0.108848,0.0193 0.3193,0.0509 0.473182,-0.002 0,0 -0.11381,-0.0207 -0.154149,-0.0445 -0.08407,-0.0491 -0.116842,-0.13347 -0.163429,-0.19138 -0.0932,-0.11578 -0.04188,-0.12277 0.02103,-0.21615 0.190845,-0.28285 0.167918,-0.25258 0.601982,-0.30593 0.434016,-0.0532 0.608678,0.061 0.932155,0.18808 0.585493,0.22991 0.292666,0.61836 0.27254,1.03631 -0.02023,0.41792 -0.3721,0.6908 -0.854637,1.03534 -1.421749,1.01497 -2.225521,0.59874 -3.56275,-0.15278 -1.785756,-1.00356 -1.160745,-1.89593 0.734847,-3.0676 2.388256,-1.47617 4.487599,-1.02084 6.481026,0.24233 2.416283,1.53107 0.818518,3.01476 -2.017283,4.66139 -3.343787,1.94158 -5.800086,1.42889 -8.442193,-0.34997 -3.051767,-2.05466 -1.434424,-4.11959 2.345025,-6.23863 4.295914,-2.4086 7.774234,-1.79021 11.062003,0.506 3.689418,2.57667 2.529924,5.21655 -2.194256,7.80704 -5.246498,2.87645 -11.02874,2.43472 -14.96068,-0.37959 0,0 -0.886437,-2.53227 -2.386863,-3.26687 -1.696706,-0.83072 -6.609324,-0.86314 -6.609324,-0.86314 3.605629,0.65353 6.584026,2.65616 6.709879,3.53205 0.799435,0.95388 1.137048,1.28414 1.532434,1.62871 3.967249,2.83959 11.694767,2.98198 16.990392,0.0786 1.192765,-0.65395 2.162485,-1.41873 2.887145,-2.23822 z"
       id="path4485-5-2-4-9-0-6"
       inkscape:connector-curvature="0"
       sodipodi:nodetypes="csssssssscssccccaccsscssssssssscacccccc" />
    <path
       style="color:#000000;font-style:normal;font-variant:normal;font-weight:normal;font-stretch:normal;font-size:medium;line-height:normal;font-family:sans-serif;font-variant-ligatures:normal;font-variant-position:normal;font-variant-caps:normal;font-variant-numeric:normal;font-variant-alternates:normal;font-feature-settings:normal;text-indent:0;text-align:start;text-decoration:none;text-decoration-line:none;text-decoration-style:solid;text-decoration-color:#000000;letter-spacing:normal;word-spacing:normal;text-transform:none;writing-mode:lr-tb;direction:ltr;text-orientation:mixed;dominant-baseline:auto;baseline-shift:baseline;text-anchor:start;white-space:normal;shape-padding:0;clip-rule:nonzero;display:inline;overflow:visible;visibility:visible;opacity:1;isolation:auto;mix-blend-mode:normal;color-interpolation:sRGB;color-interpolation-filters:linearRGB;solid-color:#000000;solid-opacity:1;vector-effect:none;fill:#757575;fill-opacity:1;fill-rule:evenodd;stroke:none;stroke-width:0.09676351;stroke-linecap:butt;stroke-linejoin:miter;stroke-miterlimit:4;stroke-dasharray:none;stroke-dashoffset:0;stroke-opacity:1;color-rendering:auto;image-rendering:auto;shape-rendering:auto;text-rendering:auto;enable-background:accumulate"
       d="m 116.60821,238.87941 c 2.3209,2.99768 2.06735,6.40061 -1.3022,8.44069 -4.00584,2.42529 -11.39762,2.05836 -16.222731,-1.07701 -4.247913,-2.76029 -5.061946,-6.93609 -1.342324,-9.10214 3.223145,-1.87694 9.089665,-1.56124 12.852095,0.96499 3.19449,2.14493 3.77833,5.35661 0.82853,6.96642 -2.43751,1.33026 -6.78735,1.06635 -9.48272,-0.85331 -2.144395,-1.52721 -2.500133,-3.7832 -0.31238,-4.8313 1.64451,-0.78782 4.50055,-0.57484 6.11487,0.74454 0.55203,0.4512 0.86107,1.00674 0.85222,1.50975 -0.009,0.50293 -0.315,1.49145 -1.04088,1.72323 -0.41027,0.13114 -0.98253,0.15389 -1.51203,0.0534 -0.52949,-0.10075 -1.02129,-0.33077 -1.2376,-0.70142 -0.0875,-0.15006 -0.05,-0.36346 0.0835,-0.50874 0.0668,-0.0727 0.15997,-0.12932 0.28711,-0.14251 0.12705,-0.0134 0.3719,-0.0347 0.54525,0.0387 0,0 -0.13277,0.0157 -0.18099,0.0401 -0.10053,0.0503 -0.14473,0.145 -0.20277,0.20831 -0.11614,0.12648 -0.0576,0.13838 0.008,0.25077 0.19871,0.34041 0.17457,0.30379 0.67086,0.39799 0.49631,0.094 0.70627,-0.0241 1.08869,-0.14664 0.69227,-0.2209 0.38395,-0.69075 0.39221,-1.17405 0.008,-0.4833 -0.37691,-0.82434 -0.90719,-1.25785 -1.56248,-1.27705 -2.52035,-0.85776 -4.11841,-0.0922 -2.13408,1.02235 -1.48081,2.09807 0.61607,3.59144 2.64185,1.88149 5.09613,1.51469 7.48915,0.20873 2.90062,-1.58297 1.17055,-3.41359 -1.97434,-5.52526 -3.70831,-2.48992 -6.57837,-2.08389 -9.757977,-0.2323 -3.6726,2.13865 -1.963734,4.64077 2.233387,7.36807 4.77068,3.09997 8.8268,2.64906 12.78965,0.24974 4.44694,-2.6924 3.30915,-5.82278 -1.94206,-9.16455 -5.8312,-3.71087 -12.529861,-3.63709 -17.274268,-0.68905 0,0 -1.212519,2.85228 -2.997429,3.58609 -2.018409,0.8298 -7.683783,0.49724 -7.683783,0.49724 4.205539,-0.48183 7.789644,-2.56605 8.000676,-3.56624 0.993368,-1.03936 1.407415,-1.39463 1.889138,-1.76206 4.787013,-2.97453 13.705496,-2.55675 19.591296,1.18886 1.3257,0.84366 2.38593,1.79828 3.15959,2.7975 z"
       id="path4485-5-2-4-9-2"
       inkscape:connector-curvature="0"
       sodipodi:nodetypes="csssssssscssccccaccsscssssssssscacccccc" />
  </g>
</svg>
