<?xml version="1.0" encoding="UTF-8" standalone="no"?>
<!-- Created with Inkscape (http://www.inkscape.org/) -->

<svg
   xmlns:dc="http://purl.org/dc/elements/1.1/"
   xmlns:cc="http://creativecommons.org/ns#"
   xmlns:rdf="http://www.w3.org/1999/02/22-rdf-syntax-ns#"
   xmlns:svg="http://www.w3.org/2000/svg"
   xmlns="http://www.w3.org/2000/svg"
   xmlns:xlink="http://www.w3.org/1999/xlink"
   xmlns:sodipodi="http://sodipodi.sourceforge.net/DTD/sodipodi-0.dtd"
   xmlns:inkscape="http://www.inkscape.org/namespaces/inkscape"
   width="210mm"
   height="297mm"
   viewBox="0 0 210 297"
   version="1.1"
   id="svg9495"
   inkscape:version="0.92.1 r15371"
   sodipodi:docname="button_template.svg">
  <defs
     id="defs9489">
    <radialGradient
       inkscape:collect="always"
       xlink:href="#linearGradient1806"
       id="radialGradient1810"
       cx="113.87734"
       cy="192.72697"
       fx="113.87734"
       fy="192.72697"
       r="51.457184"
       gradientTransform="matrix(0.01457102,0.52884003,-2.005211,0.05524919,491.30326,43.890585)"
       gradientUnits="userSpaceOnUse" />
    <linearGradient
       inkscape:collect="always"
       id="linearGradient1806">
      <stop
         style="stop-color:#808080;stop-opacity:1"
         offset="0"
         id="stop1802" />
      <stop
         style="stop-color:#262a26;stop-opacity:0.12156863"
         offset="1"
         id="stop1804" />
    </linearGradient>
    <linearGradient
       inkscape:collect="always"
       xlink:href="#linearGradient1686"
       id="linearGradient1688"
       x1="106.58929"
       y1="10.872025"
       x2="-204.8631"
       y2="8.6041689"
       gradientUnits="userSpaceOnUse"
       gradientTransform="translate(46.761964,100.83345)" />
    <linearGradient
       inkscape:collect="always"
       id="linearGradient1686">
      <stop
         style="stop-color:#909490;stop-opacity:1"
         offset="0"
         id="stop1682" />
      <stop
         style="stop-color:#909490;stop-opacity:0"
         offset="1"
         id="stop1684" />
    </linearGradient>
    <filter
       inkscape:collect="always"
       style="color-interpolation-filters:sRGB"
       id="filter1402"
       x="-0.0080181286"
       width="1.0160363"
       y="-0.070564091"
       height="1.1411282">
      <feGaussianBlur
         inkscape:collect="always"
         stdDeviation="0.34310497"
         id="feGaussianBlur1404" />
    </filter>
  </defs>
  <sodipodi:namedview
     id="base"
     pagecolor="#ffffff"
     bordercolor="#666666"
     borderopacity="1.0"
     inkscape:pageopacity="0.0"
     inkscape:pageshadow="2"
     inkscape:zoom="0.35"
     inkscape:cx="152.94185"
     inkscape:cy="732.95329"
     inkscape:document-units="mm"
     inkscape:current-layer="layer1"
     showgrid="false"
     inkscape:window-width="1366"
     inkscape:window-height="745"
     inkscape:window-x="-8"
     inkscape:window-y="-8"
     inkscape:window-maximized="1" />
  <metadata
     id="metadata9492">
    <rdf:RDF>
      <cc:Work
         rdf:about="">
        <dc:format>image/svg+xml</dc:format>
        <dc:type
           rdf:resource="http://purl.org/dc/dcmitype/StillImage" />
        <dc:title></dc:title>
      </cc:Work>
    </rdf:RDF>
  </metadata>
  <g
     inkscape:label="Layer 1"
     inkscape:groupmode="layer"
     id="layer1">
    <path
       inkscape:connector-curvature="0"
       id="path820"
       d="m 55.639193,127.06201 87.660567,0.47323 h 3.87426 2.26785 c 0,0 5.03693,0.25967 5.13715,-4.00443 0.10023,-4.26411 -16.40365,-6.02972 -16.40365,-6.02972 l -38.386597,-1.63235 -33.675957,0.23319 -7.149459,1.13265 -5.011304,2.33193 -2.071338,4.19749 c 0,0 1.035669,3.39795 3.758478,3.29801 z"
       style="display:inline;opacity:0.75;fill:#656565;fill-opacity:1;stroke:#000000;stroke-width:0;stroke-linecap:butt;stroke-linejoin:miter;stroke-miterlimit:4;stroke-dasharray:none;stroke-opacity:1;filter:url(#filter1402)" />
    <path
       inkscape:connector-curvature="0"
       id="path1539"
       d="m 59.200054,106.024 90.808786,0.47247 c 0,0 3.96874,-0.0945 4.34671,3.40178 0.37798,3.49628 0.18899,11.71727 0.18899,11.71727 0,0 0.51972,3.68526 -3.02381,4.60659 -3.54351,0.92131 -19.77287,0.44885 -19.77287,0.44885 l -76.259005,-0.14485 c 0,0 -3.990065,0.0267 -4.01369,-3.65855 -0.02363,-3.68527 -0.02363,-12.96931 -0.02363,-12.96931 0,0 0.09449,-3.68527 3.897879,-3.75613 3.80339,-0.0709 3.850637,-0.11812 3.850637,-0.11812 z"
       style="display:inline;opacity:1;fill:url(#linearGradient1688);fill-opacity:1;stroke:#404040;stroke-width:0.26499999;stroke-linecap:butt;stroke-linejoin:miter;stroke-miterlimit:4;stroke-dasharray:none;stroke-opacity:0.89538461" />
    <path
       sodipodi:nodetypes="cscccccsssssssccccccccccccccccccsssssssccccccccc"
       inkscape:connector-curvature="0"
       id="path1661"
       d="m 51.572611,122.90213 c 0,0 1.015766,-6.21183 10.255933,-7.48062 9.240166,-1.26879 28.004811,-0.75188 28.004811,-0.75188 l 13.647015,0.14098 33.54891,1.08082 11.37251,0.46992 c 0,0 5.82841,-0.0469 6.01795,2.96052 0.0474,0.75187 0.0807,1.50851 0.0619,2.23376 -0.0188,0.72525 -0.023,1.4191 -0.18437,2.04541 -0.16134,0.6263 -0.42137,1.13495 -0.80151,1.58999 -0.38015,0.45504 -0.94723,0.8565 -1.62248,1.06796 -0.67524,0.21146 -1.25796,0.28542 -2.02686,0.38373 -0.76891,0.0983 -1.5468,0.13825 -2.23438,0.16359 -0.68759,0.0253 -1.29667,0.0715 -1.72795,0.064 -0.43129,-0.007 -0.68476,0.032 -0.68476,0.032 l -4.81924,0.0824 -4.6775,-0.0593 -4.71292,-0.11841 -4.72474,-0.0121 -4.72475,-0.0121 -4.72473,-0.0121 -4.72475,-0.0121 -4.72474,-0.0121 -3.35844,-0.0118 -3.35845,-0.0118 -3.358437,-0.0117 -3.35844,-0.0118 -3.358449,-0.0118 -3.358441,-0.0118 -3.358438,-0.0118 -3.358449,-0.0117 -24.181353,0.0357 c 0,0 -0.100617,-0.0117 -0.230186,-0.004 -0.12957,0.008 -0.494798,-0.003 -0.716917,-0.01 -0.22212,-0.006 -0.330659,-0.0267 -0.608308,-0.0675 -0.277649,-0.0409 -0.526561,-0.11644 -0.822721,-0.21386 -0.296159,-0.0974 -0.583459,-0.22849 -0.861108,-0.40395 -0.277649,-0.17546 -0.554506,-0.40121 -0.776626,-0.67618 -0.222119,-0.27497 -0.395407,-0.61983 -0.524976,-1.01579 -0.12957,-0.39595 -0.20361,-0.85777 -0.20361,-1.39618 v 0 0 0 0 10e-6 0 0 z"
       style="display:inline;opacity:1;fill:url(#radialGradient1810);fill-opacity:1;stroke:#000000;stroke-width:0;stroke-linecap:butt;stroke-linejoin:miter;stroke-miterlimit:4;stroke-dasharray:none;stroke-opacity:1" />
    <ellipse
       ry="1.2027128"
       rx="6.7485557"
       cy="108.08739"
       cx="62.405994"
       id="path1602"
       style="display:inline;opacity:0.85399996;fill:#fcfcfe;fill-opacity:1;stroke:#ffffff;stroke-width:0;stroke-miterlimit:4;stroke-dasharray:none;stroke-opacity:0.89538461" />
    <path
       sodipodi:nodetypes="ccsccsssssssssssssscccccccccccccccccccccccccccccccccccccccccccccccccccccccccccccccccc"
       inkscape:connector-curvature="0"
       id="path1672"
       d="m 154.44235,119.66017 0.0167,-1.23195 c 0,0 -0.45707,-2.13239 -4.78072,-2.66761 -4.32364,-0.53523 -38.84997,-1.89628 -38.84997,-1.89628 l -36.81297,-0.77665 c 0,0 -12.048378,-1.15435 -18.778665,0.98183 0,0 -0.301179,0.14747 -0.653542,0.22309 -0.03618,0.008 -0.412214,0.10113 -0.615988,0.12195 -0.198608,0.0203 -0.343082,-0.0116 -0.654616,-0.10987 -0.103645,-0.0327 -0.349489,-0.1421 -0.511095,-0.29995 -0.141627,-0.13833 -1.218078,-0.828 -1.218316,-0.62182 -5.82e-4,0.50292 -0.0044,0.50998 -0.0071,0.69831 -0.0018,0.12901 -0.0076,0.20862 0.0037,0.28997 0.04856,0.35172 0.0076,0.64591 0.01816,0.88006 0.04287,0.95142 0.0017,2.66192 0.0073,3.59315 0.0058,0.95598 -0.0089,1.872 -0.0044,2.49669 10e-4,0.13931 0.0088,0.3745 0.0062,0.49914 -0.0024,0.11743 0.0018,0.18504 0.0022,0.27961 3.86e-4,0.0881 0.0075,0.15554 -0.0017,0.20123 -0.0092,0.0457 0.0029,0.12201 0.0029,0.12201 l -0.0042,0.29486 0.09187,-0.32574 0.08352,-0.25056 0.09187,-0.28398 0.133635,-0.28397 0.133635,-0.29233 0.350791,-0.61806 0.208804,-0.34244 0.334087,-0.45101 0.359144,-0.43432 0.467721,-0.51783 0.392552,-0.3675 0.517835,-0.42596 0.751696,-0.54289 0.943795,-0.55124 0.501131,-0.25892 0.668174,-0.28397 0.801809,-0.30068 0.651469,-0.20045 0.851922,-0.24222 1.227769,-0.25891 1.386461,-0.16705 1.302938,-0.15869 1.453279,-0.12528 1.745604,-0.11693 1.353052,-0.0835 0.50113,-0.0418 2.388721,-0.10023 2.488949,-0.0668 2.990077,-0.0668 2.856443,-0.0334 4.10927,0.0334 2.80633,0.0334 2.655991,0.0334 4.192791,0.0668 5.47903,0.0668 5.078107,0.0334 6.38107,0.21716 4.52687,0.13363 7.43343,0.25057 6.81537,0.21716 8.30206,0.26727 4.77745,0.20045 5.82982,0.25056 1.21107,0.0418 1.11919,0.12529 0.39255,0.0585 0.47606,0.10857 0.48443,0.14199 0.46772,0.14199 0.54289,0.21715 0.52619,0.30068 0.28397,0.20881 0.13352,0.10711 0.22738,0.23328 0.11812,0.1506 0.12697,0.19195 0.0975,0.18603 0.0709,0.16832 0.0413,0.14764 0.0384,0.1506 0.0266,0.17128 0.0207,0.25395 0.0143,0.26673 z"
       style="display:inline;opacity:1;fill:#8a8a8a;fill-opacity:1;stroke:#000000;stroke-width:0;stroke-linecap:butt;stroke-linejoin:miter;stroke-miterlimit:4;stroke-dasharray:none;stroke-opacity:1" />
    <path
       inkscape:connector-curvature="0"
       id="path1734"
       d="m 54.959322,108.30369 c 0,0 -2.338727,-0.3071 -2.338727,1.51191 0,1.81901 2.267857,-0.47247 2.267857,-0.47247 0,0 0.817525,-0.83937 0.07087,-1.03944 z"
       style="display:inline;opacity:1;fill:#e6fce8;fill-opacity:1;stroke:#000000;stroke-width:0;stroke-linecap:butt;stroke-linejoin:miter;stroke-miterlimit:4;stroke-dasharray:none;stroke-opacity:1" />
  </g>
</svg>
