<?xml version="1.0" encoding="UTF-8" standalone="no"?>
<!-- Created with Inkscape (http://www.inkscape.org/) -->

<svg
   xmlns:dc="http://purl.org/dc/elements/1.1/"
   xmlns:cc="http://creativecommons.org/ns#"
   xmlns:rdf="http://www.w3.org/1999/02/22-rdf-syntax-ns#"
   xmlns:svg="http://www.w3.org/2000/svg"
   xmlns="http://www.w3.org/2000/svg"
   xmlns:sodipodi="http://sodipodi.sourceforge.net/DTD/sodipodi-0.dtd"
   xmlns:inkscape="http://www.inkscape.org/namespaces/inkscape"
   width="210mm"
   height="297mm"
   viewBox="0 0 210 297"
   version="1.1"
   id="svg5663"
   inkscape:version="0.92.2 (unknown)"
   sodipodi:docname="fire_design_1.svg">
  <defs
     id="defs5657" />
  <sodipodi:namedview
     id="base"
     pagecolor="#ffffff"
     bordercolor="#666666"
     borderopacity="1.0"
     inkscape:pageopacity="0.0"
     inkscape:pageshadow="2"
     inkscape:zoom="0.35"
     inkscape:cx="400"
     inkscape:cy="560"
     inkscape:document-units="mm"
     inkscape:current-layer="layer1"
     showgrid="false"
     inkscape:window-width="1309"
     inkscape:window-height="747"
     inkscape:window-x="57"
     inkscape:window-y="21"
     inkscape:window-maximized="1" />
  <metadata
     id="metadata5660">
    <rdf:RDF>
      <cc:Work
         rdf:about="">
        <dc:format>image/svg+xml</dc:format>
        <dc:type
           rdf:resource="http://purl.org/dc/dcmitype/StillImage" />
        <dc:title></dc:title>
      </cc:Work>
    </rdf:RDF>
  </metadata>
  <g
     inkscape:label="Layer 1"
     inkscape:groupmode="layer"
     id="layer1">
    <g
       transform="matrix(3.0687551,-0.0014011,0.00135058,2.9580945,-3180.6467,2744.9286)"
       style="opacity:0.91000001"
       id="g6367">
      <path
         style="fill:#bb2917;fill-opacity:1;stroke:#000000;stroke-width:0.88964623;stroke-linecap:butt;stroke-linejoin:miter;stroke-miterlimit:4;stroke-dasharray:none;stroke-opacity:1"
         d="m 1069.9003,-850.6017 c 0,0 -4.9375,-0.5625 -7.4375,-1.3125 -2.5,-0.75 -4.875,-2.3125 -6.75,-4.0625 -1.875,-1.75 -3.875,-4.9375 -4.4375,-6 -0.5625,-1.0625 -1.5625,-4.25 -1.6875,-5.125 -0.125,-0.875 -0.062,-0.0625 -0.062,-0.0625 0,0 1.625,1.6875 2,1.875 0.375,0.1875 1.125,0.375 1.3125,0.25 0.1875,-0.125 0.3125,-0.375 0.3125,-0.6875 0,-0.3125 -0.125,-0.875 -0.25,-1.125 -0.125,-0.25 -0.5625,-0.875 -0.625,-1.25 -0.062,-0.375 -0.375,-2.125 -0.1875,-4.75 0.1875,-2.625 1.0625,-5.75 2.0625,-7.75 1,-2 4.6151,-7.22344 4.6151,-7.23449 0,-0.0111 -0.3094,1.5026 0.1988,2.72899 0.5083,1.22639 2.044,2.65165 2.1213,2.69585 0.077,0.0442 -0.077,-1.17115 -0.088,-1.72358 -0.011,-0.55242 0.1325,-3.46924 0.2983,-4.25369 0.1657,-0.78444 0.7298,-3.65058 2.2923,-5.90058 1.5625,-2.25 2.9375,-4.3125 4.9375,-6 2,-1.6875 1.9375,-1.5625 5.3125,-3.4375 3.375,-1.875 8.0625,-2.9375 8.0625,-2.9375 0,0 -1.3125,2.375 -1.5,3.875 -0.1875,1.5 -0.625,2.6875 -0.4375,4.1875 0.1875,1.5 0.5,3.5 0.8125,4.0625 0.3125,0.5625 1.3125,3.5 1.5625,4.1875 0.25,0.6875 1.75,4 2,4.8125 0.25,0.8125 0.9375,3.375 1.0625,4.3125 0.125,0.9375 0.75,4.375 0.75,4.375 0,0 -0.062,-2 0.375,-3.5 0.4375,-1.5 1.5,-2.875 2.625,-3.3125 1.125,-0.4375 0.9375,-0.5 0.9375,-0.5 0,0 -0.4375,1.3125 -0.3125,2.1875 0.125,0.875 1,2.875 1.375,3.125 0.375,0.25 1.5625,1.1875 2.25,2.875 0.6875,1.6875 1.25,3.3125 1.0625,5.25 -0.1875,1.9375 -0.75,4.0625 -1.1875,4.625 -0.4375,0.5625 -2.625,3 -3.0625,3.375 -0.4375,0.375 -1.5,1.8125 -1.5,1.8125 l -0.125,0.625 c 0,0 0.1875,0.0625 0.4375,-0.0625 0.25,-0.125 2.25,-1.25 2.8125,-1.875 0.5625,-0.625 3.0625,-2.75 3.0625,-2.75 0,0 -1.125,3.6875 -4.125,6.5 -3,2.8125 -3.8125,3.5 -5.0625,4.1875 -1.25,0.6875 -3.75,1.8125 -4.75,2.125 -1,0.3125 -1.4375,0.4375 -3.1875,0.9375 -1.75,0.5 -7.125,1 -7.875,0.625 z"
         id="path6132"
         inkscape:connector-curvature="0" />
      <path
         style="opacity:0.66000001;fill:#fd8700;fill-opacity:1;stroke:#000000;stroke-width:0.40000001;stroke-linecap:butt;stroke-linejoin:miter;stroke-miterlimit:4;stroke-dasharray:none;stroke-opacity:1"
         d="m 1069.9011,-850.6017 -5.2149,-1.23743 -3.4471,-2.47488 -3.0936,-3.88908 c 0,0 -1.591,-4.77297 -1.9446,-5.92202 -0.3535,-1.14905 -1.0606,-6.89429 -0.7071,-8.22012 0.3536,-1.32582 0.442,-3.44714 0.9723,-5.03814 0.5303,-1.59099 2.1213,-3.97747 2.1213,-3.97747 0,0 0,2.74004 0.6187,3.44714 0.6187,0.70711 1.8562,2.20971 1.8562,2.20971 l 1.6794,1.32583 c 0,0 -1.0607,-1.67938 -1.0607,-2.47487 0,-0.7955 0.1768,-4.94975 0.7071,-6.0988 0.5303,-1.14905 1.3258,-6.54074 3.0052,-8.30851 1.6794,-1.76776 4.773,-5.3033 6.0104,-6.0104 1.2374,-0.70711 4.6846,-2.20971 4.6846,-2.20971 0,0 -0.6187,1.32582 -0.5303,2.20971 0.088,0.88388 -0.2652,2.91681 0.2651,3.44714 0.5304,0.53033 -0.7955,-0.88388 2.3865,4.94975 3.182,5.83363 5.6569,9.89949 6.0988,11.93243 0.442,2.03293 1.0607,6.89429 1.0607,6.89429 l 0.5303,-3.09359 c 0,0 0.3536,-0.7955 1.3258,-2.12132 0.9723,-1.32583 3.2704,-2.47488 3.2704,-2.47488 0,0 -0.7071,1.85616 -0.7071,3.62392 0,1.76777 0.5303,3.88909 0.4419,5.12653 -0.088,1.23743 -0.1767,4.59619 -1.0606,6.62912 -0.8839,2.03294 -1.7678,3.27037 -2.5633,4.33103 -0.7955,1.06066 -2.4749,3.18198 -3.5355,4.06587 -1.0607,0.88388 -3.8891,2.65165 -4.8614,2.91681 -0.9723,0.26517 -6.6291,0.97227 -8.3085,0.44194 z"
         id="path6134"
         inkscape:connector-curvature="0" />
      <path
         style="opacity:0.66000001;fill:#fee215;fill-opacity:1;stroke:#000000;stroke-width:0.30000001;stroke-linecap:butt;stroke-linejoin:miter;stroke-miterlimit:4;stroke-dasharray:none;stroke-opacity:1"
         d="m 1069.9011,-850.6017 c 0,0 -3.8891,-0.79549 -4.8614,-1.59099 -0.9722,-0.79549 -2.6516,-3.09359 -3.182,-4.41942 -0.5303,-1.32582 -1.3258,-3.27037 -1.4142,-5.39169 -0.088,-2.12132 0.088,-4.86136 0.442,-6.36396 0.3535,-1.5026 0.5303,-3.53553 1.0606,-4.59619 0.5304,-1.06066 1.6794,-4.24264 1.6794,-4.24264 0,0 0.088,3.09359 0.5303,3.97747 0.442,0.88389 0.442,1.94455 1.2375,2.20971 0.7955,0.26517 0.7071,0.53033 1.0606,0.17678 0.3536,-0.35355 0.442,-0.26517 0.5304,-0.7955 0.088,-0.53033 0,-0.97227 -0.2652,-1.76776 -0.2652,-0.7955 -0.9723,-3.62393 -0.9723,-4.33103 0,-0.70711 -0.4419,-4.15425 -0.088,-5.3033 0.3536,-1.14905 0.6188,-3.18198 1.1491,-4.33103 0.5303,-1.14905 1.6794,-1.94455 2.2097,-2.65165 0.5303,-0.70711 4.0659,-3.71231 4.0659,-3.71231 0,0 -1.1491,3.88908 -1.2375,4.68458 -0.088,0.79549 0.442,2.91682 0.8839,3.88909 0.442,0.97227 1.7678,3.62392 2.2981,4.15425 0.5303,0.53033 1.591,2.03293 2.2981,2.91681 0.7071,0.88389 2.6517,3.97748 2.8284,4.33103 0.1768,0.35356 1.7678,2.91682 1.9446,3.53554 0.1768,0.61872 1.0606,2.29809 0.8839,3.88908 -0.1768,1.591 0.088,3.35876 -0.1768,4.5962 -0.2652,1.23744 -0.442,3.62392 -0.9723,5.03813 -0.5303,1.41422 -0.7955,2.82843 -1.9445,3.88909 -1.1491,1.06066 -1.1491,1.67938 -2.033,1.85616 -0.8838,0.17677 -5.5684,0.7071 -7.9549,0.35355 z"
         id="path6136"
         inkscape:connector-curvature="0" />
      <path
         sodipodi:nodetypes="csccsscssscsssssscsssssssssssc"
         style="opacity:0.66000001;fill:#fefb8e;fill-opacity:1;stroke:#000000;stroke-width:0.40000001;stroke-linecap:butt;stroke-linejoin:miter;stroke-miterlimit:4;stroke-dasharray:none;stroke-opacity:1"
         d="m 1069.9015,-850.6017 c 0,0 -1.5625,-0.25 -2.5625,-1.0625 -1,-0.8125 -2.0625,-2.1875 -2.0625,-2.1875 0,0 -0.9375,-1.5625 -1,-2.0625 -0.062,-0.5 -0.6875,-2.875 -0.5,-3.5625 0.1875,-0.6875 0.125,-2.875 0.875,-3.8125 0.75,-0.9375 1.375,-1.8125 1.375,-1.8125 0,0 0.25,1.6875 0.6875,2.0625 0.4375,0.375 0.6875,1.0625 1.1875,1.375 0.5,0.3125 0.875,0.5625 1.0625,0.5625 0.1875,0 0.625,0.125 0.625,0.125 0,0 0.375,-0.0625 0.375,-0.3125 0,-0.25 0.125,-0.5 -0.1875,-0.875 -0.3125,-0.375 -0.5,-0.4375 -0.75,-1.3125 -0.25,-0.875 -1.375,-3.3125 -1.25,-3.875 0.125,-0.5625 0.1875,-4.3125 0.1875,-4.75 0,-0.4375 0.5,-4.5625 1.0625,-5.5625 0.5625,-1 2.625,-3.625 2.625,-3.625 0,0 -0.3125,3.1875 -0.1875,4.0625 0.125,0.875 0.5,2.6875 1,3.375 0.5,0.6875 1.75,2.8125 2.125,3.25 0.375,0.4375 1.4375,1.5 2.0625,2.25 0.625,0.75 1.75,1.5 2.3125,2.5 0.5625,1 1.4375,2.1875 1.75,3.25 0.3125,1.0625 0.625,2.1875 0.625,3.0625 0,0.875 0,1.875 -0.3125,2.8125 -0.3125,0.9375 -0.625,2.1875 -0.875,2.6875 -0.25,0.5 -0.1845,1.70267 -1.0294,2.14569 -1.161,0.60871 -1.5371,0.95078 -2.4699,1.1062 -1.1499,0.19159 -5.4382,0.56061 -6.7507,0.18561 z"
         id="path6138"
         inkscape:connector-curvature="0" />
    </g>
  </g>
</svg>
