<?xml version="1.0" encoding="UTF-8" standalone="no"?>
<!-- Created with Inkscape (http://www.inkscape.org/) -->

<svg
   xmlns:dc="http://purl.org/dc/elements/1.1/"
   xmlns:cc="http://creativecommons.org/ns#"
   xmlns:rdf="http://www.w3.org/1999/02/22-rdf-syntax-ns#"
   xmlns:svg="http://www.w3.org/2000/svg"
   xmlns="http://www.w3.org/2000/svg"
   xmlns:xlink="http://www.w3.org/1999/xlink"
   xmlns:sodipodi="http://sodipodi.sourceforge.net/DTD/sodipodi-0.dtd"
   xmlns:inkscape="http://www.inkscape.org/namespaces/inkscape"
   width="210mm"
   height="297mm"
   viewBox="0 0 210 297"
   version="1.1"
   id="svg5965"
   inkscape:version="0.92.2 (unknown)"
   sodipodi:docname="flame_slime.svg">
  <defs
     id="defs5959">
    <linearGradient
       inkscape:collect="always"
       id="linearGradient6657-4">
      <stop
         style="stop-color:#ffff00;stop-opacity:1;"
         offset="0"
         id="stop6653" />
      <stop
         style="stop-color:#f52428;stop-opacity:0.93373495"
         offset="1"
         id="stop6655" />
    </linearGradient>
    <inkscape:path-effect
       effect="bspline"
       id="path-effect6616"
       is_visible="true"
       weight="33.333333"
       steps="2"
       helper_size="0"
       apply_no_weight="true"
       apply_with_weight="true"
       only_selected="false" />
    <inkscape:path-effect
       effect="bspline"
       id="path-effect6592"
       is_visible="true"
       weight="33.333333"
       steps="2"
       helper_size="0"
       apply_no_weight="true"
       apply_with_weight="true"
       only_selected="false" />
    <inkscape:path-effect
       effect="bspline"
       id="path-effect6592-1"
       is_visible="true"
       weight="33.333333"
       steps="2"
       helper_size="0"
       apply_no_weight="true"
       apply_with_weight="true"
       only_selected="false" />
    <inkscape:path-effect
       effect="bspline"
       id="path-effect6616-5"
       is_visible="true"
       weight="33.333333"
       steps="2"
       helper_size="0"
       apply_no_weight="true"
       apply_with_weight="true"
       only_selected="false" />
    <linearGradient
       inkscape:collect="always"
       xlink:href="#linearGradient6657-4"
       id="linearGradient6666"
       gradientUnits="userSpaceOnUse"
       x1="972.22998"
       y1="-894.90973"
       x2="1001.9993"
       y2="-936.13226" />
    <linearGradient
       inkscape:collect="always"
       xlink:href="#linearGradient6657-4"
       id="linearGradient6674"
       x1="959.90472"
       y1="-894.1908"
       x2="917.30353"
       y2="-926.35815"
       gradientUnits="userSpaceOnUse"
       gradientTransform="translate(215.82468,24.063025)" />
    <linearGradient
       inkscape:collect="always"
       xlink:href="#linearGradient6657-4"
       id="linearGradient6686"
       gradientUnits="userSpaceOnUse"
       x1="972.22998"
       y1="-894.90973"
       x2="1001.9993"
       y2="-936.13226"
       gradientTransform="translate(215.82468,24.063025)" />
  </defs>
  <sodipodi:namedview
     id="base"
     pagecolor="#ffffff"
     bordercolor="#666666"
     borderopacity="1.0"
     inkscape:pageopacity="0.0"
     inkscape:pageshadow="2"
     inkscape:zoom="0.54163861"
     inkscape:cx="318.84845"
     inkscape:cy="587.27162"
     inkscape:document-units="mm"
     inkscape:current-layer="g6684"
     showgrid="false"
     inkscape:snap-global="false"
     inkscape:window-width="1309"
     inkscape:window-height="747"
     inkscape:window-x="57"
     inkscape:window-y="21"
     inkscape:window-maximized="1"
     showguides="false" />
  <metadata
     id="metadata5962">
    <rdf:RDF>
      <cc:Work
         rdf:about="">
        <dc:format>image/svg+xml</dc:format>
        <dc:type
           rdf:resource="http://purl.org/dc/dcmitype/StillImage" />
        <dc:title></dc:title>
      </cc:Work>
    </rdf:RDF>
  </metadata>
  <g
     inkscape:label="Layer 1"
     inkscape:groupmode="layer"
     id="layer1">
    <g
       id="layer1-5"
       inkscape:label="Layer 1"
       transform="translate(-5.981,3.0954782)">
      <g
         id="g6367"
         style="opacity:0.91000001"
         transform="matrix(3.0687551,-0.0014011,0.00135058,2.9580945,-3180.6467,2744.9286)">
        <path
           inkscape:connector-curvature="0"
           id="path6132"
           d="m 1070.1173,-853.10384 c 0,0 -4.9375,-0.5625 -7.4375,-1.3125 -2.5,-0.75 -4.875,-2.3125 -6.75,-4.0625 -1.875,-1.75 -3.875,-4.9375 -4.4375,-6 -0.5625,-1.0625 -1.5625,-4.25 -1.6875,-5.125 -0.125,-0.875 -0.062,-0.0625 -0.062,-0.0625 0,0 1.625,1.6875 2,1.875 0.375,0.1875 1.125,0.375 1.3125,0.25 0.1875,-0.125 0.3125,-0.375 0.3125,-0.6875 0,-0.3125 -0.125,-0.875 -0.25,-1.125 -0.125,-0.25 -0.5625,-0.875 -0.625,-1.25 -0.062,-0.375 -0.375,-2.125 -0.1875,-4.75 0.1875,-2.625 1.0625,-5.75 2.0625,-7.75 1,-2 4.6151,-7.22344 4.6151,-7.23449 0,-0.0111 -0.3094,1.5026 0.1988,2.72899 0.5083,1.22639 2.044,2.65165 2.1213,2.69585 0.077,0.0442 -0.077,-1.17115 -0.088,-1.72358 -0.011,-0.55242 0.1325,-3.46924 0.2983,-4.25369 0.1657,-0.78444 0.7298,-3.65058 2.2923,-5.90058 1.5625,-2.25 2.9375,-4.3125 4.9375,-6 2,-1.6875 1.9375,-1.5625 5.3125,-3.4375 3.375,-1.875 8.0625,-2.9375 8.0625,-2.9375 0,0 -1.3125,2.375 -1.5,3.875 -0.1875,1.5 -0.625,2.6875 -0.4375,4.1875 0.1875,1.5 0.5,3.5 0.8125,4.0625 0.3125,0.5625 1.3125,3.5 1.5625,4.1875 0.25,0.6875 1.75,4 2,4.8125 0.25,0.8125 0.9375,3.375 1.0625,4.3125 0.125,0.9375 0.75,4.375 0.75,4.375 0,0 -0.062,-2 0.375,-3.5 0.4375,-1.5 1.5,-2.875 2.625,-3.3125 1.125,-0.4375 0.9375,-0.5 0.9375,-0.5 0,0 -0.4375,1.3125 -0.3125,2.1875 0.125,0.875 1,2.875 1.375,3.125 0.375,0.25 1.5625,1.1875 2.25,2.875 0.6875,1.6875 1.25,3.3125 1.0625,5.25 -0.1875,1.9375 -0.75,4.0625 -1.1875,4.625 -0.4375,0.5625 -2.625,3 -3.0625,3.375 -0.4375,0.375 -1.5,1.8125 -1.5,1.8125 l -0.125,0.625 c 0,0 0.1875,0.0625 0.4375,-0.0625 0.25,-0.125 2.25,-1.25 2.8125,-1.875 0.5625,-0.625 3.0625,-2.75 3.0625,-2.75 0,0 -1.125,3.6875 -4.125,6.5 -3,2.8125 -3.8125,3.5 -5.0625,4.1875 -1.25,0.6875 -3.75,1.8125 -4.75,2.125 -1,0.3125 -1.4375,0.4375 -3.1875,0.9375 -1.75,0.5 -7.125,1 -7.875,0.625 z"
           style="fill:#bb2917;fill-opacity:1;stroke:#5d140b;stroke-width:0.88950342;stroke-linecap:butt;stroke-linejoin:miter;stroke-miterlimit:4;stroke-dasharray:none;stroke-opacity:1" />
        <path
           style="opacity:0.91000001;fill:none;stroke:#601b13;stroke-width:0.66380852;stroke-linecap:butt;stroke-linejoin:miter;stroke-miterlimit:4;stroke-dasharray:none;stroke-opacity:1"
           d="m 1066.4214,-863.3446 c 0,0 2.0783,-4.73611 2.2501,-6.21337 0.1718,-1.47725 0.3891,-2.53113 0.3891,-2.53113 l 1.5706,4.61919 1.2508,-2.20212 0.8351,1.61799 c 0,0 2.5118,-1.23347 4.1172,-0.90475 1.6054,0.32873 1.678,0.2346 1.678,0.2346 l 0.5981,-1.35509 c 0,0 0.5444,0.45143 0.6171,1.12885 0.073,0.6774 0.3723,1.15715 0.3723,1.15715 l 0.9875,-3.1147 c 0,0 1.561,2.99145 1.607,4.95789"
           id="path6738-8"
           inkscape:connector-curvature="0"
           sodipodi:nodetypes="ccccccccccccc" />
        <path
           style="fill:#d6390d;fill-opacity:1;stroke:none;stroke-width:0.08781634px;stroke-linecap:butt;stroke-linejoin:miter;stroke-opacity:1"
           d="m 1081.39,-908.6042 c 0,0 -5.9808,2.98587 -7.7923,5.04222 -1.8115,2.05635 -4.572,5.54335 -5.0902,7.42143 -0.5181,1.87807 -1.8128,5.00799 -1.8998,6.88627 -0.087,1.87828 -0.864,4.11401 -0.5198,5.63472 0.3442,1.52071 1.9802,6.35145 1.9802,6.35145 0,0 -2.0692,-0.0904 -3.362,-1.16436 -1.2928,-1.07394 -3.1021,-3.937 -3.1019,-4.29478 10e-5,-0.35777 -0.9489,1.07288 -1.1222,2.95112 -0.1732,1.87824 -0.8641,4.29289 -0.4336,5.7242 0.4305,1.4313 0.6018,4.02525 2.4113,6.35165 1.8096,2.3264 2.8437,3.40021 2.8437,3.40021 0,0 -3.6214,0.71384 -5.4318,0.0869 -1.8103,-0.62697 -3.017,-1.43253 -3.017,-1.43253 0,0 1.9816,3.22091 3.3605,4.74211 1.3788,1.5212 2.6716,2.59514 3.8783,3.4007 1.2067,0.80557 2.8443,2.05856 3.3615,2.32714 0.5172,0.26857 2.7582,1.70073 2.7582,1.70073 0,0 -7.5866,-1.34525 -8.1038,-1.61382 -0.5172,-0.26858 -4.2237,-2.2381 -5.8612,-3.75942 -1.6375,-1.52132 -3.8777,-4.74236 -4.3945,-5.90538 -0.5168,-1.16301 -1.3779,-3.66785 -1.3779,-3.66785 0,0 0.9479,1.16322 1.81,1.25308 0.8622,0.0898 1.4249,-0.15745 1.425,-0.51522 2e-4,-0.35778 0.2138,-0.82567 -0.045,-1.54134 -0.2583,-0.71567 -0.4312,0.35757 -0.7752,-1.61036 -0.344,-1.96792 -0.1448,-5.34592 0.2007,-6.95574 0.3456,-1.60983 0.6398,-3.33982 1.7616,-5.57538 1.1219,-2.23557 2.7008,-4.19266 3.2184,-4.72908 0.5175,-0.53642 0.5177,-0.8942 0.5177,-0.8942 0,0 -0.2587,-1.2e-4 0.4304,1.52075 0.6891,1.52088 1.206,2.32611 1.637,2.50521 0.4311,0.17909 1.1207,0.44775 1.1207,0.44775 0,0 -0.086,-0.35782 -0.086,-1.16281 3e-4,-0.805 0.1081,-4.27249 0.1081,-4.27249 0,0 0.4989,-3.68773 1.6205,-5.29719 1.1215,-1.60945 3.365,-5.72281 5.3486,-7.15297 1.9837,-1.43016 4.6574,-3.66499 6.4683,-4.2008 1.8108,-0.5358 6.1833,-1.97026 6.1833,-1.97026 z"
           id="path6736"
           inkscape:connector-curvature="0"
           sodipodi:nodetypes="cscscccccccccccccccscccsscccsccccccccccc" />
        <g
           id="g6684"
           transform="matrix(0.30619079,0,0,0.30619079,713.4724,-612.44651)">
          <path
             inkscape:connector-curvature="0"
             id="path6573"
             d="m 1148.6022,-884.24517 c 0,0 -6.6073,8.07101 -6.9927,17.2859 -0.3854,9.21487 -0.3854,9.21487 -0.3854,9.21487 l 34.7178,0.48033 0.4188,-8.19369 z"
             style="opacity:0.5;fill:#ffffff;fill-opacity:1;stroke:#000000;stroke-width:1.62596786;stroke-linecap:butt;stroke-linejoin:miter;stroke-miterlimit:4;stroke-dasharray:none;stroke-opacity:1" />
          <path
             inkscape:connector-curvature="0"
             id="path6573-6"
             d="m 1206.098,-884.45289 c 0,0 6.2319,4.67891 7.7742,11.38936 1.5422,6.71044 1.5422,6.71044 1.5422,6.71044 l -26.9633,6.99042 -1.4306,-5.95225 z"
             style="opacity:0.5;fill:#ffffff;fill-opacity:1;stroke:#000000;stroke-width:1.62596786;stroke-linecap:butt;stroke-linejoin:miter;stroke-miterlimit:4;stroke-dasharray:none;stroke-opacity:1" />
          <path
             inkscape:original-d="m 1155.877,-878.41936 c -1.304,2.45145 -2.6081,4.90299 -3.9122,7.35461 0.2584,2.21899 0.6268,4.56187 0.9401,6.84295 2.0327,0.98078 4.0651,1.96158 6.0976,2.94251 1.7146,-1.18105 3.4291,-2.36207 5.1435,-3.54296 0.5287,-2.29768 1.0436,-4.61103 1.5652,-6.91642"
             inkscape:path-effect="#path-effect6592"
             inkscape:connector-curvature="0"
             id="path6590"
             d="m 1155.877,-878.41936 c -1.304,2.45144 -2.6081,4.90299 -3.1082,7.23517 -0.5,2.33217 -0.1773,4.68132 0.9957,6.3123 1.173,1.63098 3.2055,2.61176 5.079,2.51165 1.8736,-0.1001 3.5881,-1.2811 4.7055,-3.02134 1.1174,-1.74023 1.6405,-4.05172 2.1622,-6.35709"
             style="fill:#0000ff;stroke:#000000;stroke-width:0.08781634px;stroke-linecap:butt;stroke-linejoin:miter;stroke-opacity:1" />
          <path
             inkscape:original-d="m 1203.5534,-880.75428 c 1.3333,1.90144 2.6662,3.8032 3.9989,5.70529 -0.01,1.84555 -0.017,3.69157 -0.026,5.53745 -1.4625,1.08349 -2.9249,2.16696 -4.3872,3.25051 -1.4693,-0.73408 -2.9387,-1.46813 -4.4079,-2.20211 -0.6799,-1.81295 -1.351,-3.64064 -2.0264,-5.46088"
             inkscape:path-effect="#path-effect6592-1"
             inkscape:connector-curvature="0"
             id="path6590-1"
             d="m 1203.5534,-880.75428 c 1.3329,1.9017 2.6659,3.80343 3.3281,5.67714 0.6621,1.87371 0.6535,3.71972 -0.082,5.18443 -0.7356,1.46472 -2.1979,2.54821 -3.6638,2.72292 -1.4658,0.17471 -2.9352,-0.55936 -4.0066,-1.834 -1.0714,-1.27463 -1.7488,-3.10001 -2.4242,-4.92023"
             style="opacity:1;fill:#0000ff;stroke:#000000;stroke-width:0.07096123px;stroke-linecap:butt;stroke-linejoin:miter;stroke-opacity:1"
             sodipodi:nodetypes="cccccc" />
          <path
             inkscape:original-d="m 1159.8269,-875.73724 c -0.3427,0.77175 -0.6856,1.54358 -1.0286,2.3155 -0.2208,1.21776 -0.4417,2.43527 -0.6627,3.65303 0.4319,0.67485 0.8637,1.34968 1.2954,2.02464 0.5266,0.0866 1.0532,0.17341 1.5796,0.26025 0.6489,-0.37422 1.2978,-0.74846 1.9466,-1.12256 0.4836,-0.70509 0.9674,-1.41031 1.4509,-2.11533 0.024,-0.6215 0.049,-1.24309 0.073,-1.86449"
             inkscape:path-effect="#path-effect6616"
             inkscape:connector-curvature="0"
             id="path6614"
             d="m 1159.8269,-875.73724 c -0.3428,0.7717 -0.6857,1.54354 -0.9676,2.53839 -0.2819,0.99485 -0.5028,2.21237 -0.3973,3.1587 0.1054,0.94634 0.5372,1.62119 1.0164,2.00201 0.4792,0.38083 1.0058,0.46759 1.5934,0.32385 0.5877,-0.14374 1.2366,-0.51795 1.8028,-1.05756 0.5662,-0.53961 1.05,-1.24487 1.3039,-1.90811 0.2539,-0.66324 0.2783,-1.28485 0.3026,-1.90624"
             style="fill:#00ffff;stroke:#000000;stroke-width:0.08781634px;stroke-linecap:butt;stroke-linejoin:miter;stroke-opacity:1" />
          <path
             inkscape:original-d="m 1202.9413,-880.14036 c 0.3695,0.50424 0.739,1.00853 1.1087,1.51285 0.3449,0.84546 0.6898,1.69078 1.0348,2.53624 -0.2215,0.55484 -0.4429,1.10968 -0.6642,1.6646 -0.3791,0.14457 -0.7581,0.28928 -1.1371,0.434 -0.5384,-0.16935 -1.0769,-0.3387 -1.6152,-0.50796 -0.4644,-0.43415 -0.929,-0.86836 -1.3934,-1.30245 -0.1106,-0.44517 -0.2206,-0.89057 -0.3305,-1.33583"
             inkscape:path-effect="#path-effect6616-5"
             inkscape:connector-curvature="0"
             id="path6614-9"
             d="m 1202.9413,-880.14036 c 0.3695,0.50422 0.7391,1.00848 1.0964,1.68339 0.3572,0.6749 0.7021,1.52022 0.7639,2.2204 0.062,0.70018 -0.1596,1.25502 -0.4598,1.6048 -0.3003,0.34978 -0.6793,0.49444 -1.138,0.48211 -0.4587,-0.0123 -0.9972,-0.18168 -1.4986,-0.48339 -0.5013,-0.3017 -0.9659,-0.73594 -1.2532,-1.17562 -0.2873,-0.43969 -0.3975,-0.88504 -0.5076,-1.33024"
             style="opacity:0.91000001;fill:#00ffff;stroke:#000000;stroke-width:0.06576609px;stroke-linecap:butt;stroke-linejoin:miter;stroke-opacity:1"
             sodipodi:nodetypes="cccccccc" />
          <path
             sodipodi:nodetypes="caasaaccacccaaaaaaaaazzaaaaaaac"
             inkscape:connector-curvature="0"
             id="path6636"
             d="m 1144.0209,-897.85547 c -0.782,0.90392 -1.1042,2.17338 -1.3644,3.3576 -0.2621,1.19326 -0.4811,2.48546 -0.174,3.66712 0.4095,1.57553 1.363,3.74736 2.5699,4.10571 1.2069,0.35835 3.2301,0.92138 4.7561,1.62216 1.807,0.82982 3.4759,1.95598 5.157,3.03362 2.5021,1.60397 4.8797,3.40814 7.3263,5.10176 5.6309,4.01316 8.0868,6.11848 13.1876,8.77175 1.0527,0.23741 1.9876,0.5206 2.8021,0.046 0.9154,-0.53335 1.413,-1.62953 1.5962,-2.81673 0.3084,-1.35778 -0.6593,-5.91628 -2.095,-5.67076 1.722,5.94481 -0.7924,5.25194 -4.7002,2.81526 -2.9236,-1.80977 -5.7737,-3.78987 -8.3605,-6.08614 -1.7296,-1.53539 -3.386,-3.20192 -4.7397,-5.10054 -1.0558,-1.48071 -1.8002,-3.17888 -2.5845,-4.8312 -0.4151,-0.87453 -0.1839,-2.77305 -1.1196,-2.68384 -1.0275,0.098 -0.6177,2.0625 -0.6912,3.13021 -0.025,0.3581 0.3909,0.90411 0.086,1.07336 -1.1004,0.61025 -2.2218,-1.35083 -2.9303,-2.41637 -0.8051,-1.21081 -1.1672,-2.73921 -1.2914,-4.20447 -0.038,-0.44944 0.5564,-1.12873 0.173,-1.34158 -0.8439,-0.46841 -1.7342,1.11162 -2.1563,1.96675 -0.4221,0.85513 -0.3503,2.05974 -0.2599,2.77263 0.09,0.71289 0.7966,1.01273 0.5167,1.43135 -0.098,0.14698 -0.3564,0.0639 -0.5174,-2.5e-4 -1.0827,-0.43163 -2.0401,-1.35417 -2.5854,-2.41621 -0.5733,-1.11639 -0.6576,-2.50056 -0.5157,-3.75688 0.1006,-0.89082 0.5855,-1.69044 0.9495,-2.50398 0.1787,-0.39929 0.906,-0.85316 0.604,-1.16248 -0.9871,-1.01131 -2.712,1.02499 -3.6386,2.0961 z"
             style="fill:url(#linearGradient6674);fill-opacity:1;stroke:#5d140b;stroke-width:1.08397853;stroke-linecap:butt;stroke-linejoin:miter;stroke-miterlimit:4;stroke-dasharray:none;stroke-opacity:0.90980392" />
          <path
             sodipodi:nodetypes="caasaaccacccaaaaaaaaaaaaaaaaaac"
             inkscape:connector-curvature="0"
             id="path6636-8"
             d="m 1207.1907,-897.36403 c 0.7324,0.59992 1.1687,1.56868 1.5449,2.47897 0.3789,0.91725 0.7399,1.92109 0.6827,2.92158 -0.076,1.33402 -0.4786,3.23622 -1.3462,3.72082 -0.8675,0.4846 -2.3275,1.26664 -3.3872,2.07862 -1.255,0.96148 -2.3601,2.1389 -3.4817,3.2792 -1.6694,1.69734 -3.2138,3.53543 -4.8275,5.29582 -3.6965,4.14432 -5.2555,6.2374 -8.7513,9.20154 -0.768,0.36221 -1.4391,0.7421 -2.132,0.49279 -0.7788,-0.2801 -1.323,-1.08095 -1.6409,-2.00614 -0.439,-1.04207 -0.013,-7.21197 1.1409,-6.57955 -0.4232,5.06226 0.8277,6.57781 3.4452,3.98199 1.9603,-1.93142 3.9324,-4.57082 5.6422,-7.06082 1.063,-1.54817 2.1045,-3.12651 2.8532,-4.87403 0.5839,-1.36286 0.8975,-2.85003 1.2484,-4.30675 0.1857,-0.77102 -0.2754,-2.26063 0.4522,-2.34109 0.7991,-0.0884 0.7808,1.55861 0.9969,2.4056 0.073,0.28397 -0.1628,0.79086 0.095,0.87742 0.9315,0.31187 1.4936,-1.44809 1.8746,-2.42049 0.433,-1.10499 0.4803,-2.39337 0.3554,-3.59226 -0.038,-0.36774 -0.5941,-0.81744 -0.3332,-1.05107 0.5739,-0.51407 1.4754,0.59138 1.9408,1.23133 0.4354,0.59848 0.5652,1.4285 0.6141,2.18808 0.027,0.41675 -0.4562,0.94426 -0.1797,1.23547 0.097,0.10232 0.2816,-0.006 0.3948,-0.0844 0.7618,-0.52337 1.3543,-1.42122 1.6113,-2.36426 0.2702,-0.9913 0.1271,-2.11847 -0.1702,-3.10598 -0.2104,-0.70022 -0.7004,-1.2646 -1.1002,-1.85981 -0.1963,-0.2921 -0.8195,-0.5389 -0.6354,-0.83684 0.6018,-0.97409 2.2238,0.38335 3.0918,1.09422 z"
             style="opacity:0.91000001;fill:url(#linearGradient6686);fill-opacity:1;stroke:#5d140b;stroke-width:1.08397853;stroke-linecap:butt;stroke-linejoin:miter;stroke-miterlimit:4;stroke-dasharray:none;stroke-opacity:0.90980392" />
        </g>
        <path
           style="fill:none;stroke:#5d140b;stroke-width:0.66380852;stroke-linecap:butt;stroke-linejoin:miter;stroke-miterlimit:4;stroke-dasharray:none;stroke-opacity:1"
           d="m 1066.8914,-863.83027 c 0,0 2.0783,-4.73611 2.2501,-6.21337 0.1718,-1.47725 0.3891,-2.53113 0.3891,-2.53113 l 1.5706,4.61919 1.2508,-2.20212 0.8351,1.61799 c 0,0 2.5118,-1.23347 4.1172,-0.90475 1.6054,0.32873 1.678,0.2346 1.678,0.2346 l 0.5981,-1.35509 c 0,0 0.5444,0.45143 0.6171,1.12885 0.073,0.6774 0.3723,1.15715 0.3723,1.15715 l 0.9875,-3.1147 c 0,0 1.561,2.99145 1.607,4.95789"
           id="path6738"
           inkscape:connector-curvature="0"
           sodipodi:nodetypes="ccccccccccccc" />
        <path
           style="fill:none;stroke:#5d140b;stroke-width:0.66380852;stroke-linecap:butt;stroke-linejoin:miter;stroke-miterlimit:4;stroke-dasharray:none;stroke-opacity:0.90980392"
           d="m 1075.1332,-866.26317 1.2074,-0.84915 c 0,0 0.8624,-0.40209 1.2503,-0.31246 0.388,0.0896 0.4311,0.13437 0.4311,0.13437 l 0.8188,0.62649"
           id="path6742"
           inkscape:connector-curvature="0" />
        <path
           style="opacity:0.91000001;fill:none;stroke:#681d13;stroke-width:0.66380852;stroke-linecap:butt;stroke-linejoin:miter;stroke-miterlimit:4;stroke-dasharray:none;stroke-opacity:0.90980393"
           d="m 1074.7826,-866.00226 1.2074,-0.84915 c 0,0 0.8624,-0.40209 1.2503,-0.31246 0.388,0.0896 0.4311,0.13437 0.4311,0.13437 l 0.8188,0.62649"
           id="path6742-1"
           inkscape:connector-curvature="0" />
      </g>
    </g>
  </g>
</svg>
