<?xml version="1.0" encoding="UTF-8" standalone="no"?>
<!-- Created with Inkscape (http://www.inkscape.org/) -->

<svg
   xmlns:osb="http://www.openswatchbook.org/uri/2009/osb"
   xmlns:dc="http://purl.org/dc/elements/1.1/"
   xmlns:cc="http://creativecommons.org/ns#"
   xmlns:rdf="http://www.w3.org/1999/02/22-rdf-syntax-ns#"
   xmlns:svg="http://www.w3.org/2000/svg"
   xmlns="http://www.w3.org/2000/svg"
   xmlns:sodipodi="http://sodipodi.sourceforge.net/DTD/sodipodi-0.dtd"
   xmlns:inkscape="http://www.inkscape.org/namespaces/inkscape"
   width="210mm"
   height="297mm"
   viewBox="0 0 210 297"
   version="1.1"
   id="svg1599"
   inkscape:version="0.92.2 (unknown)"
   sodipodi:docname="slime_1.3.svg">
  <defs
     id="defs1593">
    <inkscape:path-effect
       effect="bspline"
       id="path-effect9159"
       is_visible="true"
       weight="33.333333"
       steps="2"
       helper_size="0"
       apply_no_weight="true"
       apply_with_weight="true"
       only_selected="false" />
    <inkscape:path-effect
       effect="bspline"
       id="path-effect9147"
       is_visible="true"
       weight="33.333333"
       steps="2"
       helper_size="0"
       apply_no_weight="true"
       apply_with_weight="true"
       only_selected="false" />
    <inkscape:path-effect
       effect="bspline"
       id="path-effect9143"
       is_visible="true"
       weight="33.333333"
       steps="2"
       helper_size="0"
       apply_no_weight="true"
       apply_with_weight="true"
       only_selected="false" />
    <inkscape:path-effect
       effect="bspline"
       id="path-effect9139"
       is_visible="true"
       weight="33.333333"
       steps="2"
       helper_size="0"
       apply_no_weight="true"
       apply_with_weight="true"
       only_selected="false" />
    <marker
       style="overflow:visible"
       id="DistanceStart"
       refX="0.0"
       refY="0.0"
       orient="auto"
       inkscape:stockid="DistanceStart"
       inkscape:isstock="true">
      <g
         id="g2300"
         style="stroke:#000000;stroke-opacity:1;fill:#921676;fill-opacity:1">
        <path
           style="fill:#921676;stroke:#000000;stroke-width:1.15;stroke-linecap:square;stroke-opacity:1;fill-opacity:1"
           d="M 0,0 L 2,0"
           id="path2306" />
        <path
           style="fill:#921676;fill-rule:evenodd;stroke:#000000;stroke-opacity:1;fill-opacity:1"
           d="M 0,0 L 13,4 L 9,0 13,-4 L 0,0 z "
           id="path2302" />
        <path
           style="fill:#921676;stroke:#000000;stroke-width:1;stroke-linecap:square;stroke-opacity:1;fill-opacity:1"
           d="M 0,-4 L 0,40"
           id="path2304" />
      </g>
    </marker>
    <linearGradient
       id="linearGradient2262"
       osb:paint="solid">
      <stop
         style="stop-color:#8b2975;stop-opacity:1;"
         offset="0"
         id="stop2260" />
    </linearGradient>
    <inkscape:path-effect
       effect="bspline"
       id="path-effect573"
       is_visible="true"
       weight="33.333333"
       steps="2"
       helper_size="0"
       apply_no_weight="true"
       apply_with_weight="true"
       only_selected="false" />
    <inkscape:path-effect
       effect="bspline"
       id="path-effect573-5"
       is_visible="true"
       weight="33.333333"
       steps="2"
       helper_size="0"
       apply_no_weight="true"
       apply_with_weight="true"
       only_selected="false" />
  </defs>
  <sodipodi:namedview
     id="base"
     pagecolor="#ffffff"
     bordercolor="#666666"
     borderopacity="1.0"
     inkscape:pageopacity="0.0"
     inkscape:pageshadow="2"
     inkscape:zoom="0.70710678"
     inkscape:cx="206.89363"
     inkscape:cy="686.32811"
     inkscape:document-units="mm"
     inkscape:current-layer="layer1"
     showgrid="false"
     inkscape:window-width="1309"
     inkscape:window-height="747"
     inkscape:window-x="57"
     inkscape:window-y="21"
     inkscape:window-maximized="1"
     inkscape:snap-nodes="false"
     inkscape:snap-others="true"
     inkscape:snap-global="false"
     inkscape:object-paths="true"
     inkscape:snap-grids="false"
     inkscape:snap-to-guides="false"
     inkscape:snap-intersection-paths="true"
     inkscape:object-nodes="false"
     inkscape:snap-center="false" />
  <metadata
     id="metadata1596">
    <rdf:RDF>
      <cc:Work
         rdf:about="">
        <dc:format>image/svg+xml</dc:format>
        <dc:type
           rdf:resource="http://purl.org/dc/dcmitype/StillImage" />
        <dc:title></dc:title>
      </cc:Work>
    </rdf:RDF>
  </metadata>
  <g
     inkscape:label="Layer 1"
     inkscape:groupmode="layer"
     id="layer1">
    <g
       id="g9178"
       transform="translate(-3.175,-8.9958333)">
      <g
         transform="translate(14.567463,-9.9485114)"
         id="g1075">
        <ellipse
           style="opacity:1;fill:#1a1a1a;fill-opacity:1;stroke:#1a1a1a;stroke-width:2.5;stroke-linejoin:round;stroke-miterlimit:4;stroke-dasharray:none;stroke-opacity:1"
           id="path2266"
           cx="98.302696"
           cy="189.45253"
           rx="65.021538"
           ry="25.57719" />
        <g
           id="g1476"
           transform="matrix(0.90258261,0,0,0.90258261,678.31197,227.06048)">
          <g
             id="g9181" />
        </g>
      </g>
      <g
         id="g9210">
        <path
           sodipodi:nodetypes="csscccsccccssssssssscsscssscsscccsscc"
           inkscape:connector-curvature="0"
           id="path571"
           d="m -628.89445,-186.87019 c -3.94855,-1.26659 -16.5077,-2.13007 -24.82441,-1.94851 -8.31671,0.18156 -16.82403,1.37161 -22.58472,2.51133 -5.7607,1.13972 -8.77479,2.22914 -11.42617,3.46399 -2.65138,1.23486 -4.93912,2.61477 -6.82769,3.70433 -1.88857,1.08957 -3.37738,1.88843 -4.90274,3.41368 -1.52537,1.52524 -3.08677,3.77658 -3.97674,5.99222 -0.88997,2.21564 -1.10785,4.39436 -1.0534,6.66419 0.0544,2.26984 0.38129,4.63044 3.7043,8.77068 3.32301,4.14023 9.64215,10.05988 9.84203,16.07019 0.19987,6.01031 -5.71971,12.11146 -4.82976,17.69477 0.88994,5.5833 8.58961,11.23446 15.0986,20.057 6.50899,8.82254 31.72638,17.499975 24.88238,22.711364 -6.844,5.211388 -25.84947,3.053414 -39.25829,6.543856 -13.40881,3.490442 -21.21937,12.629532 -22.11216,21.025197 -0.89279,8.395665 5.13286,16.04857 13.03728,14.808998 7.90442,-1.239571 17.68858,-11.370981 29.35574,-17.957968 11.66715,-6.586987 25.21527,-9.628959 25.70628,-4.126871 0.49101,5.502089 -12.07582,19.54819 -7.87813,26.955554 4.19769,7.407365 25.16034,8.175636 31.4437,1.152431 6.28336,-7.023205 -2.11211,-21.837807 0.72859,-24.759014 2.84069,-2.921208 16.91743,6.050813 27.73025,11.548988 10.81282,5.498175 18.3616,7.522492 23.50953,4.922258 5.14794,-2.600234 7.89519,-9.824654 5.26291,-15.792653 -2.63229,-5.967999 -10.64375,-10.679619 -20.121,-13.01659 -9.47724,-2.336971 -19.32047,-3.471514 -25.89075,-7.098663 -6.37155,-3.517442 -25.36968,-10.534442 -20.85284,-19.618738 4.51685,-9.084299 13.54918,-18.200669 21.21847,-25.025869 7.66928,-6.82521 13.97458,-11.94472 17.19978,-16.4292 3.2252,-4.48448 3.37047,-8.33434 2.82573,-11.78426 -0.54474,-3.44993 -1.77961,-6.50077 -3.45013,-9.55128 -1.67052,-3.05052 -3.77698,-6.10126 -5.38063,-8.48667 -1.60366,-2.38541 -2.82701,-4.29689 -4.38863,-6.22168 -1.56163,-1.92478 -2.9527,-4.26942 -5.31328,-6.37578 -1.20032,-1.07106 -2.02298,-2.01157 -3.04821,-3.12307 -1.11808,-1.21218 -2.6949,-2.05408 -4.22997,-3.18052 -3.8812,-2.42531 -5.99721,-2.82441 -9.19592,-3.51369 z"
           style="fill:#b83098;fill-opacity:1;stroke:#000000;stroke-width:2.2158637;stroke-linecap:butt;stroke-linejoin:miter;stroke-miterlimit:4;stroke-dasharray:none;stroke-opacity:1"
           transform="matrix(0.9025826,0,0,0.9025826,692.87943,217.11197)" />
        <path
           style="fill:none;stroke:#000000;stroke-width:2.5;stroke-linecap:butt;stroke-linejoin:miter;stroke-miterlimit:4;stroke-dasharray:none;stroke-opacity:1"
           d="m -692.34234,-159.23727 c 0,0 1.96112,-1.30741 4.79382,-2.17901 2.83274,-0.87161 1.52533,-1.52531 4.57595,-1.52531 3.05062,0 4.57591,-0.2179 7.19074,0 2.61482,0.2179 3.2685,0 5.44753,0.4358 2.179,0.4358 4.57592,1.74321 4.57592,1.74321"
           id="path575"
           inkscape:connector-curvature="0"
           transform="matrix(0.9025826,0,0,0.9025826,692.87943,217.11197)"
           sodipodi:nodetypes="cssscc" />
        <path
           style="fill:none;stroke:#000000;stroke-width:2.5;stroke-linecap:butt;stroke-linejoin:miter;stroke-miterlimit:4;stroke-dasharray:none;stroke-opacity:1"
           d="m -649.19788,-159.89098 c 3.70433,-0.4358 3.05062,-0.4358 5.22963,-0.4358 2.179,0 2.39691,0.2179 4.35803,0.4358 1.96112,0.21791 3.92221,0.87161 3.92221,0.87161 l 0.6537,0.4358"
           id="path577"
           inkscape:connector-curvature="0"
           transform="matrix(0.9025826,0,0,0.9025826,692.87943,217.11197)"
           sodipodi:nodetypes="csccc" />
        <path
           style="fill:#ffffff;fill-opacity:1;stroke:#000000;stroke-width:2.5;stroke-linecap:butt;stroke-linejoin:miter;stroke-miterlimit:4;stroke-dasharray:none;stroke-opacity:1"
           d="m -687.99752,-161.0696 c 0,0 1.10271,7.27986 2.62803,9.67677 1.5253,2.39692 2.6148,3.05062 2.6148,3.05062 0,0 2.17903,1.08951 3.70433,0.87161 1.52532,-0.21791 2.39691,-0.87161 3.26853,-1.52531 0.87159,-0.65371 1.96111,-1.96111 2.83271,-3.70433 0.87161,-1.74321 1.96111,-3.26851 1.7432,-5.66543 -0.0913,-1.00397 -0.1443,-1.93149 -0.17512,-2.67045 -0.0428,-1.02526 -0.0428,-1.68757 -0.0428,-1.68757 -9.65513,-0.90306 -14.18257,-5.9e-4 -16.57372,1.65409"
           id="path579"
           inkscape:connector-curvature="0"
           sodipodi:nodetypes="cccccccscc"
           transform="matrix(0.9025826,0,0,0.9025826,692.87943,217.11197)" />
        <path
           style="fill:none;stroke:#000000;stroke-width:2.5;stroke-linecap:butt;stroke-linejoin:miter;stroke-miterlimit:4;stroke-dasharray:none;stroke-opacity:1"
           d="m -690.16331,-148.12431 c 0,0 2.39688,-1.3074 7.40862,-0.2179 5.01174,1.08951 6.53706,1.52531 8.71606,2.17901 2.17901,0.65371 3.92221,1.74321 3.92221,1.74321 h 0.21791"
           id="path581"
           inkscape:connector-curvature="0"
           transform="matrix(0.9025826,0,0,0.9025826,692.87943,217.11197)"
           sodipodi:nodetypes="ccccc" />
        <path
           style="fill:none;stroke:#000000;stroke-width:2.5;stroke-linecap:butt;stroke-linejoin:miter;stroke-miterlimit:4;stroke-dasharray:none;stroke-opacity:1"
           d="m -652.03061,-151.61073 c 0,0 -0.4358,3.26852 -1.96109,4.57593 -1.52533,1.30741 6.10124,-3.48642 21.13642,-1.52531"
           id="path583"
           inkscape:connector-curvature="0"
           transform="matrix(0.9025826,0,0,0.9025826,692.87943,217.11197)"
           sodipodi:nodetypes="ccc" />
        <path
           style="fill:#000000;fill-opacity:1;stroke:#000000;stroke-width:0.26499999;stroke-linecap:butt;stroke-linejoin:miter;stroke-miterlimit:4;stroke-dasharray:none;stroke-opacity:1"
           d="m -687.3306,-172.09345 -3.05062,5.66544 c 0,0 4.35803,-2.17902 8.28024,-2.61482 3.92223,-0.4358 5.66544,-0.6537 7.19074,-0.2179 1.52532,0.4358 1.96112,0 3.70432,1.08951 1.74321,1.0895 2.83274,1.96111 2.83274,1.96111 l 2.6148,-4.57593 -2.6148,1.08951 c 0,0 -2.61483,-0.65371 -4.57594,-1.08951 -1.96112,-0.4358 -3.70433,-0.8716 -5.44754,-0.8716 -1.7432,0 -8.93394,-0.43581 -8.93394,-0.43581 z"
           id="path1390"
           inkscape:connector-curvature="0"
           transform="matrix(0.9025826,0,0,0.9025826,692.87943,217.11197)"
           sodipodi:nodetypes="ccsccccccsc" />
        <path
           style="fill:#000000;fill-opacity:1;stroke:#000000;stroke-width:0.26458332px;stroke-linecap:butt;stroke-linejoin:miter;stroke-opacity:1"
           d="m -649.41579,-167.95332 c 0,0 -0.43579,1.30741 -0.43579,1.96111 0,0.6537 0.0372,0.71909 0.26831,1.06577 0.23112,0.34668 0.077,0.50076 0.69337,0.53928 0.61629,0.0385 0.65482,0.23112 1.92598,0.1926 1.27116,-0.0385 5.73945,-0.80892 5.73945,-0.80892 l 3.31271,-0.3852 c 0,0 2.19565,-0.30816 3.2742,-0.15408 1.07854,0.15408 2.23414,0.30816 2.65787,0.42372 0.42373,0.11556 1.34818,0.34668 1.73339,0.53928 0.38521,0.1926 0.19259,0.30816 1.00153,0.69335 0.80891,0.3852 0.84743,0.50076 1.3867,0.88596 0.53928,0.3852 1.04003,0.61632 1.04003,0.61632 0,0 0.077,-0.077 0.23114,-0.11556 0.15406,-0.0385 0.96298,-1.30967 0.96298,-1.30967 0,0 -0.23112,-0.80892 -0.46223,-1.00152 -0.23112,-0.1926 -1.04005,-0.80892 -1.38671,-1.00152 -0.34668,-0.1926 -1.19412,-0.73187 -2.00305,-1.07855 -0.80891,-0.34668 -1.77189,-0.53928 -2.34972,-0.69336 -0.57779,-0.15408 -0.57779,-0.077 -2.00302,-0.15408 -1.42523,-0.077 -3.1201,-0.1926 -3.54383,-0.1926 -0.42371,0 -1.92598,-0.0385 -2.50378,0 -0.5778,0.0385 -1.84896,0.11556 -2.34971,0.11556 -0.50075,0 -1.1556,0.11556 -1.77192,0.1926 -0.61632,0.077 -0.80891,0.23112 -1.5408,0.34668 -0.73186,0.11556 -0.77039,0.15408 -1.5408,0.3852 -0.77039,0.23112 -0.73186,0.34668 -1.19412,0.26964 -0.46222,-0.077 -0.57779,-0.11557 -0.65481,-0.30816 -0.077,-0.1926 -0.48737,-1.02385 -0.48737,-1.02385 z"
           id="path1392"
           inkscape:connector-curvature="0"
           transform="matrix(0.9025826,0,0,0.9025826,692.87943,217.11197)"
           sodipodi:nodetypes="csccccccssccccccccccssscccccc" />
        <path
           style="fill:#000000;fill-opacity:1;stroke:#000000;stroke-width:0.26458332px;stroke-linecap:butt;stroke-linejoin:miter;stroke-opacity:1"
           d="m -684.79751,-161.36181 c 0,0 0.16343,1.68874 0.27239,2.12454 0.10895,0.4358 0.24513,1.22569 0.40857,1.63426 0.1634,0.40856 0.10893,0.95332 0.40854,1.71597 0.29962,0.76265 0.54478,1.77045 0.78991,2.0973 0.24514,0.32685 0.24514,0.59923 0.73541,1.00779 0.49028,0.40857 0.4358,0.51752 1.06228,0.68094 0.62645,0.16343 1.11673,0.27238 1.47082,0.21791 0.35409,-0.0545 0.87161,-0.21791 1.30741,-0.51752 0.4358,-0.29962 0.51753,-0.16343 1.03502,-0.70818 0.51753,-0.54475 1.03505,-0.81713 1.36189,-1.47083 0.32687,-0.65371 0.40857,-0.98056 0.76266,-1.41636 0.3541,-0.4358 0.73541,-1.4436 0.81712,-1.90664 0.0817,-0.46304 0.16343,-0.6537 0.24516,-1.17122 0.0817,-0.51751 0.0272,-0.95331 0.0817,-1.49807 0.0545,-0.54475 0,-0.84436 0,-0.98055 0,-0.13619 0.19066,-0.54476 -0.70818,-0.572 -0.89884,-0.0272 -1.5253,-0.16342 -2.75101,-0.19066 -1.22568,-0.0272 -1.06227,0.0272 -2.45139,0.0272 -1.38911,0 -1.19845,0.0272 -2.23348,0.0545 -1.03502,0.0272 -1.38911,0.0545 -1.87938,0.10895 -0.4903,0.0545 -0.65371,-0.0272 -0.68096,0.21791 -0.0272,0.24514 -0.0545,0.54475 -0.0545,0.54475 z"
           id="path1394"
           inkscape:connector-curvature="0"
           transform="matrix(0.9025826,0,0,0.9025826,692.87943,217.11197)"
           sodipodi:nodetypes="cccccccccccccccsccsccccc" />
        <path
           style="fill:#ffffff;fill-opacity:1;stroke:#000000;stroke-width:1;stroke-linecap:butt;stroke-linejoin:miter;stroke-miterlimit:4;stroke-dasharray:none;stroke-opacity:1"
           d="m -673.87519,-123.17461 v 0 0 l -0.48117,-0.006 4.01089,5.40241 20.03031,5.00758 4.6224,0.30816 2.77342,-1.92599 1.07857,-4.69943 3.6979,-7.39581 -9.3218,1.23263 -16.56355,-2.61935 -11.75361,-1.40551 v 0"
           id="path1400"
           inkscape:connector-curvature="0"
           transform="matrix(0.9025826,0,0,0.9025826,692.87943,217.11197)"
           sodipodi:nodetypes="cccccccccccccc" />
        <path
           style="fill:none;stroke:#000000;stroke-width:2.5;stroke-linecap:butt;stroke-linejoin:miter;stroke-miterlimit:4;stroke-dasharray:none;stroke-opacity:1"
           d="m -678.2877,-137.9919 c 0,0 0.21791,2.39692 -0.65371,3.81327 -0.87159,1.41636 -1.19845,2.72377 -2.07005,3.37747 -0.87161,0.65371 -1.74323,1.63426 -1.74323,1.63426 l -0.65368,0.43581 c 0,0 3.92221,-0.87161 5.33858,-0.98056 1.41634,-0.10895 4.90278,0 6.31912,0.32685 1.41637,0.32685 4.03117,0.65371 5.22962,0.76266 1.19849,0.10895 2.72378,0.2179 4.24908,0.6537 1.52532,0.4358 3.48644,0.98056 5.3386,1.19846 1.85217,0.2179 3.48642,0.54475 5.44754,0.76265 1.96109,0.2179 2.07004,0.32685 4.358,0.32685 2.28799,0 3.15958,0.43581 5.01174,-0.2179 1.85216,-0.6537 2.72375,-0.6537 4.24907,-1.19845 1.5253,-0.54476 1.41637,-0.32686 1.41637,-0.32686 0,0 -1.85216,0.98056 -2.28798,2.07007 -0.4358,1.0895 -0.54475,1.19845 -1.41634,2.83271 -0.87162,1.63426 -1.0895,1.85216 -1.52533,3.37747 -0.43579,1.52531 0.26362,2.3397 -0.71695,3.64711 -0.98055,1.30741 -1.0136,1.69204 -2.35895,2.30061 -1.095,0.53154 -1.17317,0.80722 -3.57009,0.48037 -2.39691,-0.32685 -3.70432,-0.2179 -5.55646,-0.76266 -1.85216,-0.54475 -1.85161,-0.39606 -4.12749,-1.01728 -1.88584,-0.66952 -1.2998,-0.35289 -3.98328,-1.20586 -2.40957,-0.72471 -0.97397,-0.23773 -3.15297,-0.89144 -2.17901,-0.6537 -0.98055,-0.32685 -3.15958,-0.76265 -2.179,-0.4358 -2.6148,-0.32685 -4.35803,-0.4358 -2.17176,0.11806 -5.17335,-1.73164 -2.72375,0 2.179,1.52531 2.83271,1.96111 3.92221,3.05061 1.08952,1.08951 1.36188,1.11674 2.45138,2.64205 1.08951,1.52531 0,0 0,0"
           id="path1396"
           inkscape:connector-curvature="0"
           sodipodi:nodetypes="cccccccccscsccccccccscccccccccc"
           transform="matrix(0.9025826,0,0,0.9025826,692.87943,217.11197)" />
        <path
           style="fill:none;stroke:#000000;stroke-width:1;stroke-linecap:butt;stroke-linejoin:miter;stroke-miterlimit:4;stroke-dasharray:none;stroke-opacity:1"
           d="m -675.78183,-129.27585 1.90664,6.10124 11.2219,1.90663"
           id="path1398"
           inkscape:connector-curvature="0"
           transform="matrix(0.9025826,0,0,0.9025826,692.87943,217.11197)"
           sodipodi:nodetypes="ccc" />
        <path
           style="fill:none;stroke:#000000;stroke-width:1;stroke-linecap:butt;stroke-linejoin:miter;stroke-miterlimit:4;stroke-dasharray:none;stroke-opacity:1"
           d="m -657.17168,-121.01379 c 0,0 4.31422,0.61631 5.46981,0.53928 1.1556,-0.077 2.6964,0.077 3.92904,-0.23112 1.23264,-0.30816 1.15559,-0.46224 2.00303,-1.07856 0.84743,-0.61632 1.61782,-1.23264 1.61782,-1.23264 l 0.38521,-0.46223"
           id="path1402"
           inkscape:connector-curvature="0"
           transform="matrix(0.9025826,0,0,0.9025826,692.87943,217.11197)"
           sodipodi:nodetypes="cccccc" />
        <path
           style="fill:#a41e87;fill-opacity:1;stroke:#000000;stroke-width:0.26458332px;stroke-linecap:butt;stroke-linejoin:miter;stroke-opacity:0.00602411"
           d="m 118.80687,51.800365 c 3.86743,3.336585 11.60206,10.009571 15.07256,17.932076 3.47049,7.922505 2.67677,17.094434 0.38372,24.855772 -2.29304,7.761337 -6.0851,14.110827 -9.83353,19.976057 -3.74844,5.86522 -7.45221,11.24451 -8.86353,15.80889 -1.41132,4.56437 -0.52948,8.31221 3.13106,12.36224 3.66054,4.05003 10.09881,8.4009 17.7667,11.62824 7.6679,3.22734 16.56452,5.3308 21.93884,7.74949 5.37432,2.4187 7.22644,5.15278 7.35886,7.40165 0.13242,2.24887 -1.45505,4.01272 -3.66013,4.9389 -2.20507,0.92618 -5.02684,1.01436 -7.5736,0.83247 -2.54676,-0.1819 -4.81755,-0.63385 -5.9587,-0.87647 -1.14114,-0.24263 -1.15215,-0.27562 0.99777,0.85957 2.14992,1.13519 6.43488,3.42473 9.61873,4.95359 3.18384,1.52885 5.25362,2.29012 7.18313,2.77476 1.92951,0.48464 3.71867,0.69267 5.23179,0.60875 1.51312,-0.0839 2.75014,-0.45967 3.87722,-1.09329 1.12709,-0.63362 2.14426,-1.52496 2.86136,-2.56769 0.71709,-1.04272 1.13425,-2.23674 1.45194,-3.44179 0.31769,-1.20505 0.53596,-2.42112 0.5515,-3.5729 0.0156,-1.15178 -0.17154,-2.23935 -0.65163,-3.42038 -0.48008,-1.18104 -1.25317,-2.4557 -2.31409,-3.7126 -1.06092,-1.2569 -2.40975,-2.49614 -4.34833,-3.67914 -1.93858,-1.18299 -4.46678,-2.3097 -7.04843,-3.08895 -2.58166,-0.77925 -5.2162,-1.21085 -8.466,-1.83396 -3.24981,-0.62312 -7.1136,-1.43752 -10.16044,-2.26119 -3.04684,-0.82368 -5.27559,-1.65635 -7.27446,-2.6002 -1.99887,-0.94386 -3.76712,-1.99859 -6.47021,-3.54506 -2.70309,-1.54647 -6.3407,-3.58449 -8.82503,-5.08864 -2.48434,-1.50414 -3.81528,-2.47436 -4.7672,-3.63042 -0.95193,-1.15605 -1.52474,-2.49776 -1.57964,-3.84313 -0.0549,-1.34537 0.40792,-2.69419 1.14016,-4.35004 0.73223,-1.65585 1.73382,-3.6187 2.83434,-5.39636 1.10051,-1.77767 2.29989,-3.37013 3.78994,-5.01872 1.49005,-1.64859 3.27071,-3.35332 5.18247,-5.19326 1.91176,-1.83994 3.9546,-3.81506 6.13564,-5.82649 2.18104,-2.01142 4.50028,-4.05916 6.48864,-5.88762 1.98836,-1.82846 3.64587,-3.43763 5.14013,-4.970645 1.49425,-1.533018 2.82527,-2.98987 3.90848,-4.30887 1.08322,-1.318999 1.91866,-2.500106 2.36769,-3.663173 0.44904,-1.163068 0.51186,-2.308102 0.5976,-3.731655 0.0858,-1.423553 0.19443,-3.125617 -0.0838,-4.542611 -0.27822,-1.416994 -0.94327,-2.549117 -1.59809,-3.875136 -0.65481,-1.326019 -1.29938,-2.845885 -2.85789,-5.501399 -1.55852,-2.655514 -4.03098,-6.446731 -6.66659,-10.02801 -2.63561,-3.581279 -5.43437,-6.952654 -8.14007,-9.251694 -2.70571,-2.29904 -5.31839,-3.525768 -7.64982,-4.407466 -2.33142,-0.881698 -4.38109,-1.418167 -7.36614,-1.803422 -2.98506,-0.385255 -6.90396,-0.619071 -8.17995,-0.594931 -1.27599,0.02414 0.0918,0.306219 0.7757,0.447245 0.6839,0.141026 0.6839,0.141026 4.55132,3.477612 z"
           id="path9157"
           inkscape:connector-curvature="0"
           inkscape:path-effect="#path-effect9159"
           inkscape:original-d="m 114.93945,48.463779 c 7.73509,6.672889 15.46972,13.345876 23.2042,20.019221 -0.79349,9.171966 -1.58721,18.343896 -2.38125,27.516666 -3.79221,6.349934 -7.58427,12.699424 -11.37708,19.050004 -3.70409,5.37986 -7.40786,10.75915 -11.1125,16.13958 0.88226,3.74821 1.7641,7.49605 2.64583,11.24479 6.43925,4.35109 12.87751,8.70196 19.31587,13.05333 8.8973,2.1033 17.79392,4.20676 26.69048,6.31054 1.85231,2.73371 3.70443,5.4678 5.55625,8.20209 -1.58727,1.76366 -3.17474,3.52751 -4.7625,5.29166 -2.82241,0.088 -5.64418,0.17613 -8.46667,0.26459 -2.27096,-0.45231 -4.54175,-0.90426 -6.81302,-1.35599 -0.0108,-0.0333 -0.0218,-0.0663 -0.0331,-0.0992 4.31102,2.30306 8.59598,4.59261 12.89358,6.88931 2.07004,0.76101 4.13982,1.52228 6.20934,2.28381 1.78941,0.20777 3.57857,0.4158 5.36745,0.62409 1.23728,-0.37601 2.4743,-0.75176 3.71106,-1.12724 1.01744,-0.89161 2.03462,-1.78295 3.05154,-2.67404 0.41743,-1.19429 0.8346,-2.38831 1.2515,-3.58207 0.21853,-1.21635 0.4368,-2.43242 0.6548,-3.64824 -0.18682,-1.08783 -0.37391,-2.1754 -0.56126,-3.26269 -0.77281,-1.27492 -1.54589,-2.54958 -2.31924,-3.82397 -1.34856,-1.2395 -2.69739,-2.47873 -4.04648,-3.7177 -2.52818,-1.12707 -5.05638,-2.25377 -7.58511,-3.38033 -2.63467,-0.43193 -5.26921,-0.86353 -7.9045,-1.29494 -3.8643,-0.81483 -7.72809,-1.62923 -11.59285,-2.44351 -2.22887,-0.83308 -4.45762,-1.66574 -6.68704,-2.4983 -1.76825,-1.05515 -3.5365,-2.10988 -5.30521,-3.16446 -3.63749,-2.03836 -7.27509,-4.07638 -10.91304,-6.11418 -1.33068,-0.97048 -2.66162,-1.9407 -3.99283,-2.91066 -0.57254,-1.34199 -1.14535,-2.6837 -1.71842,-4.02516 0.46309,-1.34909 0.92592,-2.69791 1.38849,-4.04647 1.00185,-1.96314 2.00344,-3.92599 3.00477,-5.8886 1.19964,-1.59274 2.39902,-3.1852 3.59814,-4.77741 1.78093,-1.70501 3.56159,-3.40974 5.342,-5.11422 2.04311,-1.9754 4.08595,-3.95052 6.12853,-5.92538 2.3195,-2.048 4.63873,-4.09574 6.9577,-6.14321 1.65777,-1.60943 3.31528,-3.2186 4.97252,-4.827505 1.33128,-1.457118 2.6623,-2.913969 3.99306,-4.370563 0.83571,-1.18138 1.67115,-2.362486 2.50633,-3.543336 0.0631,-1.145307 0.1259,-2.290343 0.18846,-3.435117 0.10894,-1.702329 0.21762,-3.404393 0.32603,-5.106192 -0.66479,-1.132388 -1.32984,-2.264512 -1.99516,-3.396371 -0.6443,-1.520131 -1.28887,-3.039996 -1.9337,-4.559599 -2.47221,-3.791489 -4.94468,-7.582705 -7.41741,-11.373659 -2.7985,-3.371644 -5.59726,-6.743019 -8.39629,-10.114137 -2.61252,-1.227043 -5.2252,-2.453771 -7.83835,-3.680331 -2.04977,-0.536828 -4.09944,-1.073298 -6.14985,-1.609627 -3.91976,-0.234148 -7.83866,-0.467965 -11.75894,-0.701583 1.36834,0.281871 2.73614,0.563951 4.10384,0.846329 2.7e-4,-2.72e-4 2.8e-4,-2.78e-4 3e-5,-2e-5 z"
           sodipodi:nodetypes="ccccccccccccccccccccccccccccccccccccccccccccccccccc" />
      </g>
    </g>
  </g>
</svg>
