<?xml version="1.0" encoding="UTF-8" standalone="no"?>
<!-- Created with Inkscape (http://www.inkscape.org/) -->

<svg
   xmlns:osb="http://www.openswatchbook.org/uri/2009/osb"
   xmlns:dc="http://purl.org/dc/elements/1.1/"
   xmlns:cc="http://creativecommons.org/ns#"
   xmlns:rdf="http://www.w3.org/1999/02/22-rdf-syntax-ns#"
   xmlns:svg="http://www.w3.org/2000/svg"
   xmlns="http://www.w3.org/2000/svg"
   xmlns:xlink="http://www.w3.org/1999/xlink"
   xmlns:sodipodi="http://sodipodi.sourceforge.net/DTD/sodipodi-0.dtd"
   xmlns:inkscape="http://www.inkscape.org/namespaces/inkscape"
   width="210mm"
   height="297mm"
   viewBox="0 0 210 297"
   version="1.1"
   id="svg1599"
   inkscape:version="0.92.2 (unknown)"
   sodipodi:docname="slime_1.svg">
  <defs
     id="defs1593">
    <linearGradient
       id="linearGradient2262"
       osb:paint="solid">
      <stop
         style="stop-color:#8b2975;stop-opacity:1;"
         offset="0"
         id="stop2260" />
    </linearGradient>
    <inkscape:path-effect
       effect="bspline"
       id="path-effect573"
       is_visible="true"
       weight="33.333333"
       steps="2"
       helper_size="0"
       apply_no_weight="true"
       apply_with_weight="true"
       only_selected="false" />
    <inkscape:path-effect
       effect="bspline"
       id="path-effect573-5"
       is_visible="true"
       weight="33.333333"
       steps="2"
       helper_size="0"
       apply_no_weight="true"
       apply_with_weight="true"
       only_selected="false" />
    <linearGradient
       inkscape:collect="always"
       xlink:href="#linearGradient2262"
       id="linearGradient2264"
       x1="-718.50154"
       y1="-108.33154"
       x2="-565.98491"
       y2="-108.33154"
       gradientUnits="userSpaceOnUse" />
  </defs>
  <sodipodi:namedview
     id="base"
     pagecolor="#ffffff"
     bordercolor="#666666"
     borderopacity="1.0"
     inkscape:pageopacity="0.0"
     inkscape:pageshadow="2"
     inkscape:zoom="0.42929688"
     inkscape:cx="59.194728"
     inkscape:cy="590.32508"
     inkscape:document-units="mm"
     inkscape:current-layer="layer1"
     showgrid="false"
     inkscape:window-width="1309"
     inkscape:window-height="747"
     inkscape:window-x="57"
     inkscape:window-y="21"
     inkscape:window-maximized="1" />
  <metadata
     id="metadata1596">
    <rdf:RDF>
      <cc:Work
         rdf:about="">
        <dc:format>image/svg+xml</dc:format>
        <dc:type
           rdf:resource="http://purl.org/dc/dcmitype/StillImage" />
        <dc:title></dc:title>
      </cc:Work>
    </rdf:RDF>
  </metadata>
  <g
     inkscape:label="Layer 1"
     inkscape:groupmode="layer"
     id="layer1">
    <ellipse
       style="opacity:1;fill:#1a1a1a;fill-opacity:1;stroke:#1a1a1a;stroke-width:2.5;stroke-linejoin:round;stroke-miterlimit:4;stroke-dasharray:none;stroke-opacity:1"
       id="path2266"
       cx="98.302696"
       cy="189.45253"
       rx="65.021538"
       ry="25.57719" />
    <g
       id="g1476"
       transform="matrix(0.90258261,0,0,0.90258261,677.05578,229.57286)">
      <path
         sodipodi:nodetypes="cccccscsssccccccccczcccccccccccccccc"
         inkscape:original-d="m -609.25193,-190.66304 c -8.12577,-0.82716 -16.25117,-1.65401 -24.3774,-2.48064 -8.50725,1.18982 -17.01457,2.37987 -25.522,3.57016 -3.01398,1.08922 -6.02807,2.17864 -9.04292,3.26851 -2.28791,1.37991 -4.57565,2.75982 -6.86387,4.14013 -1.48892,0.7988 -2.97773,1.59767 -4.467,2.3969 -1.56135,2.25139 -3.12276,4.50273 -4.68485,6.75495 -0.21767,2.17904 -0.43554,4.35776 -0.65371,6.53704 0.32712,2.36033 0.65396,4.72093 0.98055,7.08179 6.3194,5.91938 12.63854,11.83903 18.95742,17.75895 -5.91939,6.10097 -11.83897,12.20212 -17.75896,18.30371 7.70008,5.06471 15.39975,10.1296 23.09915,15.19474 5.3187,12.580099 10.63707,25.160319 15.9554,37.741341 -19.00662,-2.1584 -38.01209,-4.316375 -57.01924,-6.474245 -7.81049,9.139067 -15.62104,18.278158 -23.4317,27.417322 6.02534,7.651915 12.05099,15.304817 18.07564,22.95706 9.78391,-10.131149 19.56806,-20.262561 29.35237,-30.394142 13.54996,-3.04259 27.09808,-6.084563 40.64721,-9.126558 -12.56705,14.046382 -25.13388,28.092484 -37.70105,42.13893 20.96254,0.767993 41.92519,1.536264 62.8874,2.304793 -8.39519,-14.814842 -16.79065,-29.629447 -25.18635,-44.443723 14.07697,8.971733 28.15371,17.943754 42.23021,26.916054 7.54902,2.024046 15.0978,4.048362 22.64622,6.072917 2.74751,-7.224656 5.49477,-14.449075 8.2418,-21.673334 -8.01157,-4.712107 -16.02303,-9.423725 -24.03525,-14.135374 -10.94245,0.03775 -21.88496,0.07577 -32.82729,0.114053 7.4e-4,-9.637437 10e-4,-19.274954 10e-4,-28.91249 9.03335,-8.531064 18.06568,-17.061154 27.09842,-25.591604 6.30582,-5.11998 12.61112,-10.23949 18.91627,-15.35883 0.14552,-3.84958 0.29078,-7.69944 0.4358,-11.54877 -1.23442,-3.05066 -2.46928,-6.1015 -3.70433,-9.15185 -2.10603,-3.05075 -4.21248,-6.1015 -6.31912,-9.15186 -1.10066,-1.72045 -2.32401,-3.63193 -3.48643,-5.44753 -1.96087,-2.03403 -3.92197,-4.06775 -5.88334,-6.10123 -2.75982,-2.17927 -5.51977,-4.35818 -8.28026,-6.53703 -2.75995,-1.38038 -5.51991,-2.76037 -8.28022,-4.14014"
         inkscape:path-effect="#path-effect573"
         inkscape:connector-curvature="0"
         id="path571"
         d="m -609.25193,-190.66304 c -8.1258,-0.82688 -16.2512,-1.65372 -24.56791,-1.47216 -8.31671,0.18156 -16.82403,1.37161 -22.58472,2.51133 -5.7607,1.13972 -8.77479,2.22914 -11.42617,3.46399 -2.65138,1.23486 -4.93912,2.61477 -6.82769,3.70433 -1.88857,1.08957 -3.37738,1.88843 -4.90274,3.41368 -1.52537,1.52524 -3.08677,3.77658 -3.97674,5.99222 -0.88997,2.21564 -1.10785,4.39436 -1.0534,6.66419 0.0544,2.26984 0.38129,4.63044 3.7043,8.77068 3.32301,4.14023 9.64215,10.05988 9.84203,16.07019 0.19987,6.01031 -5.71971,12.11146 -4.82976,17.69477 0.88994,5.5833 8.58961,10.64818 15.0986,19.47072 6.50899,8.822535 11.82736,21.402755 4.98336,26.614144 -6.844,5.211388 -25.84947,3.053414 -39.25829,6.543856 -13.40881,3.490442 -21.21937,12.629532 -22.11216,21.025197 -0.89279,8.395665 5.13286,16.04857 13.03728,14.808998 7.90442,-1.239571 17.68858,-11.370981 29.35574,-17.957968 11.66715,-6.586987 25.21527,-9.628959 25.70628,-4.126871 0.49101,5.502089 -12.07582,19.54819 -7.87813,26.955554 4.19769,7.407365 25.16034,8.175636 31.4437,1.152431 6.28336,-7.023205 -2.11211,-21.837807 0.72859,-24.759014 2.84069,-2.921208 16.91743,6.050813 27.73025,11.548988 10.81282,5.498175 18.3616,7.522492 23.50953,4.922258 5.14794,-2.600234 7.89519,-9.824654 5.26291,-15.792653 -2.63229,-5.967999 -10.64375,-10.679619 -20.121,-13.01659 -9.47724,-2.336971 -20.41975,-2.298953 -25.89075,-7.098663 -5.471,-4.79971 -5.47066,-14.437227 -0.95382,-23.521523 4.51685,-9.084294 13.54918,-17.614384 21.21847,-24.439584 7.66928,-6.82521 13.97458,-11.94472 17.19978,-16.4292 3.2252,-4.48448 3.37047,-8.33434 2.82573,-11.78426 -0.54474,-3.44993 -1.77961,-6.50077 -3.45013,-9.55128 -1.67052,-3.05052 -3.77698,-6.10126 -5.38063,-8.48667 -1.60366,-2.38541 -2.82701,-4.29689 -4.38863,-6.22168 -1.56163,-1.92478 -3.52272,-3.9585 -5.8833,-6.06486 -2.36058,-2.10636 -5.12053,-4.28527 -7.88072,-6.06487 -2.76018,-1.7796 -5.52014,-3.15959 -8.28029,-4.53968"
         style="fill:url(#linearGradient2264);fill-opacity:1;stroke:#000000;stroke-width:2.5;stroke-linecap:butt;stroke-linejoin:miter;stroke-miterlimit:4;stroke-dasharray:none;stroke-opacity:1" />
      <path
         inkscape:connector-curvature="0"
         id="path575"
         d="m -672.44332,-162.55377 c 0,0 1.96112,-1.30741 4.79382,-2.17901 2.83274,-0.87161 1.52533,-1.52531 4.57595,-1.52531 3.05062,0 4.57591,-0.2179 7.19074,0 2.61482,0.2179 3.2685,0 5.44753,0.4358 2.179,0.4358 4.57592,1.74321 4.57592,1.74321"
         style="fill:none;stroke:#000000;stroke-width:2.5;stroke-linecap:butt;stroke-linejoin:miter;stroke-miterlimit:4;stroke-dasharray:none;stroke-opacity:1" />
      <path
         inkscape:connector-curvature="0"
         id="path577"
         d="m -629.29886,-163.20748 c 3.70433,-0.4358 3.05062,-0.4358 5.22963,-0.4358 2.179,0 2.39691,0.2179 4.35803,0.4358 1.96112,0.21791 3.92221,0.87161 3.92221,0.87161 l 0.6537,0.4358"
         style="fill:none;stroke:#000000;stroke-width:2.5;stroke-linecap:butt;stroke-linejoin:miter;stroke-miterlimit:4;stroke-dasharray:none;stroke-opacity:1" />
      <path
         sodipodi:nodetypes="cccccccscc"
         inkscape:connector-curvature="0"
         id="path579"
         d="m -668.0985,-164.3861 c 0,0 1.10271,7.27986 2.62803,9.67677 1.5253,2.39692 2.6148,3.05062 2.6148,3.05062 0,0 2.17903,1.08951 3.70433,0.87161 1.52532,-0.21791 2.39691,-0.87161 3.26853,-1.52531 0.87159,-0.65371 1.96111,-1.96111 2.83271,-3.70433 0.87161,-1.74321 1.96111,-3.26851 1.7432,-5.66543 -0.0913,-1.00397 -0.1443,-1.93149 -0.17512,-2.67045 -0.0428,-1.02526 -0.0428,-1.68757 -0.0428,-1.68757 -9.65513,-0.90306 -14.18257,-5.9e-4 -16.57372,1.65409"
         style="fill:#ffffff;fill-opacity:1;stroke:#000000;stroke-width:2.5;stroke-linecap:butt;stroke-linejoin:miter;stroke-miterlimit:4;stroke-dasharray:none;stroke-opacity:1" />
      <path
         inkscape:connector-curvature="0"
         id="path581"
         d="m -670.26429,-151.44081 c 0,0 2.39688,-1.3074 7.40862,-0.2179 5.01174,1.08951 6.53706,1.52531 8.71606,2.17901 2.17901,0.65371 3.92221,1.74321 3.92221,1.74321 h 0.21791"
         style="fill:none;stroke:#000000;stroke-width:2.5;stroke-linecap:butt;stroke-linejoin:miter;stroke-miterlimit:4;stroke-dasharray:none;stroke-opacity:1" />
      <path
         inkscape:connector-curvature="0"
         id="path583"
         d="m -632.13159,-154.92723 c 0,0 -0.4358,3.26852 -1.96109,4.57593 -1.52533,1.30741 6.10124,-3.48642 21.13642,-1.52531"
         style="fill:none;stroke:#000000;stroke-width:2.5;stroke-linecap:butt;stroke-linejoin:miter;stroke-miterlimit:4;stroke-dasharray:none;stroke-opacity:1" />
      <path
         inkscape:connector-curvature="0"
         id="path1390"
         d="m -667.43158,-175.40995 -3.05062,5.66544 c 0,0 4.35803,-2.17902 8.28024,-2.61482 3.92223,-0.4358 5.66544,-0.6537 7.19074,-0.2179 1.52532,0.4358 1.96112,0 3.70432,1.08951 1.74321,1.0895 2.83274,1.96111 2.83274,1.96111 l 2.6148,-4.57593 -2.6148,1.08951 c 0,0 -2.61483,-0.65371 -4.57594,-1.08951 -1.96112,-0.4358 -3.70433,-0.8716 -5.44754,-0.8716 -1.7432,0 -8.93394,-0.43581 -8.93394,-0.43581 z"
         style="fill:#000000;fill-opacity:1;stroke:#000000;stroke-width:0.26499999;stroke-linecap:butt;stroke-linejoin:miter;stroke-miterlimit:4;stroke-dasharray:none;stroke-opacity:1" />
      <path
         inkscape:connector-curvature="0"
         id="path1392"
         d="m -629.51677,-171.26982 c 0,0 -0.43579,1.30741 -0.43579,1.96111 0,0.6537 0.0372,0.71909 0.26831,1.06577 0.23112,0.34668 0.077,0.50076 0.69337,0.53928 0.61629,0.0385 0.65482,0.23112 1.92598,0.1926 1.27116,-0.0385 5.73945,-0.80892 5.73945,-0.80892 l 3.31271,-0.3852 c 0,0 2.19565,-0.30816 3.2742,-0.15408 1.07854,0.15408 2.23414,0.30816 2.65787,0.42372 0.42373,0.11556 1.34818,0.34668 1.73339,0.53928 0.38521,0.1926 0.19259,0.30816 1.00153,0.69335 0.80891,0.3852 0.84743,0.50076 1.3867,0.88596 0.53928,0.3852 1.04003,0.61632 1.04003,0.61632 0,0 0.077,-0.077 0.23114,-0.11556 0.15406,-0.0385 0.96298,-1.30967 0.96298,-1.30967 0,0 -0.23112,-0.80892 -0.46223,-1.00152 -0.23112,-0.1926 -1.04005,-0.80892 -1.38671,-1.00152 -0.34668,-0.1926 -1.19412,-0.73187 -2.00305,-1.07855 -0.80891,-0.34668 -1.77189,-0.53928 -2.34972,-0.69336 -0.57779,-0.15408 -0.57779,-0.077 -2.00302,-0.15408 -1.42523,-0.077 -3.1201,-0.1926 -3.54383,-0.1926 -0.42371,0 -1.92598,-0.0385 -2.50378,0 -0.5778,0.0385 -1.84896,0.11556 -2.34971,0.11556 -0.50075,0 -1.1556,0.11556 -1.77192,0.1926 -0.61632,0.077 -0.80891,0.23112 -1.5408,0.34668 -0.73186,0.11556 -0.77039,0.15408 -1.5408,0.3852 -0.77039,0.23112 -0.73186,0.34668 -1.19412,0.26964 -0.46222,-0.077 -0.57779,-0.11557 -0.65481,-0.30816 -0.077,-0.1926 -0.48737,-1.02385 -0.48737,-1.02385 z"
         style="fill:#000000;fill-opacity:1;stroke:#000000;stroke-width:0.26458332px;stroke-linecap:butt;stroke-linejoin:miter;stroke-opacity:1" />
      <path
         inkscape:connector-curvature="0"
         id="path1394"
         d="m -664.89849,-164.67831 c 0,0 0.16343,1.68874 0.27239,2.12454 0.10895,0.4358 0.24513,1.22569 0.40857,1.63426 0.1634,0.40856 0.10893,0.95332 0.40854,1.71597 0.29962,0.76265 0.54478,1.77045 0.78991,2.0973 0.24514,0.32685 0.24514,0.59923 0.73541,1.00779 0.49028,0.40857 0.4358,0.51752 1.06228,0.68094 0.62645,0.16343 1.11673,0.27238 1.47082,0.21791 0.35409,-0.0545 0.87161,-0.21791 1.30741,-0.51752 0.4358,-0.29962 0.51753,-0.16343 1.03502,-0.70818 0.51753,-0.54475 1.03505,-0.81713 1.36189,-1.47083 0.32687,-0.65371 0.40857,-0.98056 0.76266,-1.41636 0.3541,-0.4358 0.73541,-1.4436 0.81712,-1.90664 0.0817,-0.46304 0.16343,-0.6537 0.24516,-1.17122 0.0817,-0.51751 0.0272,-0.95331 0.0817,-1.49807 0.0545,-0.54475 0,-0.84436 0,-0.98055 0,-0.13619 0.19066,-0.54476 -0.70818,-0.572 -0.89884,-0.0272 -1.5253,-0.16342 -2.75101,-0.19066 -1.22568,-0.0272 -1.06227,0.0272 -2.45139,0.0272 -1.38911,0 -1.19845,0.0272 -2.23348,0.0545 -1.03502,0.0272 -1.38911,0.0545 -1.87938,0.10895 -0.4903,0.0545 -0.65371,-0.0272 -0.68096,0.21791 -0.0272,0.24514 -0.0545,0.54475 -0.0545,0.54475 z"
         style="fill:#000000;fill-opacity:1;stroke:#000000;stroke-width:0.26458332px;stroke-linecap:butt;stroke-linejoin:miter;stroke-opacity:1" />
      <path
         inkscape:connector-curvature="0"
         id="path1400"
         d="m -653.97617,-126.49111 v 0 0 l -0.48117,-0.006 4.01089,5.40241 20.03031,5.00758 4.6224,0.30816 2.77342,-1.92599 1.07857,-4.69943 3.6979,-7.39581 -9.3218,1.23263 -16.56355,-2.61935 -11.75361,-1.40551 v 0"
         style="fill:#ffffff;fill-opacity:1;stroke:#000000;stroke-width:1;stroke-linecap:butt;stroke-linejoin:miter;stroke-miterlimit:4;stroke-dasharray:none;stroke-opacity:1" />
      <path
         sodipodi:nodetypes="cccccccccscsccccccccscccccccccc"
         inkscape:connector-curvature="0"
         id="path1396"
         d="m -658.38868,-141.3084 c 0,0 0.21791,2.39692 -0.65371,3.81327 -0.87159,1.41636 -1.19845,2.72377 -2.07005,3.37747 -0.87161,0.65371 -1.74323,1.63426 -1.74323,1.63426 l -0.65368,0.43581 c 0,0 3.92221,-0.87161 5.33858,-0.98056 1.41634,-0.10895 4.90278,0 6.31912,0.32685 1.41637,0.32685 4.03117,0.65371 5.22962,0.76266 1.19849,0.10895 2.72378,0.2179 4.24908,0.6537 1.52532,0.4358 3.48644,0.98056 5.3386,1.19846 1.85217,0.2179 3.48642,0.54475 5.44754,0.76265 1.96109,0.2179 2.07004,0.32685 4.358,0.32685 2.28799,0 3.15958,0.43581 5.01174,-0.2179 1.85216,-0.6537 2.72375,-0.6537 4.24907,-1.19845 1.5253,-0.54476 1.41637,-0.32686 1.41637,-0.32686 0,0 -1.85216,0.98056 -2.28798,2.07007 -0.4358,1.0895 -0.54475,1.19845 -1.41634,2.83271 -0.87162,1.63426 -1.0895,1.85216 -1.52533,3.37747 -0.43579,1.52531 0.26362,2.3397 -0.71695,3.64711 -0.98055,1.30741 -1.0136,1.69204 -2.35895,2.30061 -1.095,0.53154 -1.17317,0.80722 -3.57009,0.48037 -2.39691,-0.32685 -3.70432,-0.2179 -5.55646,-0.76266 -1.85216,-0.54475 -1.85161,-0.39606 -4.12749,-1.01728 -1.88584,-0.66952 -1.2998,-0.35289 -3.98328,-1.20586 -2.40957,-0.72471 -0.97397,-0.23773 -3.15297,-0.89144 -2.17901,-0.6537 -0.98055,-0.32685 -3.15958,-0.76265 -2.179,-0.4358 -2.6148,-0.32685 -4.35803,-0.4358 -2.17176,0.11806 -5.17335,-1.73164 -2.72375,0 2.179,1.52531 2.83271,1.96111 3.92221,3.05061 1.08952,1.08951 1.36188,1.11674 2.45138,2.64205 1.08951,1.52531 0,0 0,0"
         style="fill:none;stroke:#000000;stroke-width:2.5;stroke-linecap:butt;stroke-linejoin:miter;stroke-miterlimit:4;stroke-dasharray:none;stroke-opacity:1" />
      <path
         inkscape:connector-curvature="0"
         id="path1398"
         d="m -655.88281,-132.59235 1.90664,6.10124 11.2219,1.90663"
         style="fill:none;stroke:#000000;stroke-width:1;stroke-linecap:butt;stroke-linejoin:miter;stroke-miterlimit:4;stroke-dasharray:none;stroke-opacity:1" />
      <path
         inkscape:connector-curvature="0"
         id="path1402"
         d="m -637.27266,-124.33029 c 0,0 4.31422,0.61631 5.46981,0.53928 1.1556,-0.077 2.6964,0.077 3.92904,-0.23112 1.23264,-0.30816 1.15559,-0.46224 2.00303,-1.07856 0.84743,-0.61632 1.61782,-1.23264 1.61782,-1.23264 l 0.38521,-0.46223"
         style="fill:none;stroke:#000000;stroke-width:1;stroke-linecap:butt;stroke-linejoin:miter;stroke-miterlimit:4;stroke-dasharray:none;stroke-opacity:1" />
    </g>
  </g>
</svg>
