<?xml version="1.0" encoding="UTF-8" standalone="no"?>
<!-- Created with Inkscape (http://www.inkscape.org/) -->

<svg
   xmlns:dc="http://purl.org/dc/elements/1.1/"
   xmlns:cc="http://creativecommons.org/ns#"
   xmlns:rdf="http://www.w3.org/1999/02/22-rdf-syntax-ns#"
   xmlns:svg="http://www.w3.org/2000/svg"
   xmlns="http://www.w3.org/2000/svg"
   xmlns:xlink="http://www.w3.org/1999/xlink"
   xmlns:sodipodi="http://sodipodi.sourceforge.net/DTD/sodipodi-0.dtd"
   xmlns:inkscape="http://www.inkscape.org/namespaces/inkscape"
   width="564"
   height="381"
   viewBox="0 0 149.225 100.80625"
   version="1.1"
   id="svg6733"
   inkscape:version="0.92.1 r15371"
   sodipodi:docname="slime_face_gluttony_idle&amp;move.svg">
  <defs
     id="defs6727">
    <inkscape:path-effect
       effect="bspline"
       id="path-effect4562"
       is_visible="true"
       weight="33.333333"
       steps="2"
       helper_size="0"
       apply_no_weight="true"
       apply_with_weight="true"
       only_selected="false" />
    <inkscape:path-effect
       effect="bspline"
       id="path-effect4522"
       is_visible="true"
       weight="33.333333"
       steps="2"
       helper_size="0"
       apply_no_weight="true"
       apply_with_weight="true"
       only_selected="false" />
    <linearGradient
       inkscape:collect="always"
       id="linearGradient4506">
      <stop
         style="stop-color:#ff000c;stop-opacity:1"
         offset="0"
         id="stop4502" />
      <stop
         style="stop-color:#000000;stop-opacity:1"
         offset="1"
         id="stop4504" />
    </linearGradient>
    <inkscape:path-effect
       effect="bspline"
       id="path-effect4492"
       is_visible="true"
       weight="33.333333"
       steps="2"
       helper_size="0"
       apply_no_weight="true"
       apply_with_weight="true"
       only_selected="false" />
    <inkscape:path-effect
       effect="bspline"
       id="path-effect7329"
       is_visible="true"
       weight="33.333333"
       steps="2"
       helper_size="0"
       apply_no_weight="true"
       apply_with_weight="true"
       only_selected="false" />
    <linearGradient
       inkscape:collect="always"
       xlink:href="#linearGradient4506"
       id="linearGradient4510"
       gradientUnits="userSpaceOnUse"
       x1="58.523403"
       y1="253.31956"
       x2="79.483513"
       y2="247.77373" />
    <linearGradient
       inkscape:collect="always"
       xlink:href="#linearGradient4506"
       id="linearGradient4518"
       x1="61.80928"
       y1="250.189"
       x2="66.743607"
       y2="261.19754"
       gradientUnits="userSpaceOnUse" />
    <inkscape:path-effect
       effect="bspline"
       id="path-effect4522-2"
       is_visible="true"
       weight="33.333333"
       steps="2"
       helper_size="0"
       apply_no_weight="true"
       apply_with_weight="true"
       only_selected="false" />
    <inkscape:path-effect
       effect="bspline"
       id="path-effect4522-2-1"
       is_visible="true"
       weight="33.333333"
       steps="2"
       helper_size="0"
       apply_no_weight="true"
       apply_with_weight="true"
       only_selected="false" />
  </defs>
  <sodipodi:namedview
     id="base"
     pagecolor="#ffffff"
     bordercolor="#666666"
     borderopacity="1.0"
     inkscape:pageopacity="0.0"
     inkscape:pageshadow="2"
     inkscape:zoom="0.98994949"
     inkscape:cx="258.39579"
     inkscape:cy="225.64645"
     inkscape:document-units="mm"
     inkscape:current-layer="layer1"
     showgrid="false"
     units="px"
     inkscape:snap-global="false"
     inkscape:window-width="1366"
     inkscape:window-height="745"
     inkscape:window-x="-8"
     inkscape:window-y="-8"
     inkscape:window-maximized="1" />
  <metadata
     id="metadata6730">
    <rdf:RDF>
      <cc:Work
         rdf:about="">
        <dc:format>image/svg+xml</dc:format>
        <dc:type
           rdf:resource="http://purl.org/dc/dcmitype/StillImage" />
        <dc:title />
      </cc:Work>
    </rdf:RDF>
  </metadata>
  <g
     inkscape:label="Layer 1"
     inkscape:groupmode="layer"
     id="layer1"
     transform="translate(0,-196.19373)">
    <ellipse
       style="opacity:1;fill:#ffffff;fill-opacity:1;stroke:#000000;stroke-width:1.5;stroke-miterlimit:4;stroke-dasharray:none;stroke-opacity:1"
       id="path7293"
       cx="61.431053"
       cy="231.44926"
       rx="7.2162771"
       ry="8.0180855" />
    <ellipse
       style="opacity:1;fill:#ffffff;fill-opacity:1;stroke:#000000;stroke-width:1.5;stroke-miterlimit:4;stroke-dasharray:none;stroke-opacity:1"
       id="path7293-6"
       cx="80.674477"
       cy="232.25107"
       rx="7.2162771"
       ry="8.0180855" />
    <ellipse
       style="opacity:1;fill:#000000;fill-opacity:1;stroke:#000000;stroke-width:1.5;stroke-miterlimit:4;stroke-dasharray:none;stroke-opacity:1"
       id="path7310"
       cx="62.221397"
       cy="233.22659"
       rx="1.4646577"
       ry="1.4174107" />
    <ellipse
       style="opacity:1;fill:#000000;fill-opacity:1;stroke:#000000;stroke-width:1.5;stroke-miterlimit:4;stroke-dasharray:none;stroke-opacity:1"
       id="path7310-3"
       cx="81.545418"
       cy="233.88805"
       rx="1.4646577"
       ry="1.4174107" />
    <path
       style="fill:none;stroke:#000000;stroke-width:1.5;stroke-linecap:butt;stroke-linejoin:miter;stroke-miterlimit:4;stroke-dasharray:none;stroke-opacity:1"
       d="m 59.05583,254.01528 c 2.393895,1.79542 4.787746,3.59081 8.173871,4.12624 3.386124,0.53543 7.764424,-0.18904 12.142349,-0.91344"
       id="path7327"
       inkscape:connector-curvature="0"
       inkscape:path-effect="#path-effect7329"
       inkscape:original-d="m 59.05583,254.01528 c 2.39412,1.79512 4.78797,3.59051 7.18155,5.38616 4.37841,-0.7247 8.75671,-1.44917 13.13467,-2.17336" />
    <path
       style="fill:url(#linearGradient4510);fill-opacity:1;stroke:#ff0d16;stroke-width:0;stroke-linecap:butt;stroke-linejoin:miter;stroke-miterlimit:4;stroke-dasharray:none;stroke-opacity:1;fill-rule:nonzero"
       d="m 61.012592,255.36559 c 0,0 -0.511546,-0.67514 -0.734906,-1.03427 -0.212368,-0.34146 -0.407136,-0.69525 -0.573069,-1.06154 -0.206273,-0.45532 -0.402704,-0.92036 -0.522252,-1.40572 -0.09788,-0.39736 -0.175337,-0.80902 -0.155851,-1.2178 0.02101,-0.44111 0.103221,-0.89313 0.292436,-1.29214 0.212785,-0.44869 0.489183,-0.92199 0.917019,-1.17409 0.400671,-0.23611 0.913431,-0.19657 1.377973,-0.21852 0.468393,-0.0221 0.956378,-0.0514 1.403964,0.0884 0.388022,0.12121 0.712428,0.39507 1.044317,0.62981 0.336834,0.23823 0.673291,0.48569 0.955748,0.78641 0.426035,0.45357 0.817852,0.95515 1.09365,1.51297 0.238541,0.48249 0.429195,1.00916 0.465491,1.54617 0.127765,1.89034 2.905501,6.17288 2.905501,6.17288 -0.8126,0.009 -1.778559,-0.21479 -2.567496,-0.33573 -1.115964,-0.17114 -2.156742,-0.54339 -3.114418,-1.00347 -0.914258,-0.50658 -2.229658,-1.15313 -2.788109,-1.99336 z"
       id="path7333"
       inkscape:connector-curvature="0"
       sodipodi:nodetypes="caaaaaaaaaaascscc" />
    <path
       style="fill:#0dddff;fill-opacity:1;stroke:#0dddff;stroke-width:0.26499999;stroke-linecap:butt;stroke-linejoin:miter;stroke-miterlimit:4;stroke-dasharray:none;stroke-opacity:1"
       d="m 60.48784,256.1444 c 0,0 0.0695,1.98299 0.0327,2.97356 -0.048,1.29522 -0.14358,2.59172 -0.33073,3.87425 -0.12309,0.84356 -0.305463,1.67898 -0.51972,2.5041 -0.220628,0.84966 -0.561801,1.66472 -0.78698,2.51318 -0.132331,0.49863 -0.428291,1.00533 -0.33073,1.5119 0.08786,0.45618 0.327833,1.05666 0.782192,1.1535 0.375641,0.0801 0.742648,-0.3046 0.979336,-0.60708 0.294546,-0.37642 0.29939,-0.9079 0.440239,-1.36464 0.201906,-0.65474 -0.09932,-2.05925 0.580254,-1.97189 1.098408,0.1412 0.298719,2.23109 0.101296,3.32079 -0.19815,1.09372 -1.165421,2.44297 -1.264514,3.08549 -0.06912,0.4482 -0.288793,0.89904 -0.2057,1.34486 0.06631,0.35579 0.232108,0.75149 0.53978,0.94207 0.375806,0.23279 0.892083,0.17239 1.32391,0.0778 0.261531,-0.0573 0.525474,-0.18275 0.7087,-0.37797 0.260465,-0.2775 0.418714,-0.66266 0.47247,-1.03944 0.117003,-0.82007 -0.303868,-1.63288 -0.35464,-2.45971 -0.131999,-2.14959 -0.03856,-4.31274 0.132657,-6.45957 0.05436,-0.68161 0.0715,-1.38155 0.28348,-2.03163 0.1551,-0.47561 0.35983,-0.96437 0.7087,-1.32291 0.26564,-0.27301 0.620307,-0.64945 0.99219,-0.56697 0.533437,0.11831 0.88855,0.79535 0.945928,1.33873 0.0714,0.67612 -0.494497,0.90364 -0.803145,1.87488 -0.263534,0.82927 -0.41553,1.85242 0.01182,2.61039 0.163164,0.2894 0.518515,0.50562 0.85044,0.51972 0.501376,0.0213 1.051268,-0.26751 1.346544,-0.67328 0.431177,-0.59251 0.449602,-1.45027 0.330723,-2.17336 -0.180032,-1.09506 -0.643478,-1.93626 -0.376344,-2.85995 0.179197,-0.61961 0.742977,-1.07349 1.237513,-1.48758 0.402883,-0.33735 0.88239,-0.58411 1.37016,-0.77957 0.30138,-0.12077 0.65399,-0.0921 0.94494,-0.23624 0.0904,-0.0448 0.23624,-0.18899 0.23624,-0.18899 0,0 -1.31248,-0.009 -2.41497,-0.0593 -1.10249,-0.0501 -2.86217,-0.41879 -4.115,-0.98674 -1.25282,-0.56795 -1.77066,-0.85192 -2.48894,-1.28623 -0.71829,-0.43432 -1.36079,-0.73579 -1.36079,-0.73579 z"
       id="path7335"
       inkscape:connector-curvature="0"
       sodipodi:nodetypes="caaaaaaaaaasaaaaaaaaaaasaaasaaaacscccc" />
    <path
       style="fill:none;stroke:url(#linearGradient4518);stroke-width:0.26458332px;stroke-linecap:butt;stroke-linejoin:miter;stroke-opacity:1"
       d="m 61.820726,250.26521 c 0.337771,1.63673 0.675517,3.27334 1.273458,4.5821 0.597941,1.30876 1.455584,2.28846 2.313414,3.26837"
       id="path4490"
       inkscape:connector-curvature="0"
       inkscape:path-effect="#path-effect4492"
       inkscape:original-d="m 61.820726,250.26521 c 0.338077,1.63667 0.675823,3.27328 1.013436,4.91079 0.858244,0.97982 1.715886,1.95952 2.573436,2.93968"
       sodipodi:nodetypes="ccc" />
    <path
       style="fill:#00fffa;fill-opacity:1;stroke:#00fffa;stroke-width:0.1;stroke-linecap:butt;stroke-linejoin:miter;stroke-miterlimit:4;stroke-dasharray:none;stroke-opacity:1"
       d="m 58.926869,268.20767 c -0.03947,0.11457 -0.118519,0.34402 -0.139469,0.59602 -0.02095,0.25201 0.01669,0.52904 0.08027,0.74437 0.06359,0.21533 0.157084,0.37966 0.26435,0.49109 0.107266,0.11144 0.229757,0.17268 0.360706,0.19351 0.130949,0.0208 0.280526,-1.3e-4 0.385528,-0.0634 0.105001,-0.0633 0.190788,-0.1777 0.222686,-0.34889 0.0319,-0.1712 0.01065,-0.42311 -0.05574,-0.56563 -0.06639,-0.14253 -0.207386,-0.23448 -0.347908,-0.29016 -0.140523,-0.0557 -0.29364,-0.0835 -0.339786,-0.45054 -0.04615,-0.36702 0.01484,-1.07245 -0.03245,-1.19914 -0.04729,-0.12668 -0.202955,0.32565 -0.280839,0.55196 -0.07788,0.22631 -0.07789,0.22629 -0.117355,0.34085 z"
       id="path4520"
       inkscape:connector-curvature="0"
       inkscape:path-effect="#path-effect4522"
       inkscape:original-d="m 58.966338,268.09311 c -0.07878,0.22918 -0.157831,0.45863 -0.237146,0.68834 0.03755,0.27421 0.07519,0.55124 0.111865,0.8234 0.05953,0.17599 0.184013,0.32269 0.275622,0.48443 0.122763,0.061 0.245262,0.12223 0.367496,0.18375 0.139467,-0.0198 0.29656,0.0129 0.417607,-0.0585 0.08152,-0.1086 0.167307,-0.22298 0.250565,-0.33408 -0.01922,-0.23134 -0.04047,-0.48325 -0.05846,-0.69323 -0.07841,-0.13126 -0.255867,-0.16731 -0.384198,-0.25057 -0.152859,-0.0281 -0.305981,-0.0559 -0.459371,-0.0835 0.06129,-0.70615 0.122272,-1.41158 0.18301,-2.11697 -0.155397,0.45205 -0.311063,0.90438 -0.466988,1.35695 z"
       sodipodi:nodetypes="caaasaaaacccc" />
    <path
       style="fill:#00fffa;fill-opacity:1;stroke:#00fffa;stroke-width:0.1;stroke-linecap:butt;stroke-linejoin:miter;stroke-miterlimit:4;stroke-dasharray:none;stroke-opacity:1"
       d="m 60.379319,273.33704 c -0.03947,0.11457 -0.118519,0.34402 -0.139469,0.59602 -0.02095,0.25201 0.01709,0.53198 0.08321,0.74858 0.06612,0.21659 0.169475,0.39377 0.309445,0.5197 0.139971,0.12594 0.326502,0.21782 0.518704,0.2442 0.192202,0.0264 0.405814,-0.0157 0.535519,-0.0856 0.129705,-0.0699 0.218968,-0.1889 0.250866,-0.36009 0.0319,-0.1712 0.01052,-0.42472 -0.0558,-0.56644 -0.06632,-0.14172 -0.207321,-0.23367 -0.456453,-0.21168 -0.249131,0.022 -0.702629,0.17828 -0.857448,-0.0216 -0.154819,-0.19986 -0.05209,-0.74109 -0.03392,-0.96102 0.01817,-0.21994 -0.04841,-0.11841 -0.08179,-0.0675 -0.03339,0.0509 -0.03339,0.0509 -0.07286,0.16546 z"
       id="path4520-9"
       inkscape:connector-curvature="0"
       inkscape:path-effect="#path-effect4522-2"
       inkscape:original-d="m 60.418788,273.22248 c -0.07878,0.22918 -0.157831,0.45863 -0.237146,0.68834 0.03755,0.27421 0.0217,0.5615 0.111865,0.8234 0.09599,0.16383 0.150852,0.36929 0.292326,0.50113 0.186805,0.0916 0.373329,0.18349 0.559596,0.27563 0.197932,-0.0393 0.411551,-0.0814 0.593003,-0.11697 0.117864,-0.0741 0.167308,-0.22298 0.250565,-0.33408 -0.01922,-0.23134 -0.0406,-0.48486 -0.05846,-0.69323 -0.07841,-0.13125 -0.255867,-0.16731 -0.384198,-0.25057 -0.432527,-0.0535 -0.823684,0.28368 -1.236123,0.42599 0.103062,-0.54184 0.205793,-1.08307 0.308292,-1.6242 -0.06631,0.10126 -0.132882,0.20279 -0.199718,0.30458 z"
       sodipodi:nodetypes="caaaaaaaacccc" />
    <path
       style="fill:#00fffa;fill-opacity:1;stroke:#00fffa;stroke-width:0.11416574;stroke-linecap:butt;stroke-linejoin:miter;stroke-miterlimit:4;stroke-dasharray:none;stroke-opacity:1"
       d="m 67.15844,264.77395 c 0.04474,0.13172 0.134352,0.39555 0.158099,0.68531 0.02375,0.28975 -0.0194,0.6119 -0.09434,0.86082 -0.07494,0.24892 -0.192487,0.45332 -0.350962,0.59778 -0.158475,0.14447 -0.369912,0.2501 -0.587791,0.28044 -0.217878,0.0303 -0.460021,-0.0181 -0.606797,-0.0981 -0.146777,-0.08 -0.24847,-0.21755 -0.284628,-0.41438 -0.03616,-0.19683 -0.01192,-0.48833 0.06367,-0.65155 0.07559,-0.16322 0.234603,-0.26841 0.516105,-0.24344 0.281501,0.025 0.797383,0.2053 0.972883,-0.0245 0.175501,-0.2298 0.05905,-0.8521 0.03846,-1.10499 -0.02059,-0.25288 0.05487,-0.13615 0.09271,-0.0776 0.03785,0.0585 0.03785,0.0585 0.08259,0.19024 z"
       id="path4520-9-4"
       inkscape:connector-curvature="0"
       inkscape:path-effect="#path-effect4522-2-1"
       inkscape:original-d="m 67.1137,264.64223 c 0.0893,0.2635 0.178914,0.52733 0.268823,0.79145 -0.04256,0.31529 -0.0246,0.64562 -0.126807,0.94674 -0.108809,0.18838 -0.171002,0.42461 -0.331374,0.5762 -0.211757,0.10535 -0.423196,0.21098 -0.634343,0.31692 -0.224371,-0.0452 -0.466524,-0.0936 -0.672214,-0.1345 -0.133608,-0.0851 -0.189656,-0.25638 -0.284034,-0.38412 0.02178,-0.26599 0.04603,-0.55749 0.06627,-0.79707 0.08888,-0.15091 0.290046,-0.19237 0.435517,-0.2881 0.490303,-0.0615 0.933708,0.32617 1.401239,0.4898 -0.116828,-0.62301 -0.233282,-1.24531 -0.349473,-1.86751 0.07517,0.11644 0.150632,0.23317 0.226395,0.35021 z"
       sodipodi:nodetypes="caaaaaaaacccc" />
    <path
       style="fill:#00fffa;stroke:#00fffa;stroke-width:0.065;stroke-linecap:butt;stroke-linejoin:miter;stroke-opacity:1;stroke-miterlimit:4;stroke-dasharray:none;fill-opacity:1"
       d="m 65.230532,258.64683 c -0.317318,-0.13361 -0.952082,-0.40088 -1.573013,-0.71273 -0.620931,-0.31186 -1.227729,-0.66814 -1.673198,-0.92985 -0.44547,-0.26172 -0.729404,-0.42874 -0.812978,-0.33692 -0.08357,0.0918 0.03333,0.44251 0.150284,0.80174 0.116957,0.35922 0.233834,0.72655 0.183775,1.13861 -0.05006,0.41207 -0.267122,0.86846 -0.359073,1.24723 -0.09195,0.37878 -0.05857,0.67925 0.117088,0.84086 0.175653,0.1616 0.492793,0.18385 0.740491,0.0724 0.247698,-0.11143 0.426016,-0.35661 0.489956,-0.68485 0.06394,-0.32823 0.01377,-0.74077 -0.0419,-1.0859 -0.05567,-0.34513 -0.116955,-0.62369 -0.06951,-0.80461 0.04745,-0.18092 0.203479,-0.26451 0.364719,-0.28115 0.161241,-0.0166 0.328618,0.0336 0.464866,0.17257 0.136249,0.13901 0.242148,0.36753 0.236652,0.60692 -0.0055,0.2394 -0.122367,0.48984 -0.102833,0.67383 0.01953,0.184 0.175242,0.30078 0.32848,0.31182 0.153237,0.011 0.303615,-0.0837 0.367504,-0.22546 0.06389,-0.14182 0.04157,-0.33152 0.01652,-0.48733 -0.02505,-0.15582 -0.05292,-0.27847 0.05562,-0.33962 0.108538,-0.0611 0.353924,-0.0611 0.615429,-0.025 0.261505,0.0362 0.540223,0.10864 0.679334,0.14481 0.13911,0.0362 0.139112,0.0362 -0.178206,-0.0974 z"
       id="path4560"
       inkscape:connector-curvature="0"
       inkscape:path-effect="#path-effect4562"
       inkscape:original-d="m 65.54785,258.78044 c -0.6345,-0.26754 -1.269264,-0.53481 -1.904293,-0.80181 -0.606785,-0.3567 -1.213586,-0.71298 -1.820775,-1.06908 -0.283747,-0.16733 -0.567682,-0.33435 -0.851922,-0.50113 0.117229,0.35062 0.234125,0.70132 0.350793,1.05237 0.117247,0.3674 0.234124,0.73473 0.35079,1.10249 -0.216988,0.45652 -0.434049,0.91291 -0.651471,1.36976 0.0337,0.30062 0.06708,0.60109 0.100227,0.90203 0.317892,0.022 0.635029,0.0443 0.952148,0.0668 0.178308,-0.24507 0.356624,-0.49026 0.534538,-0.73499 -0.04979,-0.41181 -0.09996,-0.82435 -0.150339,-1.23612 -0.06095,-0.27852 -0.122232,-0.55708 -0.183748,-0.83522 0.156062,-0.0837 0.312082,-0.16731 0.467723,-0.25057 0.16697,0.0498 0.334351,0.1 0.501131,0.15034 0.10595,0.2278 0.211852,0.45632 0.317381,0.68488 -0.116723,0.25043 -0.233595,0.50087 -0.35079,0.7517 0.156369,0.11681 0.312079,0.23359 0.467723,0.35079 0.150561,-0.0949 0.300942,-0.18958 0.451016,-0.28398 -0.02196,-0.18919 -0.04428,-0.37889 -0.06682,-0.56794 -0.02754,-0.12262 -0.05542,-0.24527 -0.08352,-0.3675 0.244871,-2.6e-4 0.490257,-2.6e-4 0.734991,0 0.278368,0.072 0.557075,0.14451 0.835215,0.21716 z" />
    <ellipse
       style="opacity:1;fill:#ffffff;fill-opacity:1;fill-rule:nonzero;stroke:#000000;stroke-width:0.08324359;stroke-miterlimit:4;stroke-dasharray:none;stroke-opacity:1"
       id="path4564"
       cx="62.818478"
       cy="232.93301"
       rx="0.86138672"
       ry="0.86494815" />
    <ellipse
       style="opacity:1;fill:#ffffff;fill-opacity:1;fill-rule:nonzero;stroke:#000000;stroke-width:0.08324359;stroke-miterlimit:4;stroke-dasharray:none;stroke-opacity:1"
       id="path4564-2"
       cx="82.115326"
       cy="233.31099"
       rx="0.86138672"
       ry="0.86494815" />
  </g>
</svg>
