<?xml version="1.0" encoding="UTF-8" standalone="no"?>
<!-- Created with Inkscape (http://www.inkscape.org/) -->

<svg
   xmlns:dc="http://purl.org/dc/elements/1.1/"
   xmlns:cc="http://creativecommons.org/ns#"
   xmlns:rdf="http://www.w3.org/1999/02/22-rdf-syntax-ns#"
   xmlns:svg="http://www.w3.org/2000/svg"
   xmlns="http://www.w3.org/2000/svg"
   xmlns:sodipodi="http://sodipodi.sourceforge.net/DTD/sodipodi-0.dtd"
   xmlns:inkscape="http://www.inkscape.org/namespaces/inkscape"
   width="564"
   height="381"
   viewBox="0 0 149.225 100.80625"
   version="1.1"
   id="svg6733"
   inkscape:version="0.92.1 r15371"
   sodipodi:docname="slime_face_gluttony_idle&amp;move.svg">
  <defs
     id="defs6727">
    <inkscape:path-effect
       effect="bspline"
       id="path-effect7329"
       is_visible="true"
       weight="33.333333"
       steps="2"
       helper_size="0"
       apply_no_weight="true"
       apply_with_weight="true"
       only_selected="false" />
  </defs>
  <sodipodi:namedview
     id="base"
     pagecolor="#ffffff"
     bordercolor="#666666"
     borderopacity="1.0"
     inkscape:pageopacity="0.0"
     inkscape:pageshadow="2"
     inkscape:zoom="0.98994949"
     inkscape:cx="216.38073"
     inkscape:cy="168.67955"
     inkscape:document-units="mm"
     inkscape:current-layer="layer1"
     showgrid="false"
     units="px"
     inkscape:snap-global="true"
     inkscape:window-width="1366"
     inkscape:window-height="745"
     inkscape:window-x="-8"
     inkscape:window-y="-8"
     inkscape:window-maximized="1" />
  <metadata
     id="metadata6730">
    <rdf:RDF>
      <cc:Work
         rdf:about="">
        <dc:format>image/svg+xml</dc:format>
        <dc:type
           rdf:resource="http://purl.org/dc/dcmitype/StillImage" />
        <dc:title></dc:title>
      </cc:Work>
    </rdf:RDF>
  </metadata>
  <g
     inkscape:label="Layer 1"
     inkscape:groupmode="layer"
     id="layer1"
     transform="translate(0,-196.19373)">
    <ellipse
       style="opacity:1;fill:none;fill-opacity:1;stroke:#000000;stroke-width:1.5;stroke-miterlimit:4;stroke-dasharray:none;stroke-opacity:1"
       id="path7293"
       cx="61.431053"
       cy="231.44926"
       rx="7.2162771"
       ry="8.0180855" />
    <ellipse
       style="opacity:1;fill:none;fill-opacity:1;stroke:#000000;stroke-width:1.5;stroke-miterlimit:4;stroke-dasharray:none;stroke-opacity:1"
       id="path7293-6"
       cx="80.674477"
       cy="232.25107"
       rx="7.2162771"
       ry="8.0180855" />
    <ellipse
       style="opacity:1;fill:#000000;fill-opacity:1;stroke:#000000;stroke-width:1.5;stroke-miterlimit:4;stroke-dasharray:none;stroke-opacity:1"
       id="path7310"
       cx="62.221397"
       cy="233.22659"
       rx="1.4646577"
       ry="1.4174107" />
    <ellipse
       style="opacity:1;fill:#000000;fill-opacity:1;stroke:#000000;stroke-width:1.5;stroke-miterlimit:4;stroke-dasharray:none;stroke-opacity:1"
       id="path7310-3"
       cx="81.545418"
       cy="233.88805"
       rx="1.4646577"
       ry="1.4174107" />
    <path
       style="fill:none;stroke:#000000;stroke-width:1.5;stroke-linecap:butt;stroke-linejoin:miter;stroke-miterlimit:4;stroke-dasharray:none;stroke-opacity:1"
       d="m 59.05583,254.01528 c 2.393895,1.79542 4.787746,3.59081 8.173871,4.12624 3.386124,0.53543 7.764424,-0.18904 12.142349,-0.91344"
       id="path7327"
       inkscape:connector-curvature="0"
       inkscape:path-effect="#path-effect7329"
       inkscape:original-d="m 59.05583,254.01528 c 2.39412,1.79512 4.78797,3.59051 7.18155,5.38616 4.37841,-0.7247 8.75671,-1.44917 13.13467,-2.17336" />
    <path
       style="fill:none;stroke:#000000;stroke-width:1.5;stroke-linecap:butt;stroke-linejoin:miter;stroke-miterlimit:4;stroke-dasharray:none;stroke-opacity:1"
       d="m 62.64661,255.69255 c 0,0 -0.63667,-1.01646 -0.93992,-1.53374 -0.22042,-0.37599 -0.43001,-0.75826 -0.63907,-1.14068 -0.23978,-0.4386 -0.52222,-0.85821 -0.70563,-1.32321 -0.15016,-0.3807 -0.282,-0.77829 -0.31738,-1.186 -0.0382,-0.43996 -0.0172,-0.89891 0.11693,-1.31965 0.15084,-0.47313 0.36143,-0.97915 0.75169,-1.28623 0.36548,-0.28759 0.87892,-0.31701 1.33635,-0.40091 0.46122,-0.0846 0.9409,-0.17891 1.40317,-0.10022 0.40075,0.0682 0.75888,0.2962 1.11919,0.48442 0.36568,0.19103 0.73222,0.39125 1.05237,0.65147 0.48289,0.3925 0.93829,0.83714 1.28624,1.35305 0.30095,0.44624 0.49981,0.95876 0.66817,1.46999 0.16738,0.50826 0.20702,1.05039 0.33409,1.5702 0.12895,0.52753 0.18189,1.08939 0.43431,1.57021 0.29029,0.55296 0.82169,0.94175 1.20271,1.43658 0.24129,0.31336 0.48014,0.63047 0.68488,0.96885 0.13923,0.2301 0.3675,0.71829 0.3675,0.71829 v 0 c 0,0 -1.68714,0.0668 -2.47225,-0.0835 -0.7851,-0.15034 -2.3386,-0.31738 -3.12371,-0.58465 -0.7851,-0.26727 -1.88759,-0.80181 -2.10475,-0.93545 -0.21715,-0.13363 -0.45489,-0.3288 -0.45489,-0.3288 z"
       id="path7333"
       inkscape:connector-curvature="0"
       sodipodi:nodetypes="caaaaaaaaaaaaaaaaccccccc" />
    <path
       style="fill:#0dddff;fill-opacity:1;stroke:#0dddff;stroke-width:0.26499999;stroke-linecap:butt;stroke-linejoin:miter;stroke-miterlimit:4;stroke-dasharray:none;stroke-opacity:1"
       d="m 60.48784,256.1444 c 0,0 0.0695,1.98299 0.0327,2.97356 -0.048,1.29522 -0.14358,2.59172 -0.33073,3.87425 -0.12309,0.84356 -0.32968,1.67306 -0.51972,2.5041 -0.15923,0.69631 -0.35675,1.38342 -0.51971,2.07887 -0.11769,0.50228 -0.28643,0.99792 -0.33073,1.5119 -0.0311,0.36123 -0.18208,0.80581 0.0472,1.08668 0.0821,0.10061 0.26353,0.15587 0.37798,0.0945 0.27985,-0.15007 0.004,-0.93653 0.31891,-0.89769 0.59689,0.0736 0.18986,1.19471 0.17313,1.79588 -0.0126,0.45332 -0.28879,0.89904 -0.2057,1.34486 0.0663,0.35579 0.23211,0.75149 0.53978,0.94207 0.37581,0.23279 0.89209,0.17238 1.32391,0.0778 0.26153,-0.0573 0.52548,-0.18276 0.7087,-0.37797 0.26047,-0.27751 0.41872,-0.66266 0.47247,-1.03944 0.11701,-0.82007 -0.34737,-1.63136 -0.35464,-2.45971 -0.0132,-1.50798 0.36827,-2.99357 0.56697,-4.48846 0.0901,-0.67781 0.0715,-1.38155 0.28348,-2.03163 0.1551,-0.47561 0.35983,-0.96437 0.7087,-1.32291 0.26564,-0.27301 0.61135,-0.57448 0.99219,-0.56697 0.14855,0.003 0.29062,0.11606 0.37798,0.23624 0.19091,0.26261 0.15748,0.62996 0.23623,0.94494 0.0473,0.18899 0.0264,0.40997 0.14175,0.56696 0.1967,0.26774 0.52538,0.45112 0.85044,0.51972 0.23319,0.0492 0.52064,0.0519 0.70871,-0.0945 0.2677,-0.20838 0.30592,-0.61344 0.37797,-0.94494 0.0703,-0.32355 -0.0638,-0.68026 0.0472,-0.99219 0.15107,-0.42434 0.46629,-0.78771 0.8032,-1.08668 0.39304,-0.34877 0.88239,-0.58411 1.37016,-0.77957 0.30138,-0.12077 0.65399,-0.0921 0.94494,-0.23624 0.0904,-0.0448 0.23624,-0.18899 0.23624,-0.18899 0,0 -1.31248,-0.009 -2.41497,-0.0593 -1.10249,-0.0501 -2.86217,-0.41879 -4.115,-0.98674 -1.25282,-0.56795 -1.77066,-0.85192 -2.48894,-1.28623 -0.71829,-0.43432 -1.36079,-0.73579 -1.36079,-0.73579 z"
       id="path7335"
       inkscape:connector-curvature="0"
       sodipodi:nodetypes="caaaaaaaaaaaaaaaaaaaaaaaaaaaaacscccc" />
  </g>
</svg>
