<?xml version="1.0" encoding="UTF-8" standalone="no"?>
<!-- Created with Inkscape (http://www.inkscape.org/) -->

<svg
   xmlns:dc="http://purl.org/dc/elements/1.1/"
   xmlns:cc="http://creativecommons.org/ns#"
   xmlns:rdf="http://www.w3.org/1999/02/22-rdf-syntax-ns#"
   xmlns:svg="http://www.w3.org/2000/svg"
   xmlns="http://www.w3.org/2000/svg"
   xmlns:sodipodi="http://sodipodi.sourceforge.net/DTD/sodipodi-0.dtd"
   xmlns:inkscape="http://www.inkscape.org/namespaces/inkscape"
   width="564"
   height="381"
   viewBox="0 0 149.225 100.80625"
   version="1.1"
   id="svg8"
   inkscape:export-filename="C:\Users\palme_000\Documents\Grado en Ingenieria Informatica UB\Cuarto Curso\Test\ES2017F2\Wiki Resources\Icons\pointer.png"
   inkscape:export-xdpi="95.145264"
   inkscape:export-ydpi="95.145264"
   inkscape:version="0.92.1 r15371"
   sodipodi:docname="pointer.svg">
  <defs
     id="defs2" />
  <sodipodi:namedview
     id="base"
     pagecolor="#ffffff"
     bordercolor="#666666"
     borderopacity="1.0"
     inkscape:pageopacity="0.0"
     inkscape:pageshadow="2"
     inkscape:zoom="1.979899"
     inkscape:cx="333.44243"
     inkscape:cy="201.30709"
     inkscape:document-units="mm"
     inkscape:current-layer="layer1"
     showgrid="false"
     units="px"
     inkscape:snap-global="true"
     inkscape:window-width="1366"
     inkscape:window-height="745"
     inkscape:window-x="-8"
     inkscape:window-y="-8"
     inkscape:window-maximized="1" />
  <metadata
     id="metadata5">
    <rdf:RDF>
      <cc:Work
         rdf:about="">
        <dc:format>image/svg+xml</dc:format>
        <dc:type
           rdf:resource="http://purl.org/dc/dcmitype/StillImage" />
        <dc:title></dc:title>
      </cc:Work>
    </rdf:RDF>
  </metadata>
  <g
     inkscape:label="Layer 1"
     inkscape:groupmode="layer"
     id="layer1"
     transform="translate(0,-196.1937)">
    <path
       style="fill:#000000;fill-opacity:1;stroke:#000000;stroke-width:0.65210158;stroke-linecap:butt;stroke-linejoin:miter;stroke-miterlimit:4;stroke-dasharray:none;stroke-opacity:1"
       d="m 96.383481,253.83411 c 0.527586,-0.91389 0.294191,-2.21946 -0.183458,-3.16042 -1.216062,-2.39559 -3.767274,-3.87388 -6.219502,-5.12609 -1.754518,-0.89593 -4.967334,-2.00187 -5.015858,-3.12579 0.101746,-2.08229 5.24876,-0.96666 5.465749,-3.04012 0.239261,-2.28626 -3.409132,-4.15162 -5.202124,-4.52725 -2.098689,-0.54091 -9.772875,-1.10442 -13.396592,-0.60893 -0.987825,3.74272 -1.379058,7.47819 -0.2268,12.02899 0.395739,1.56296 2.159602,6.64872 4.848961,6.47049 2.196081,-0.14553 1.973661,-5.88231 3.227699,-5.75999 2.053107,-0.11671 2.589232,0.868 3.463588,1.83989 1.574345,1.74996 1.905417,4.40739 3.4335,6.21463 0.860361,1.01754 1.798682,2.41143 3.129003,2.48793 1.104813,0.0635 1.853197,-1.21321 2.818317,-1.75468 1.255054,-0.70415 3.138022,-0.69235 3.857517,-1.93866 z"
       id="path4485-0-2"
       inkscape:connector-curvature="0"
       sodipodi:nodetypes="aascaccsacsaaaa" />
    <path
       style="fill:#167b16;fill-opacity:1;stroke:#004920;stroke-width:0.65210158;stroke-linecap:butt;stroke-linejoin:miter;stroke-miterlimit:4;stroke-dasharray:none;stroke-opacity:1"
       d="m 96.130681,251.5589 c 0.527586,-0.91389 0.294191,-2.21946 -0.183458,-3.16041 -1.216062,-2.3956 -3.767275,-3.87388 -6.219498,-5.12609 -1.754522,-0.89594 -4.967337,-2.00187 -5.015861,-3.12579 0.101746,-2.0823 5.248761,-0.96666 5.465751,-3.04012 0.239261,-2.28626 -3.409134,-4.15162 -5.202125,-4.52725 -2.098689,-0.54091 -9.772876,-1.10442 -13.396593,-0.60894 -0.987825,3.74272 -1.379058,7.4782 -0.2268,12.02899 0.395739,1.56296 2.159602,6.64873 4.848961,6.4705 2.196081,-0.14554 1.973661,-5.88231 3.227699,-5.76 2.053107,-0.11671 2.589232,0.86801 3.463589,1.83989 1.574345,1.74997 1.905416,4.40739 3.433499,6.21464 0.860362,1.01754 1.798682,2.41143 3.129004,2.48793 1.104813,0.0635 1.853198,-1.21321 2.818314,-1.75469 1.255054,-0.70414 3.138023,-0.69234 3.857518,-1.93866 z"
       id="path4485-0"
       inkscape:connector-curvature="0"
       sodipodi:nodetypes="aascaccsacsaaaa" />
    <path
       style="fill:#0ac80a;fill-opacity:1;stroke:#000000;stroke-width:0;stroke-linecap:butt;stroke-linejoin:miter;stroke-miterlimit:4;stroke-dasharray:none;stroke-opacity:1"
       d="m 71.909299,232.89326 c 0,0 -0.398724,2.1025 -0.509791,3.16546 -0.106116,1.01557 -0.198142,2.03979 -0.14865,3.05968 0.04024,0.82918 0.203597,1.64908 0.361141,2.46415 0.187988,0.97258 0.385138,1.94854 0.695839,2.88913 0.305298,0.92424 0.663686,1.83975 1.141788,2.6876 0.36995,0.65605 0.762825,1.32797 1.322358,1.83215 0.356505,0.32123 0.770205,0.67787 1.248505,0.7168 0.256285,0.0209 0.542368,-0.0871 0.722282,-0.27085 0.366359,-0.37409 0.392183,-0.9744 0.520744,-1.48197 0.124108,-0.48999 0.178341,-0.99563 0.238935,-1.49745 0.04666,-0.3864 0.175362,-0.78271 0.09576,-1.16369 -0.07408,-0.35455 -0.210123,-0.76154 -0.515268,-0.95669 -0.318421,-0.20362 -0.811438,-0.26992 -1.131774,-0.0693 -0.240183,0.15041 -0.24222,0.51471 -0.323744,0.78612 -0.119492,0.39781 0.163167,1.11883 -0.238934,1.223 -0.723659,0.18746 -1.079094,-1.0633 -1.444566,-1.71542 -0.558331,-0.99624 -0.801242,-2.14365 -1.083423,-3.25027 -0.294643,-1.15549 -0.481873,-2.33815 -0.631997,-3.52113 -0.07599,-0.59879 -0.09495,-1.20347 -0.135428,-1.80571 -0.06924,-1.03003 -0.183779,-3.0916 -0.183779,-3.0916 z"
       id="path5442"
       inkscape:connector-curvature="0"
       sodipodi:nodetypes="caaaaaaaaaaaaaaaaaaac" />
    <path
       style="fill:#0ac80a;fill-opacity:1;stroke:#000000;stroke-width:0;stroke-linecap:butt;stroke-linejoin:miter;stroke-miterlimit:4;stroke-dasharray:none;stroke-opacity:1"
       d="m 82.003159,244.76316 c 0,0 1.26972,1.25653 1.787558,1.97908 0.610452,0.85178 1.063539,1.80787 1.532192,2.74517 0.281193,0.56239 0.461643,1.17358 0.766097,1.72372 0.304367,0.54998 0.646906,1.08464 1.053381,1.56412 0.323293,0.38135 0.692188,0.72748 1.090116,1.03014 0.30841,0.23458 0.61172,0.54424 0.995018,0.60101 0.351277,0.052 0.723121,-0.0883 1.032414,-0.26277 0.401076,-0.22625 0.618285,-0.68983 0.984068,-0.96957 0.297158,-0.22725 0.733918,-0.27467 0.969568,-0.56522 0.183224,-0.2259 0.32231,-0.54144 0.274394,-0.82834 -0.04042,-0.24189 -0.243437,-0.44672 -0.445756,-0.58533 -0.292385,-0.20032 -0.667528,-0.31399 -1.021459,-0.29526 -0.37292,0.0197 -0.731362,0.20897 -1.037422,0.42295 -0.335823,0.23478 -0.422509,0.8426 -0.826729,0.90973 -0.451145,0.0749 -0.865818,-0.35185 -1.201368,-0.66258 -0.752802,-0.69712 -1.085008,-1.74382 -1.688863,-2.5733 -0.415033,-0.57011 -0.870736,-1.10988 -1.326506,-1.64798 -0.506571,-0.59807 -0.961346,-1.25467 -1.564113,-1.75564 -0.411189,-0.34174 -1.37259,-0.82993 -1.37259,-0.82993 z"
       id="path5444"
       inkscape:connector-curvature="0"
       sodipodi:nodetypes="caaaaaaaaaaaaaaaaaac" />
    <path
       style="color:#000000;font-style:normal;font-variant:normal;font-weight:normal;font-stretch:normal;font-size:medium;line-height:normal;font-family:sans-serif;font-variant-ligatures:normal;font-variant-position:normal;font-variant-caps:normal;font-variant-numeric:normal;font-variant-alternates:normal;font-feature-settings:normal;text-indent:0;text-align:start;text-decoration:none;text-decoration-line:none;text-decoration-style:solid;text-decoration-color:#000000;letter-spacing:normal;word-spacing:normal;text-transform:none;writing-mode:lr-tb;direction:ltr;text-orientation:mixed;dominant-baseline:auto;baseline-shift:baseline;text-anchor:start;white-space:normal;shape-padding:0;clip-rule:nonzero;display:inline;overflow:visible;visibility:visible;opacity:1;isolation:auto;mix-blend-mode:normal;color-interpolation:sRGB;color-interpolation-filters:linearRGB;solid-color:#000000;solid-opacity:1;vector-effect:none;fill:#040000;fill-opacity:1;fill-rule:evenodd;stroke:none;stroke-width:0.70700002;stroke-linecap:square;stroke-linejoin:round;stroke-miterlimit:4;stroke-dasharray:none;stroke-dashoffset:0;stroke-opacity:1;paint-order:stroke markers fill;color-rendering:auto;image-rendering:auto;shape-rendering:auto;text-rendering:auto;enable-background:accumulate"
       d="m 12.494141,246.13281 c -1.102269,0 -2.089437,0.58508 -2.7832035,1.48828 -0.6937664,0.90321 -1.1113283,2.12811 -1.1113281,3.47461 2e-6,1.3465 0.4175619,2.57336 1.1113281,3.47657 0.6937665,0.9032 1.6809365,1.48828 2.7832035,1.48828 1.102267,0 2.09139,-0.58508 2.785156,-1.48828 0.693766,-0.90321 1.111326,-2.13007 1.111328,-3.47657 0,-1.3465 -0.417562,-2.5714 -1.111328,-3.47461 -0.693767,-0.9032 -1.682888,-1.48828 -2.785156,-1.48828 z m -0.02362,3.1875 c 0.784853,-0.008 1.638785,0.0258 2.319104,0.40774 0.474913,0.26661 0.893973,0.1679 0.893973,1.36765 -2e-6,1.19976 -0.376904,2.2795 -0.964844,3.04492 -0.58794,0.76543 -1.371062,1.2129 -2.224609,1.2129 -0.853548,0 -1.634717,-0.44747 -2.222657,-1.2129 -0.5879392,-0.76542 -0.9648415,-1.84516 -0.9648434,-3.04492 -10e-8,-1.19975 0.3882208,-1.0691 0.8467254,-1.3204 0.700987,-0.38419 1.530057,-0.44718 2.317151,-0.45499 z"
       id="path5495"
       inkscape:connector-curvature="0"
       sodipodi:nodetypes="scccscccsasccsccsa" />
    <path
       style="fill:#ffffff;fill-opacity:1;stroke:#000000;stroke-width:0.26458332px;stroke-linecap:butt;stroke-linejoin:miter;stroke-opacity:1"
       d="m 12.470521,249.32031 c -0.726212,0.0638 -1.474436,0.0989 -2.158858,0.34993 -0.3150657,0.11557 -0.6730769,0.24253 -0.8622583,0.51972 -0.1711332,0.25074 -0.1411511,0.59437 -0.1535528,0.89769 -0.014693,0.35937 0.021376,0.72271 0.094494,1.07487 0.078465,0.37791 0.2052678,0.74766 0.3661643,1.0985 0.1280714,0.27926 0.2890678,0.5449 0.4724698,0.79138 0.187986,0.25264 0.400585,0.48983 0.637835,0.6969 0.140705,0.12281 0.294663,0.23333 0.460659,0.31892 0.133944,0.0691 0.280371,0.11198 0.425223,0.15355 0.197447,0.0567 0.397639,0.11352 0.6024,0.12993 0.149343,0.012 0.300776,-7.5e-4 0.448846,-0.0236 0.217071,-0.0335 0.434656,-0.0819 0.637835,-0.16536 0.210522,-0.0864 0.407205,-0.20777 0.590588,-0.34254 0.154941,-0.11387 0.292322,-0.25083 0.425223,-0.38979 0.13136,-0.13735 0.255671,-0.28241 0.366165,-0.43704 0.128371,-0.17965 0.241451,-0.37066 0.342541,-0.56696 0.08639,-0.16776 0.159175,-0.34266 0.224423,-0.51972 0.07407,-0.201 0.143801,-0.40482 0.188988,-0.61421 0.04605,-0.21338 0.06414,-0.43214 0.08268,-0.64965 0.01539,-0.18063 0.02511,-0.36206 0.02362,-0.54334 -0.0016,-0.19721 -0.0034,-0.39599 -0.03543,-0.59059 -0.02187,-0.13289 -0.02342,-0.28363 -0.106304,-0.38978 -0.113908,-0.14589 -0.319833,-0.18672 -0.484282,-0.27167 -0.220631,-0.11397 -0.436744,-0.24327 -0.67327,-0.31892 -0.319994,-0.10234 -0.658508,-0.1381 -0.992188,-0.17718 -0.207589,-0.0243 -0.417061,-0.031 -0.626023,-0.0354 -0.09932,-0.002 -0.199029,-0.004 -0.297988,0.004 z"
       id="path5515"
       inkscape:connector-curvature="0"
       sodipodi:nodetypes="aaaaaaaaaaaaaaaaaaaaaaaaaaaa" />
    <path
       style="color:#000000;font-style:normal;font-variant:normal;font-weight:normal;font-stretch:normal;font-size:medium;line-height:normal;font-family:sans-serif;font-variant-ligatures:normal;font-variant-position:normal;font-variant-caps:normal;font-variant-numeric:normal;font-variant-alternates:normal;font-feature-settings:normal;text-indent:0;text-align:start;text-decoration:none;text-decoration-line:none;text-decoration-style:solid;text-decoration-color:#000000;letter-spacing:normal;word-spacing:normal;text-transform:none;writing-mode:lr-tb;direction:ltr;text-orientation:mixed;dominant-baseline:auto;baseline-shift:baseline;text-anchor:start;white-space:normal;shape-padding:0;clip-rule:nonzero;display:inline;overflow:visible;visibility:visible;opacity:1;isolation:auto;mix-blend-mode:normal;color-interpolation:sRGB;color-interpolation-filters:linearRGB;solid-color:#000000;solid-opacity:1;vector-effect:none;fill:#040000;fill-opacity:1;fill-rule:evenodd;stroke:none;stroke-width:0.70700002;stroke-linecap:square;stroke-linejoin:round;stroke-miterlimit:4;stroke-dasharray:none;stroke-dashoffset:0;stroke-opacity:1;paint-order:stroke markers fill;color-rendering:auto;image-rendering:auto;shape-rendering:auto;text-rendering:auto;enable-background:accumulate"
       d="m 18.844145,246.13281 c -1.102269,0 -2.089437,0.58508 -2.783204,1.48828 -0.693766,0.90321 -1.111329,2.12811 -1.111328,3.47461 2e-6,1.3465 0.417562,2.57336 1.111328,3.47657 0.693767,0.9032 1.680937,1.48828 2.783204,1.48828 1.102267,0 2.09139,-0.58508 2.785156,-1.48828 0.693766,-0.90321 1.111326,-2.13007 1.111328,-3.47657 0,-1.3465 -0.417562,-2.5714 -1.111328,-3.47461 -0.693767,-0.9032 -1.682888,-1.48828 -2.785156,-1.48828 z m -0.02362,2.36303 c 0.784853,-0.008 1.638785,0.0258 2.319104,0.40774 0.474913,0.26661 0.893973,0.99237 0.893973,2.19212 -2e-6,1.19976 -0.376904,2.2795 -0.964844,3.04492 -0.58794,0.76543 -1.371062,1.2129 -2.224609,1.2129 -0.853548,0 -1.634717,-0.44747 -2.222657,-1.2129 -0.58794,-0.76542 -0.964843,-1.84516 -0.964845,-3.04492 0,-1.19975 0.388221,-1.89357 0.846726,-2.14487 0.700987,-0.38419 1.530057,-0.44718 2.317152,-0.45499 z"
       id="path5495-6"
       inkscape:connector-curvature="0"
       sodipodi:nodetypes="scccscccsasccsccsa" />
    <path
       style="fill:#ffffff;fill-opacity:1;stroke:#000000;stroke-width:0.26458332px;stroke-linecap:butt;stroke-linejoin:miter;stroke-opacity:1"
       d="m 18.837229,248.56861 c -0.726212,0.0638 -1.474436,0.0989 -2.158858,0.34993 -0.315066,0.11557 -0.682404,0.2364 -0.862259,0.51972 -0.296218,0.46664 -0.166063,1.09669 -0.170257,1.64939 -0.0027,0.35966 0.02138,0.72271 0.09449,1.07487 0.07846,0.37791 0.205268,0.74766 0.366165,1.0985 0.128071,0.27926 0.289068,0.5449 0.47247,0.79138 0.187986,0.25264 0.400585,0.48983 0.637835,0.6969 0.140705,0.12281 0.294663,0.23333 0.460659,0.31892 0.133944,0.0691 0.280371,0.11198 0.425223,0.15355 0.197447,0.0567 0.397639,0.11352 0.6024,0.12993 0.149343,0.012 0.300776,-7.4e-4 0.448846,-0.0236 0.217071,-0.0335 0.434656,-0.0819 0.637835,-0.16536 0.210522,-0.0864 0.407205,-0.20777 0.590588,-0.34254 0.154941,-0.11387 0.292322,-0.25083 0.425223,-0.38979 0.13136,-0.13735 0.255671,-0.28241 0.366165,-0.43704 0.128371,-0.17965 0.241451,-0.37066 0.342541,-0.56696 0.08639,-0.16776 0.159175,-0.34266 0.224423,-0.51972 0.07407,-0.201 0.143801,-0.40482 0.188988,-0.61421 0.04605,-0.21338 0.06414,-0.43214 0.08268,-0.64965 0.01539,-0.18063 0.02095,-0.36208 0.02362,-0.54334 0.0066,-0.44742 0.04376,-0.8992 -0.01873,-1.34229 -0.01881,-0.13335 -0.02342,-0.28363 -0.106304,-0.38978 -0.113908,-0.14589 -0.319833,-0.18672 -0.484282,-0.27167 -0.220631,-0.11396 -0.436744,-0.24327 -0.67327,-0.31892 -0.319993,-0.10234 -0.658508,-0.13809 -0.992188,-0.17718 -0.207588,-0.0243 -0.417063,-0.0309 -0.626023,-0.0354 -0.09932,-0.002 -0.228612,-0.0671 -0.297988,0.004 -8.3e-5,9e-5 4e-6,3.6e-4 4e-6,3.6e-4 z"
       id="path5515-2"
       inkscape:connector-curvature="0"
       sodipodi:nodetypes="caaaaaaaaaaaaaaaaaaaaaaaaaaac" />
    <ellipse
       style="opacity:1;vector-effect:none;fill:#090909;fill-opacity:1;fill-rule:evenodd;stroke:#000000;stroke-width:0.70700002;stroke-linecap:square;stroke-linejoin:round;stroke-miterlimit:4;stroke-dasharray:none;stroke-dashoffset:0;stroke-opacity:1;paint-order:stroke markers fill"
       id="path5535"
       cx="11.244792"
       cy="251.18214"
       rx="0.28348213"
       ry="0.60239953" />
    <ellipse
       style="opacity:1;vector-effect:none;fill:#090909;fill-opacity:1;fill-rule:evenodd;stroke:#000000;stroke-width:0.70700002;stroke-linecap:square;stroke-linejoin:round;stroke-miterlimit:4;stroke-dasharray:none;stroke-dashoffset:0;stroke-opacity:1;paint-order:stroke markers fill"
       id="path5535-6"
       cx="17.575893"
       cy="251.02859"
       rx="0.28348213"
       ry="0.60239953" />
    <path
       style="color:#000000;font-style:normal;font-variant:normal;font-weight:normal;font-stretch:normal;font-size:medium;line-height:normal;font-family:sans-serif;font-variant-ligatures:normal;font-variant-position:normal;font-variant-caps:normal;font-variant-numeric:normal;font-variant-alternates:normal;font-feature-settings:normal;text-indent:0;text-align:start;text-decoration:none;text-decoration-line:none;text-decoration-style:solid;text-decoration-color:#000000;letter-spacing:normal;word-spacing:normal;text-transform:none;writing-mode:lr-tb;direction:ltr;text-orientation:mixed;dominant-baseline:auto;baseline-shift:baseline;text-anchor:start;white-space:normal;shape-padding:0;clip-rule:nonzero;display:inline;overflow:visible;visibility:visible;opacity:1;isolation:auto;mix-blend-mode:normal;color-interpolation:sRGB;color-interpolation-filters:linearRGB;solid-color:#000000;solid-opacity:1;vector-effect:none;fill:#004920;fill-opacity:1;fill-rule:evenodd;stroke:none;stroke-width:1.25897145;stroke-linecap:square;stroke-linejoin:round;stroke-miterlimit:4;stroke-dasharray:none;stroke-dashoffset:0;stroke-opacity:1;paint-order:stroke markers fill;color-rendering:auto;image-rendering:auto;shape-rendering:auto;text-rendering:auto;enable-background:accumulate"
       d="m 27.352249,209.18252 c -1.962837,0 -3.720709,1.04187 -4.956116,2.65022 -1.235406,1.60836 -1.978969,3.78956 -1.978969,6.18731 5e-6,2.39775 0.743563,4.58245 1.978969,6.19081 1.235407,1.60835 2.993284,2.65022 4.956116,2.65022 1.962833,0 3.724186,-1.04187 4.959592,-2.65022 1.235405,-1.60836 1.978964,-3.79306 1.978968,-6.19081 0,-2.39775 -0.743563,-4.57895 -1.978968,-6.18731 -1.235407,-1.60835 -2.996758,-2.65022 -4.959592,-2.65022 z m -0.04206,5.67606 c 1.397605,-0.0143 2.918222,0.0459 4.129682,0.72607 0.845688,0.47476 1.591919,0.29898 1.591919,2.4354 -4e-6,2.13645 -0.671161,4.05916 -1.71812,5.42217 -1.046959,1.36302 -2.441483,2.15983 -3.961413,2.15983 -1.519934,0 -2.91098,-0.79681 -3.957939,-2.15983 -1.046958,-1.36301 -1.718115,-3.28572 -1.71812,-5.42217 0,-2.13642 0.691314,-1.90376 1.507784,-2.35126 1.248263,-0.68414 2.724608,-0.79631 4.126207,-0.81021 z"
       id="path5495-2"
       inkscape:connector-curvature="0"
       sodipodi:nodetypes="scccscccsasccsccsa" />
    <path
       style="fill:#ffffff;fill-opacity:1;stroke:#000000;stroke-width:0.47114971px;stroke-linecap:butt;stroke-linejoin:miter;stroke-opacity:1"
       d="m 27.310189,214.85858 c -1.293184,0.11367 -2.625564,0.17611 -3.844329,0.62312 -0.561047,0.2058 -1.198566,0.43189 -1.535444,0.92549 -0.304743,0.44649 -0.251351,1.0584 -0.273436,1.59853 -0.02616,0.63995 0.03807,1.28695 0.168262,1.91405 0.139729,0.67295 0.365525,1.33137 0.652036,1.95613 0.228061,0.49728 0.51475,0.97031 0.841338,1.40922 0.334752,0.44988 0.713331,0.87225 1.135808,1.24099 0.250557,0.21868 0.524713,0.41549 0.820307,0.56791 0.238517,0.12298 0.499263,0.1994 0.757204,0.27342 0.351599,0.10091 0.708085,0.20216 1.072707,0.23137 0.265939,0.0214 0.535599,-10e-4 0.799272,-0.042 0.386542,-0.0596 0.774002,-0.14585 1.135807,-0.29447 0.374882,-0.15385 0.72512,-0.36998 1.051673,-0.60997 0.275907,-0.20277 0.520545,-0.44666 0.757205,-0.69411 0.233917,-0.24458 0.455279,-0.5029 0.652038,-0.77824 0.228594,-0.31991 0.429958,-0.66005 0.609972,-1.0096 0.153837,-0.29874 0.283447,-0.61019 0.399635,-0.92548 0.131903,-0.35793 0.25607,-0.72087 0.336536,-1.09374 0.08201,-0.37997 0.114215,-0.76952 0.147229,-1.15684 0.02741,-0.32166 0.04471,-0.64474 0.04206,-0.96754 -0.0029,-0.35118 -0.006,-0.70514 -0.06308,-1.05169 -0.03895,-0.23662 -0.0417,-0.50506 -0.189299,-0.69408 -0.202838,-0.25978 -0.569533,-0.3325 -0.862371,-0.48377 -0.392884,-0.20294 -0.77772,-0.43319 -1.198908,-0.5679 -0.56982,-0.18225 -1.172621,-0.24592 -1.766813,-0.31551 -0.369658,-0.0433 -0.74267,-0.0552 -1.114774,-0.0631 -0.17686,-0.003 -0.354415,-0.007 -0.530633,0.007 z"
       id="path5515-1"
       inkscape:connector-curvature="0"
       sodipodi:nodetypes="aaaaaaaaaaaaaaaaaaaaaaaaaaaa" />
    <path
       style="color:#000000;font-style:normal;font-variant:normal;font-weight:normal;font-stretch:normal;font-size:medium;line-height:normal;font-family:sans-serif;font-variant-ligatures:normal;font-variant-position:normal;font-variant-caps:normal;font-variant-numeric:normal;font-variant-alternates:normal;font-feature-settings:normal;text-indent:0;text-align:start;text-decoration:none;text-decoration-line:none;text-decoration-style:solid;text-decoration-color:#000000;letter-spacing:normal;word-spacing:normal;text-transform:none;writing-mode:lr-tb;direction:ltr;text-orientation:mixed;dominant-baseline:auto;baseline-shift:baseline;text-anchor:start;white-space:normal;shape-padding:0;clip-rule:nonzero;display:inline;overflow:visible;visibility:visible;opacity:1;isolation:auto;mix-blend-mode:normal;color-interpolation:sRGB;color-interpolation-filters:linearRGB;solid-color:#000000;solid-opacity:1;vector-effect:none;fill:#004920;fill-opacity:1;fill-rule:evenodd;stroke:none;stroke-width:1.25897145;stroke-linecap:square;stroke-linejoin:round;stroke-miterlimit:4;stroke-dasharray:none;stroke-dashoffset:0;stroke-opacity:1;paint-order:stroke markers fill;color-rendering:auto;image-rendering:auto;shape-rendering:auto;text-rendering:auto;enable-background:accumulate"
       d="m 38.65985,209.18252 c -1.962837,0 -3.72071,1.04187 -4.956117,2.65022 -1.235405,1.60836 -1.97897,3.78956 -1.978968,6.18731 4e-6,2.39775 0.743563,4.58245 1.978968,6.19081 1.235407,1.60835 2.993284,2.65022 4.956117,2.65022 1.962833,0 3.724186,-1.04187 4.959591,-2.65022 1.235406,-1.60836 1.978964,-3.79306 1.978969,-6.19081 0,-2.39775 -0.743563,-4.57895 -1.978969,-6.18731 -1.235407,-1.60835 -2.996757,-2.65022 -4.959591,-2.65022 z m -0.04206,4.2079 c 1.397605,-0.0143 2.918221,0.0459 4.129682,0.72608 0.845688,0.47475 1.591919,1.76713 1.591919,3.90355 -5e-6,2.13645 -0.671162,4.05916 -1.71812,5.42217 -1.046959,1.36302 -2.441484,2.15983 -3.961415,2.15983 -1.51993,0 -2.910976,-0.79681 -3.957934,-2.15983 -1.046962,-1.36301 -1.718119,-3.28572 -1.718124,-5.42217 0,-2.13642 0.691313,-3.37192 1.507786,-3.81942 1.248261,-0.68413 2.724607,-0.79629 4.126206,-0.81021 z"
       id="path5495-6-5"
       inkscape:connector-curvature="0"
       sodipodi:nodetypes="scccscccsasccsccsa" />
    <path
       style="fill:#ffffff;fill-opacity:1;stroke:#000000;stroke-width:0.47114971px;stroke-linecap:butt;stroke-linejoin:miter;stroke-opacity:1"
       d="m 38.647534,213.52001 c -1.293183,0.11367 -2.625562,0.17611 -3.844329,0.62312 -0.561046,0.2058 -1.215173,0.42097 -1.535445,0.92549 -0.527483,0.83095 -0.295712,1.9529 -0.30318,2.9371 -0.0049,0.64046 0.03807,1.28695 0.16826,1.91405 0.139715,0.67295 0.365525,1.33137 0.652039,1.95613 0.228058,0.49728 0.51475,0.97031 0.841338,1.40922 0.334751,0.44988 0.713331,0.87225 1.135807,1.24099 0.250557,0.21868 0.524714,0.41549 0.820307,0.56791 0.238518,0.12298 0.499263,0.1994 0.757205,0.27342 0.351599,0.10091 0.708085,0.20216 1.072707,0.23137 0.265939,0.0214 0.535599,-10e-4 0.799272,-0.042 0.386542,-0.0596 0.774001,-0.14585 1.135807,-0.29447 0.374881,-0.15385 0.725119,-0.36998 1.051673,-0.60997 0.275907,-0.20277 0.520545,-0.44666 0.757205,-0.69411 0.233916,-0.24458 0.455279,-0.5029 0.652038,-0.77824 0.228594,-0.31991 0.429958,-0.66005 0.609972,-1.0096 0.153837,-0.29874 0.283446,-0.61019 0.399635,-0.92548 0.131903,-0.35793 0.256069,-0.72087 0.336536,-1.09374 0.08201,-0.37997 0.114214,-0.76952 0.147229,-1.15684 0.02741,-0.32166 0.03731,-0.64477 0.04206,-0.96754 0.01175,-0.79674 0.07792,-1.60123 -0.03336,-2.39025 -0.0335,-0.23746 -0.0417,-0.50507 -0.189299,-0.69409 -0.202837,-0.25979 -0.569532,-0.3325 -0.86237,-0.48377 -0.392882,-0.20292 -0.77772,-0.43319 -1.198908,-0.5679 -0.569819,-0.18225 -1.17262,-0.2459 -1.766812,-0.31551 -0.369656,-0.0433 -0.742674,-0.055 -1.114773,-0.0631 -0.176862,-0.003 -0.407096,-0.11955 -0.530635,0.007 -1.48e-4,1.5e-4 7e-6,6.4e-4 7e-6,6.4e-4 z"
       id="path5515-2-8"
       inkscape:connector-curvature="0"
       sodipodi:nodetypes="caaaaaaaaaaaaaaaaaaaaaaaaaaac" />
    <ellipse
       style="opacity:1;vector-effect:none;fill:#090909;fill-opacity:1;fill-rule:evenodd;stroke:#000000;stroke-width:1.25897145;stroke-linecap:square;stroke-linejoin:round;stroke-miterlimit:4;stroke-dasharray:none;stroke-dashoffset:0;stroke-opacity:1;paint-order:stroke markers fill"
       id="path5535-5"
       cx="25.127502"
       cy="218.17397"
       rx="0.5048033"
       ry="1.0727069" />
    <ellipse
       style="opacity:1;vector-effect:none;fill:#090909;fill-opacity:1;fill-rule:evenodd;stroke:#000000;stroke-width:1.25897145;stroke-linecap:square;stroke-linejoin:round;stroke-miterlimit:4;stroke-dasharray:none;stroke-dashoffset:0;stroke-opacity:1;paint-order:stroke markers fill"
       id="path5535-6-9"
       cx="36.401436"
       cy="217.90054"
       rx="0.5048033"
       ry="1.0727069" />
  </g>
</svg>
